<?xml version="1.0" encoding="utf-8" standalone="no"?>
<!DOCTYPE svg PUBLIC "-//W3C//DTD SVG 1.1//EN"
  "http://www.w3.org/Graphics/SVG/1.1/DTD/svg11.dtd">
<svg xmlns:xlink="http://www.w3.org/1999/xlink" width="720pt" height="360pt" viewBox="0 0 720 360" xmlns="http://www.w3.org/2000/svg" version="1.1">
 <metadata>
  <rdf:RDF xmlns:dc="http://purl.org/dc/elements/1.1/" xmlns:cc="http://creativecommons.org/ns#" xmlns:rdf="http://www.w3.org/1999/02/22-rdf-syntax-ns#">
   <cc:Work>
    <dc:type rdf:resource="http://purl.org/dc/dcmitype/StillImage"/>
    <dc:date>2022-07-18T04:11:46.055106</dc:date>
    <dc:format>image/svg+xml</dc:format>
    <dc:creator>
     <cc:Agent>
      <dc:title>Matplotlib v3.5.1, https://matplotlib.org/</dc:title>
     </cc:Agent>
    </dc:creator>
   </cc:Work>
  </rdf:RDF>
 </metadata>
 <defs>
  <style type="text/css">*{stroke-linejoin: round; stroke-linecap: butt}</style>
 </defs>
 <g id="figure_1">
  <g id="patch_1">
   <path d="M 0 360 
L 720 360 
L 720 0 
L 0 0 
z
" style="fill: #ffffff"/>
  </g>
  <g id="axes_1">
   <g id="patch_2">
    <path d="M 64.256875 280.993125 
L 372.145 280.993125 
L 372.145 26.96 
L 64.256875 26.96 
z
" style="fill: #eaeaf2"/>
   </g>
   <g id="matplotlib.axis_1">
    <g id="xtick_1">
     <g id="line2d_1">
      <path d="M 78.25179 280.993125 
L 78.25179 26.96 
" clip-path="url(#p34230573b8)" style="fill: none; stroke: #ffffff; stroke-linecap: round"/>
     </g>
     <g id="text_1">
      <!-- 16x16 -->
      <g style="fill: #262626" transform="translate(81.095462 320.46125)rotate(-90)scale(0.11 -0.11)">
       <defs>
        <path id="ArialMT-31" d="M 2384 0 
L 1822 0 
L 1822 3584 
Q 1619 3391 1289 3197 
Q 959 3003 697 2906 
L 697 3450 
Q 1169 3672 1522 3987 
Q 1875 4303 2022 4600 
L 2384 4600 
L 2384 0 
z
" transform="scale(0.015625)"/>
        <path id="ArialMT-36" d="M 3184 3459 
L 2625 3416 
Q 2550 3747 2413 3897 
Q 2184 4138 1850 4138 
Q 1581 4138 1378 3988 
Q 1113 3794 959 3422 
Q 806 3050 800 2363 
Q 1003 2672 1297 2822 
Q 1591 2972 1913 2972 
Q 2475 2972 2870 2558 
Q 3266 2144 3266 1488 
Q 3266 1056 3080 686 
Q 2894 316 2569 119 
Q 2244 -78 1831 -78 
Q 1128 -78 684 439 
Q 241 956 241 2144 
Q 241 3472 731 4075 
Q 1159 4600 1884 4600 
Q 2425 4600 2770 4297 
Q 3116 3994 3184 3459 
z
M 888 1484 
Q 888 1194 1011 928 
Q 1134 663 1356 523 
Q 1578 384 1822 384 
Q 2178 384 2434 671 
Q 2691 959 2691 1453 
Q 2691 1928 2437 2201 
Q 2184 2475 1800 2475 
Q 1419 2475 1153 2201 
Q 888 1928 888 1484 
z
" transform="scale(0.015625)"/>
        <path id="ArialMT-78" d="M 47 0 
L 1259 1725 
L 138 3319 
L 841 3319 
L 1350 2541 
Q 1494 2319 1581 2169 
Q 1719 2375 1834 2534 
L 2394 3319 
L 3066 3319 
L 1919 1756 
L 3153 0 
L 2463 0 
L 1781 1031 
L 1600 1309 
L 728 0 
L 47 0 
z
" transform="scale(0.015625)"/>
       </defs>
       <use xlink:href="#ArialMT-31"/>
       <use xlink:href="#ArialMT-36" x="55.615234"/>
       <use xlink:href="#ArialMT-78" x="111.230469"/>
       <use xlink:href="#ArialMT-31" x="161.230469"/>
       <use xlink:href="#ArialMT-36" x="216.845703"/>
      </g>
     </g>
    </g>
    <g id="xtick_2">
     <g id="line2d_2">
      <path d="M 98.244525 280.993125 
L 98.244525 26.96 
" clip-path="url(#p34230573b8)" style="fill: none; stroke: #ffffff; stroke-linecap: round"/>
     </g>
     <g id="text_2">
      <!-- 24x24 -->
      <g style="fill: #262626" transform="translate(101.088197 320.46125)rotate(-90)scale(0.11 -0.11)">
       <defs>
        <path id="ArialMT-32" d="M 3222 541 
L 3222 0 
L 194 0 
Q 188 203 259 391 
Q 375 700 629 1000 
Q 884 1300 1366 1694 
Q 2113 2306 2375 2664 
Q 2638 3022 2638 3341 
Q 2638 3675 2398 3904 
Q 2159 4134 1775 4134 
Q 1369 4134 1125 3890 
Q 881 3647 878 3216 
L 300 3275 
Q 359 3922 746 4261 
Q 1134 4600 1788 4600 
Q 2447 4600 2831 4234 
Q 3216 3869 3216 3328 
Q 3216 3053 3103 2787 
Q 2991 2522 2730 2228 
Q 2469 1934 1863 1422 
Q 1356 997 1212 845 
Q 1069 694 975 541 
L 3222 541 
z
" transform="scale(0.015625)"/>
        <path id="ArialMT-34" d="M 2069 0 
L 2069 1097 
L 81 1097 
L 81 1613 
L 2172 4581 
L 2631 4581 
L 2631 1613 
L 3250 1613 
L 3250 1097 
L 2631 1097 
L 2631 0 
L 2069 0 
z
M 2069 1613 
L 2069 3678 
L 634 1613 
L 2069 1613 
z
" transform="scale(0.015625)"/>
       </defs>
       <use xlink:href="#ArialMT-32"/>
       <use xlink:href="#ArialMT-34" x="55.615234"/>
       <use xlink:href="#ArialMT-78" x="111.230469"/>
       <use xlink:href="#ArialMT-32" x="161.230469"/>
       <use xlink:href="#ArialMT-34" x="216.845703"/>
      </g>
     </g>
    </g>
    <g id="xtick_3">
     <g id="line2d_3">
      <path d="M 118.237261 280.993125 
L 118.237261 26.96 
" clip-path="url(#p34230573b8)" style="fill: none; stroke: #ffffff; stroke-linecap: round"/>
     </g>
     <g id="text_3">
      <!-- 32x32 -->
      <g style="fill: #262626" transform="translate(121.080932 320.46125)rotate(-90)scale(0.11 -0.11)">
       <defs>
        <path id="ArialMT-33" d="M 269 1209 
L 831 1284 
Q 928 806 1161 595 
Q 1394 384 1728 384 
Q 2125 384 2398 659 
Q 2672 934 2672 1341 
Q 2672 1728 2419 1979 
Q 2166 2231 1775 2231 
Q 1616 2231 1378 2169 
L 1441 2663 
Q 1497 2656 1531 2656 
Q 1891 2656 2178 2843 
Q 2466 3031 2466 3422 
Q 2466 3731 2256 3934 
Q 2047 4138 1716 4138 
Q 1388 4138 1169 3931 
Q 950 3725 888 3313 
L 325 3413 
Q 428 3978 793 4289 
Q 1159 4600 1703 4600 
Q 2078 4600 2393 4439 
Q 2709 4278 2876 4000 
Q 3044 3722 3044 3409 
Q 3044 3113 2884 2869 
Q 2725 2625 2413 2481 
Q 2819 2388 3044 2092 
Q 3269 1797 3269 1353 
Q 3269 753 2831 336 
Q 2394 -81 1725 -81 
Q 1122 -81 723 278 
Q 325 638 269 1209 
z
" transform="scale(0.015625)"/>
       </defs>
       <use xlink:href="#ArialMT-33"/>
       <use xlink:href="#ArialMT-32" x="55.615234"/>
       <use xlink:href="#ArialMT-78" x="111.230469"/>
       <use xlink:href="#ArialMT-33" x="161.230469"/>
       <use xlink:href="#ArialMT-32" x="216.845703"/>
      </g>
     </g>
    </g>
    <g id="xtick_4">
     <g id="line2d_4">
      <path d="M 138.229996 280.993125 
L 138.229996 26.96 
" clip-path="url(#p34230573b8)" style="fill: none; stroke: #ffffff; stroke-linecap: round"/>
     </g>
     <g id="text_4">
      <!-- 40x40 -->
      <g style="fill: #262626" transform="translate(141.073668 320.46125)rotate(-90)scale(0.11 -0.11)">
       <defs>
        <path id="ArialMT-30" d="M 266 2259 
Q 266 3072 433 3567 
Q 600 4063 929 4331 
Q 1259 4600 1759 4600 
Q 2128 4600 2406 4451 
Q 2684 4303 2865 4023 
Q 3047 3744 3150 3342 
Q 3253 2941 3253 2259 
Q 3253 1453 3087 958 
Q 2922 463 2592 192 
Q 2263 -78 1759 -78 
Q 1097 -78 719 397 
Q 266 969 266 2259 
z
M 844 2259 
Q 844 1131 1108 757 
Q 1372 384 1759 384 
Q 2147 384 2411 759 
Q 2675 1134 2675 2259 
Q 2675 3391 2411 3762 
Q 2147 4134 1753 4134 
Q 1366 4134 1134 3806 
Q 844 3388 844 2259 
z
" transform="scale(0.015625)"/>
       </defs>
       <use xlink:href="#ArialMT-34"/>
       <use xlink:href="#ArialMT-30" x="55.615234"/>
       <use xlink:href="#ArialMT-78" x="111.230469"/>
       <use xlink:href="#ArialMT-34" x="161.230469"/>
       <use xlink:href="#ArialMT-30" x="216.845703"/>
      </g>
     </g>
    </g>
    <g id="xtick_5">
     <g id="line2d_5">
      <path d="M 158.222731 280.993125 
L 158.222731 26.96 
" clip-path="url(#p34230573b8)" style="fill: none; stroke: #ffffff; stroke-linecap: round"/>
     </g>
     <g id="text_5">
      <!-- 48x48 -->
      <g style="fill: #262626" transform="translate(161.066403 320.46125)rotate(-90)scale(0.11 -0.11)">
       <defs>
        <path id="ArialMT-38" d="M 1131 2484 
Q 781 2613 612 2850 
Q 444 3088 444 3419 
Q 444 3919 803 4259 
Q 1163 4600 1759 4600 
Q 2359 4600 2725 4251 
Q 3091 3903 3091 3403 
Q 3091 3084 2923 2848 
Q 2756 2613 2416 2484 
Q 2838 2347 3058 2040 
Q 3278 1734 3278 1309 
Q 3278 722 2862 322 
Q 2447 -78 1769 -78 
Q 1091 -78 675 323 
Q 259 725 259 1325 
Q 259 1772 486 2073 
Q 713 2375 1131 2484 
z
M 1019 3438 
Q 1019 3113 1228 2906 
Q 1438 2700 1772 2700 
Q 2097 2700 2305 2904 
Q 2513 3109 2513 3406 
Q 2513 3716 2298 3927 
Q 2084 4138 1766 4138 
Q 1444 4138 1231 3931 
Q 1019 3725 1019 3438 
z
M 838 1322 
Q 838 1081 952 856 
Q 1066 631 1291 507 
Q 1516 384 1775 384 
Q 2178 384 2440 643 
Q 2703 903 2703 1303 
Q 2703 1709 2433 1975 
Q 2163 2241 1756 2241 
Q 1359 2241 1098 1978 
Q 838 1716 838 1322 
z
" transform="scale(0.015625)"/>
       </defs>
       <use xlink:href="#ArialMT-34"/>
       <use xlink:href="#ArialMT-38" x="55.615234"/>
       <use xlink:href="#ArialMT-78" x="111.230469"/>
       <use xlink:href="#ArialMT-34" x="161.230469"/>
       <use xlink:href="#ArialMT-38" x="216.845703"/>
      </g>
     </g>
    </g>
    <g id="xtick_6">
     <g id="line2d_6">
      <path d="M 178.215467 280.993125 
L 178.215467 26.96 
" clip-path="url(#p34230573b8)" style="fill: none; stroke: #ffffff; stroke-linecap: round"/>
     </g>
     <g id="text_6">
      <!-- 56x56 -->
      <g style="fill: #262626" transform="translate(181.059139 320.46125)rotate(-90)scale(0.11 -0.11)">
       <defs>
        <path id="ArialMT-35" d="M 266 1200 
L 856 1250 
Q 922 819 1161 601 
Q 1400 384 1738 384 
Q 2144 384 2425 690 
Q 2706 997 2706 1503 
Q 2706 1984 2436 2262 
Q 2166 2541 1728 2541 
Q 1456 2541 1237 2417 
Q 1019 2294 894 2097 
L 366 2166 
L 809 4519 
L 3088 4519 
L 3088 3981 
L 1259 3981 
L 1013 2750 
Q 1425 3038 1878 3038 
Q 2478 3038 2890 2622 
Q 3303 2206 3303 1553 
Q 3303 931 2941 478 
Q 2500 -78 1738 -78 
Q 1113 -78 717 272 
Q 322 622 266 1200 
z
" transform="scale(0.015625)"/>
       </defs>
       <use xlink:href="#ArialMT-35"/>
       <use xlink:href="#ArialMT-36" x="55.615234"/>
       <use xlink:href="#ArialMT-78" x="111.230469"/>
       <use xlink:href="#ArialMT-35" x="161.230469"/>
       <use xlink:href="#ArialMT-36" x="216.845703"/>
      </g>
     </g>
    </g>
    <g id="xtick_7">
     <g id="line2d_7">
      <path d="M 198.208202 280.993125 
L 198.208202 26.96 
" clip-path="url(#p34230573b8)" style="fill: none; stroke: #ffffff; stroke-linecap: round"/>
     </g>
     <g id="text_7">
      <!-- 64x64 -->
      <g style="fill: #262626" transform="translate(201.051874 320.46125)rotate(-90)scale(0.11 -0.11)">
       <use xlink:href="#ArialMT-36"/>
       <use xlink:href="#ArialMT-34" x="55.615234"/>
       <use xlink:href="#ArialMT-78" x="111.230469"/>
       <use xlink:href="#ArialMT-36" x="161.230469"/>
       <use xlink:href="#ArialMT-34" x="216.845703"/>
      </g>
     </g>
    </g>
    <g id="xtick_8">
     <g id="line2d_8">
      <path d="M 218.200938 280.993125 
L 218.200938 26.96 
" clip-path="url(#p34230573b8)" style="fill: none; stroke: #ffffff; stroke-linecap: round"/>
     </g>
     <g id="text_8">
      <!-- 72x72 -->
      <g style="fill: #262626" transform="translate(221.044609 320.46125)rotate(-90)scale(0.11 -0.11)">
       <defs>
        <path id="ArialMT-37" d="M 303 3981 
L 303 4522 
L 3269 4522 
L 3269 4084 
Q 2831 3619 2401 2847 
Q 1972 2075 1738 1259 
Q 1569 684 1522 0 
L 944 0 
Q 953 541 1156 1306 
Q 1359 2072 1739 2783 
Q 2119 3494 2547 3981 
L 303 3981 
z
" transform="scale(0.015625)"/>
       </defs>
       <use xlink:href="#ArialMT-37"/>
       <use xlink:href="#ArialMT-32" x="55.615234"/>
       <use xlink:href="#ArialMT-78" x="111.230469"/>
       <use xlink:href="#ArialMT-37" x="161.230469"/>
       <use xlink:href="#ArialMT-32" x="216.845703"/>
      </g>
     </g>
    </g>
    <g id="xtick_9">
     <g id="line2d_9">
      <path d="M 238.193673 280.993125 
L 238.193673 26.96 
" clip-path="url(#p34230573b8)" style="fill: none; stroke: #ffffff; stroke-linecap: round"/>
     </g>
     <g id="text_9">
      <!-- 80x80 -->
      <g style="fill: #262626" transform="translate(241.037345 320.46125)rotate(-90)scale(0.11 -0.11)">
       <use xlink:href="#ArialMT-38"/>
       <use xlink:href="#ArialMT-30" x="55.615234"/>
       <use xlink:href="#ArialMT-78" x="111.230469"/>
       <use xlink:href="#ArialMT-38" x="161.230469"/>
       <use xlink:href="#ArialMT-30" x="216.845703"/>
      </g>
     </g>
    </g>
    <g id="xtick_10">
     <g id="line2d_10">
      <path d="M 258.186408 280.993125 
L 258.186408 26.96 
" clip-path="url(#p34230573b8)" style="fill: none; stroke: #ffffff; stroke-linecap: round"/>
     </g>
     <g id="text_10">
      <!-- 88x88 -->
      <g style="fill: #262626" transform="translate(261.03008 320.46125)rotate(-90)scale(0.11 -0.11)">
       <use xlink:href="#ArialMT-38"/>
       <use xlink:href="#ArialMT-38" x="55.615234"/>
       <use xlink:href="#ArialMT-78" x="111.230469"/>
       <use xlink:href="#ArialMT-38" x="161.230469"/>
       <use xlink:href="#ArialMT-38" x="216.845703"/>
      </g>
     </g>
    </g>
    <g id="xtick_11">
     <g id="line2d_11">
      <path d="M 278.179144 280.993125 
L 278.179144 26.96 
" clip-path="url(#p34230573b8)" style="fill: none; stroke: #ffffff; stroke-linecap: round"/>
     </g>
     <g id="text_11">
      <!-- 96x96 -->
      <g style="fill: #262626" transform="translate(281.022816 320.46125)rotate(-90)scale(0.11 -0.11)">
       <defs>
        <path id="ArialMT-39" d="M 350 1059 
L 891 1109 
Q 959 728 1153 556 
Q 1347 384 1650 384 
Q 1909 384 2104 503 
Q 2300 622 2425 820 
Q 2550 1019 2634 1356 
Q 2719 1694 2719 2044 
Q 2719 2081 2716 2156 
Q 2547 1888 2255 1720 
Q 1963 1553 1622 1553 
Q 1053 1553 659 1965 
Q 266 2378 266 3053 
Q 266 3750 677 4175 
Q 1088 4600 1706 4600 
Q 2153 4600 2523 4359 
Q 2894 4119 3086 3673 
Q 3278 3228 3278 2384 
Q 3278 1506 3087 986 
Q 2897 466 2520 194 
Q 2144 -78 1638 -78 
Q 1100 -78 759 220 
Q 419 519 350 1059 
z
M 2653 3081 
Q 2653 3566 2395 3850 
Q 2138 4134 1775 4134 
Q 1400 4134 1122 3828 
Q 844 3522 844 3034 
Q 844 2597 1108 2323 
Q 1372 2050 1759 2050 
Q 2150 2050 2401 2323 
Q 2653 2597 2653 3081 
z
" transform="scale(0.015625)"/>
       </defs>
       <use xlink:href="#ArialMT-39"/>
       <use xlink:href="#ArialMT-36" x="55.615234"/>
       <use xlink:href="#ArialMT-78" x="111.230469"/>
       <use xlink:href="#ArialMT-39" x="161.230469"/>
       <use xlink:href="#ArialMT-36" x="216.845703"/>
      </g>
     </g>
    </g>
    <g id="xtick_12">
     <g id="line2d_12">
      <path d="M 298.171879 280.993125 
L 298.171879 26.96 
" clip-path="url(#p34230573b8)" style="fill: none; stroke: #ffffff; stroke-linecap: round"/>
     </g>
     <g id="text_12">
      <!-- 104x104 -->
      <g style="fill: #262626" transform="translate(301.015551 332.695312)rotate(-90)scale(0.11 -0.11)">
       <use xlink:href="#ArialMT-31"/>
       <use xlink:href="#ArialMT-30" x="55.615234"/>
       <use xlink:href="#ArialMT-34" x="111.230469"/>
       <use xlink:href="#ArialMT-78" x="166.845703"/>
       <use xlink:href="#ArialMT-31" x="216.845703"/>
       <use xlink:href="#ArialMT-30" x="272.460938"/>
       <use xlink:href="#ArialMT-34" x="328.076172"/>
      </g>
     </g>
    </g>
    <g id="xtick_13">
     <g id="line2d_13">
      <path d="M 328.160982 280.993125 
L 328.160982 26.96 
" clip-path="url(#p34230573b8)" style="fill: none; stroke: #ffffff; stroke-linecap: round"/>
     </g>
     <g id="text_13">
      <!-- 116x116 -->
      <g style="fill: #262626" transform="translate(331.004654 331.072812)rotate(-90)scale(0.11 -0.11)">
       <use xlink:href="#ArialMT-31"/>
       <use xlink:href="#ArialMT-31" x="48.240234"/>
       <use xlink:href="#ArialMT-36" x="103.855469"/>
       <use xlink:href="#ArialMT-78" x="159.470703"/>
       <use xlink:href="#ArialMT-31" x="209.470703"/>
       <use xlink:href="#ArialMT-31" x="257.710938"/>
       <use xlink:href="#ArialMT-36" x="313.326172"/>
      </g>
     </g>
    </g>
    <g id="xtick_14">
     <g id="line2d_14">
      <path d="M 348.153718 280.993125 
L 348.153718 26.96 
" clip-path="url(#p34230573b8)" style="fill: none; stroke: #ffffff; stroke-linecap: round"/>
     </g>
     <g id="text_14">
      <!-- 124x124 -->
      <g style="fill: #262626" transform="translate(350.997389 332.695312)rotate(-90)scale(0.11 -0.11)">
       <use xlink:href="#ArialMT-31"/>
       <use xlink:href="#ArialMT-32" x="55.615234"/>
       <use xlink:href="#ArialMT-34" x="111.230469"/>
       <use xlink:href="#ArialMT-78" x="166.845703"/>
       <use xlink:href="#ArialMT-31" x="216.845703"/>
       <use xlink:href="#ArialMT-32" x="272.460938"/>
       <use xlink:href="#ArialMT-34" x="328.076172"/>
      </g>
     </g>
    </g>
    <g id="text_15">
     <!-- Input matrix size -->
     <g style="fill: #262626" transform="translate(174.521875 345.284688)scale(0.12 -0.12)">
      <defs>
       <path id="ArialMT-49" d="M 597 0 
L 597 4581 
L 1203 4581 
L 1203 0 
L 597 0 
z
" transform="scale(0.015625)"/>
       <path id="ArialMT-6e" d="M 422 0 
L 422 3319 
L 928 3319 
L 928 2847 
Q 1294 3394 1984 3394 
Q 2284 3394 2536 3286 
Q 2788 3178 2913 3003 
Q 3038 2828 3088 2588 
Q 3119 2431 3119 2041 
L 3119 0 
L 2556 0 
L 2556 2019 
Q 2556 2363 2490 2533 
Q 2425 2703 2258 2804 
Q 2091 2906 1866 2906 
Q 1506 2906 1245 2678 
Q 984 2450 984 1813 
L 984 0 
L 422 0 
z
" transform="scale(0.015625)"/>
       <path id="ArialMT-70" d="M 422 -1272 
L 422 3319 
L 934 3319 
L 934 2888 
Q 1116 3141 1344 3267 
Q 1572 3394 1897 3394 
Q 2322 3394 2647 3175 
Q 2972 2956 3137 2557 
Q 3303 2159 3303 1684 
Q 3303 1175 3120 767 
Q 2938 359 2589 142 
Q 2241 -75 1856 -75 
Q 1575 -75 1351 44 
Q 1128 163 984 344 
L 984 -1272 
L 422 -1272 
z
M 931 1641 
Q 931 1000 1190 694 
Q 1450 388 1819 388 
Q 2194 388 2461 705 
Q 2728 1022 2728 1688 
Q 2728 2322 2467 2637 
Q 2206 2953 1844 2953 
Q 1484 2953 1207 2617 
Q 931 2281 931 1641 
z
" transform="scale(0.015625)"/>
       <path id="ArialMT-75" d="M 2597 0 
L 2597 488 
Q 2209 -75 1544 -75 
Q 1250 -75 995 37 
Q 741 150 617 320 
Q 494 491 444 738 
Q 409 903 409 1263 
L 409 3319 
L 972 3319 
L 972 1478 
Q 972 1038 1006 884 
Q 1059 663 1231 536 
Q 1403 409 1656 409 
Q 1909 409 2131 539 
Q 2353 669 2445 892 
Q 2538 1116 2538 1541 
L 2538 3319 
L 3100 3319 
L 3100 0 
L 2597 0 
z
" transform="scale(0.015625)"/>
       <path id="ArialMT-74" d="M 1650 503 
L 1731 6 
Q 1494 -44 1306 -44 
Q 1000 -44 831 53 
Q 663 150 594 308 
Q 525 466 525 972 
L 525 2881 
L 113 2881 
L 113 3319 
L 525 3319 
L 525 4141 
L 1084 4478 
L 1084 3319 
L 1650 3319 
L 1650 2881 
L 1084 2881 
L 1084 941 
Q 1084 700 1114 631 
Q 1144 563 1211 522 
Q 1278 481 1403 481 
Q 1497 481 1650 503 
z
" transform="scale(0.015625)"/>
       <path id="ArialMT-20" transform="scale(0.015625)"/>
       <path id="ArialMT-6d" d="M 422 0 
L 422 3319 
L 925 3319 
L 925 2853 
Q 1081 3097 1340 3245 
Q 1600 3394 1931 3394 
Q 2300 3394 2536 3241 
Q 2772 3088 2869 2813 
Q 3263 3394 3894 3394 
Q 4388 3394 4653 3120 
Q 4919 2847 4919 2278 
L 4919 0 
L 4359 0 
L 4359 2091 
Q 4359 2428 4304 2576 
Q 4250 2725 4106 2815 
Q 3963 2906 3769 2906 
Q 3419 2906 3187 2673 
Q 2956 2441 2956 1928 
L 2956 0 
L 2394 0 
L 2394 2156 
Q 2394 2531 2256 2718 
Q 2119 2906 1806 2906 
Q 1569 2906 1367 2781 
Q 1166 2656 1075 2415 
Q 984 2175 984 1722 
L 984 0 
L 422 0 
z
" transform="scale(0.015625)"/>
       <path id="ArialMT-61" d="M 2588 409 
Q 2275 144 1986 34 
Q 1697 -75 1366 -75 
Q 819 -75 525 192 
Q 231 459 231 875 
Q 231 1119 342 1320 
Q 453 1522 633 1644 
Q 813 1766 1038 1828 
Q 1203 1872 1538 1913 
Q 2219 1994 2541 2106 
Q 2544 2222 2544 2253 
Q 2544 2597 2384 2738 
Q 2169 2928 1744 2928 
Q 1347 2928 1158 2789 
Q 969 2650 878 2297 
L 328 2372 
Q 403 2725 575 2942 
Q 747 3159 1072 3276 
Q 1397 3394 1825 3394 
Q 2250 3394 2515 3294 
Q 2781 3194 2906 3042 
Q 3031 2891 3081 2659 
Q 3109 2516 3109 2141 
L 3109 1391 
Q 3109 606 3145 398 
Q 3181 191 3288 0 
L 2700 0 
Q 2613 175 2588 409 
z
M 2541 1666 
Q 2234 1541 1622 1453 
Q 1275 1403 1131 1340 
Q 988 1278 909 1158 
Q 831 1038 831 891 
Q 831 666 1001 516 
Q 1172 366 1500 366 
Q 1825 366 2078 508 
Q 2331 650 2450 897 
Q 2541 1088 2541 1459 
L 2541 1666 
z
" transform="scale(0.015625)"/>
       <path id="ArialMT-72" d="M 416 0 
L 416 3319 
L 922 3319 
L 922 2816 
Q 1116 3169 1280 3281 
Q 1444 3394 1641 3394 
Q 1925 3394 2219 3213 
L 2025 2691 
Q 1819 2813 1613 2813 
Q 1428 2813 1281 2702 
Q 1134 2591 1072 2394 
Q 978 2094 978 1738 
L 978 0 
L 416 0 
z
" transform="scale(0.015625)"/>
       <path id="ArialMT-69" d="M 425 3934 
L 425 4581 
L 988 4581 
L 988 3934 
L 425 3934 
z
M 425 0 
L 425 3319 
L 988 3319 
L 988 0 
L 425 0 
z
" transform="scale(0.015625)"/>
       <path id="ArialMT-73" d="M 197 991 
L 753 1078 
Q 800 744 1014 566 
Q 1228 388 1613 388 
Q 2000 388 2187 545 
Q 2375 703 2375 916 
Q 2375 1106 2209 1216 
Q 2094 1291 1634 1406 
Q 1016 1563 777 1677 
Q 538 1791 414 1992 
Q 291 2194 291 2438 
Q 291 2659 392 2848 
Q 494 3038 669 3163 
Q 800 3259 1026 3326 
Q 1253 3394 1513 3394 
Q 1903 3394 2198 3281 
Q 2494 3169 2634 2976 
Q 2775 2784 2828 2463 
L 2278 2388 
Q 2241 2644 2061 2787 
Q 1881 2931 1553 2931 
Q 1166 2931 1000 2803 
Q 834 2675 834 2503 
Q 834 2394 903 2306 
Q 972 2216 1119 2156 
Q 1203 2125 1616 2013 
Q 2213 1853 2448 1751 
Q 2684 1650 2818 1456 
Q 2953 1263 2953 975 
Q 2953 694 2789 445 
Q 2625 197 2315 61 
Q 2006 -75 1616 -75 
Q 969 -75 630 194 
Q 291 463 197 991 
z
" transform="scale(0.015625)"/>
       <path id="ArialMT-7a" d="M 125 0 
L 125 456 
L 2238 2881 
Q 1878 2863 1603 2863 
L 250 2863 
L 250 3319 
L 2963 3319 
L 2963 2947 
L 1166 841 
L 819 456 
Q 1197 484 1528 484 
L 3063 484 
L 3063 0 
L 125 0 
z
" transform="scale(0.015625)"/>
       <path id="ArialMT-65" d="M 2694 1069 
L 3275 997 
Q 3138 488 2766 206 
Q 2394 -75 1816 -75 
Q 1088 -75 661 373 
Q 234 822 234 1631 
Q 234 2469 665 2931 
Q 1097 3394 1784 3394 
Q 2450 3394 2872 2941 
Q 3294 2488 3294 1666 
Q 3294 1616 3291 1516 
L 816 1516 
Q 847 969 1125 678 
Q 1403 388 1819 388 
Q 2128 388 2347 550 
Q 2566 713 2694 1069 
z
M 847 1978 
L 2700 1978 
Q 2663 2397 2488 2606 
Q 2219 2931 1791 2931 
Q 1403 2931 1139 2672 
Q 875 2413 847 1978 
z
" transform="scale(0.015625)"/>
      </defs>
      <use xlink:href="#ArialMT-49"/>
      <use xlink:href="#ArialMT-6e" x="27.783203"/>
      <use xlink:href="#ArialMT-70" x="83.398438"/>
      <use xlink:href="#ArialMT-75" x="139.013672"/>
      <use xlink:href="#ArialMT-74" x="194.628906"/>
      <use xlink:href="#ArialMT-20" x="222.412109"/>
      <use xlink:href="#ArialMT-6d" x="250.195312"/>
      <use xlink:href="#ArialMT-61" x="333.496094"/>
      <use xlink:href="#ArialMT-74" x="389.111328"/>
      <use xlink:href="#ArialMT-72" x="416.894531"/>
      <use xlink:href="#ArialMT-69" x="450.195312"/>
      <use xlink:href="#ArialMT-78" x="472.412109"/>
      <use xlink:href="#ArialMT-20" x="522.412109"/>
      <use xlink:href="#ArialMT-73" x="550.195312"/>
      <use xlink:href="#ArialMT-69" x="600.195312"/>
      <use xlink:href="#ArialMT-7a" x="622.412109"/>
      <use xlink:href="#ArialMT-65" x="672.412109"/>
     </g>
    </g>
   </g>
   <g id="matplotlib.axis_2">
    <g id="ytick_1">
     <g id="line2d_15">
      <path d="M 64.256875 280.993125 
L 372.145 280.993125 
" clip-path="url(#p34230573b8)" style="fill: none; stroke: #ffffff; stroke-linecap: round"/>
     </g>
     <g id="text_16">
      <!-- 0.000 -->
      <g style="fill: #262626" transform="translate(27.232812 284.929922)scale(0.11 -0.11)">
       <defs>
        <path id="ArialMT-2e" d="M 581 0 
L 581 641 
L 1222 641 
L 1222 0 
L 581 0 
z
" transform="scale(0.015625)"/>
       </defs>
       <use xlink:href="#ArialMT-30"/>
       <use xlink:href="#ArialMT-2e" x="55.615234"/>
       <use xlink:href="#ArialMT-30" x="83.398438"/>
       <use xlink:href="#ArialMT-30" x="139.013672"/>
       <use xlink:href="#ArialMT-30" x="194.628906"/>
      </g>
     </g>
    </g>
    <g id="ytick_2">
     <g id="line2d_16">
      <path d="M 64.256875 228.711599 
L 372.145 228.711599 
" clip-path="url(#p34230573b8)" style="fill: none; stroke: #ffffff; stroke-linecap: round"/>
     </g>
     <g id="text_17">
      <!-- 0.001 -->
      <g style="fill: #262626" transform="translate(27.232812 232.648396)scale(0.11 -0.11)">
       <use xlink:href="#ArialMT-30"/>
       <use xlink:href="#ArialMT-2e" x="55.615234"/>
       <use xlink:href="#ArialMT-30" x="83.398438"/>
       <use xlink:href="#ArialMT-30" x="139.013672"/>
       <use xlink:href="#ArialMT-31" x="194.628906"/>
      </g>
     </g>
    </g>
    <g id="ytick_3">
     <g id="line2d_17">
      <path d="M 64.256875 176.430073 
L 372.145 176.430073 
" clip-path="url(#p34230573b8)" style="fill: none; stroke: #ffffff; stroke-linecap: round"/>
     </g>
     <g id="text_18">
      <!-- 0.002 -->
      <g style="fill: #262626" transform="translate(27.232812 180.36687)scale(0.11 -0.11)">
       <use xlink:href="#ArialMT-30"/>
       <use xlink:href="#ArialMT-2e" x="55.615234"/>
       <use xlink:href="#ArialMT-30" x="83.398438"/>
       <use xlink:href="#ArialMT-30" x="139.013672"/>
       <use xlink:href="#ArialMT-32" x="194.628906"/>
      </g>
     </g>
    </g>
    <g id="ytick_4">
     <g id="line2d_18">
      <path d="M 64.256875 124.148547 
L 372.145 124.148547 
" clip-path="url(#p34230573b8)" style="fill: none; stroke: #ffffff; stroke-linecap: round"/>
     </g>
     <g id="text_19">
      <!-- 0.003 -->
      <g style="fill: #262626" transform="translate(27.232812 128.085343)scale(0.11 -0.11)">
       <use xlink:href="#ArialMT-30"/>
       <use xlink:href="#ArialMT-2e" x="55.615234"/>
       <use xlink:href="#ArialMT-30" x="83.398438"/>
       <use xlink:href="#ArialMT-30" x="139.013672"/>
       <use xlink:href="#ArialMT-33" x="194.628906"/>
      </g>
     </g>
    </g>
    <g id="ytick_5">
     <g id="line2d_19">
      <path d="M 64.256875 71.86702 
L 372.145 71.86702 
" clip-path="url(#p34230573b8)" style="fill: none; stroke: #ffffff; stroke-linecap: round"/>
     </g>
     <g id="text_20">
      <!-- 0.004 -->
      <g style="fill: #262626" transform="translate(27.232812 75.803817)scale(0.11 -0.11)">
       <use xlink:href="#ArialMT-30"/>
       <use xlink:href="#ArialMT-2e" x="55.615234"/>
       <use xlink:href="#ArialMT-30" x="83.398438"/>
       <use xlink:href="#ArialMT-30" x="139.013672"/>
       <use xlink:href="#ArialMT-34" x="194.628906"/>
      </g>
     </g>
    </g>
    <g id="text_21">
     <!-- Run time (s) -->
     <g style="fill: #262626" transform="translate(20.707187 186.646563)rotate(-90)scale(0.12 -0.12)">
      <defs>
       <path id="ArialMT-52" d="M 503 0 
L 503 4581 
L 2534 4581 
Q 3147 4581 3465 4457 
Q 3784 4334 3975 4021 
Q 4166 3709 4166 3331 
Q 4166 2844 3850 2509 
Q 3534 2175 2875 2084 
Q 3116 1969 3241 1856 
Q 3506 1613 3744 1247 
L 4541 0 
L 3778 0 
L 3172 953 
Q 2906 1366 2734 1584 
Q 2563 1803 2427 1890 
Q 2291 1978 2150 2013 
Q 2047 2034 1813 2034 
L 1109 2034 
L 1109 0 
L 503 0 
z
M 1109 2559 
L 2413 2559 
Q 2828 2559 3062 2645 
Q 3297 2731 3419 2920 
Q 3541 3109 3541 3331 
Q 3541 3656 3305 3865 
Q 3069 4075 2559 4075 
L 1109 4075 
L 1109 2559 
z
" transform="scale(0.015625)"/>
       <path id="ArialMT-28" d="M 1497 -1347 
Q 1031 -759 709 28 
Q 388 816 388 1659 
Q 388 2403 628 3084 
Q 909 3875 1497 4659 
L 1900 4659 
Q 1522 4009 1400 3731 
Q 1209 3300 1100 2831 
Q 966 2247 966 1656 
Q 966 153 1900 -1347 
L 1497 -1347 
z
" transform="scale(0.015625)"/>
       <path id="ArialMT-29" d="M 791 -1347 
L 388 -1347 
Q 1322 153 1322 1656 
Q 1322 2244 1188 2822 
Q 1081 3291 891 3722 
Q 769 4003 388 4659 
L 791 4659 
Q 1378 3875 1659 3084 
Q 1900 2403 1900 1659 
Q 1900 816 1576 28 
Q 1253 -759 791 -1347 
z
" transform="scale(0.015625)"/>
      </defs>
      <use xlink:href="#ArialMT-52"/>
      <use xlink:href="#ArialMT-75" x="72.216797"/>
      <use xlink:href="#ArialMT-6e" x="127.832031"/>
      <use xlink:href="#ArialMT-20" x="183.447266"/>
      <use xlink:href="#ArialMT-74" x="211.230469"/>
      <use xlink:href="#ArialMT-69" x="239.013672"/>
      <use xlink:href="#ArialMT-6d" x="261.230469"/>
      <use xlink:href="#ArialMT-65" x="344.53125"/>
      <use xlink:href="#ArialMT-20" x="400.146484"/>
      <use xlink:href="#ArialMT-28" x="427.929688"/>
      <use xlink:href="#ArialMT-73" x="461.230469"/>
      <use xlink:href="#ArialMT-29" x="511.230469"/>
     </g>
    </g>
   </g>
   <g id="PolyCollection_1">
    <defs>
     <path id="m57211cbc45" d="M 78.25179 -211.097455 
L 78.25179 -79.006875 
L 88.248157 -79.006875 
L 98.244525 -79.006875 
L 108.240893 -79.006875 
L 118.237261 -79.006875 
L 128.233628 -79.006875 
L 138.229996 -79.006875 
L 148.226364 -79.006875 
L 158.222731 -79.006875 
L 168.219099 -79.006875 
L 178.215467 -79.006875 
L 188.211834 -79.006875 
L 198.208202 -79.006875 
L 208.20457 -79.006875 
L 218.200938 -79.006875 
L 228.197305 -79.006875 
L 238.193673 -79.006875 
L 248.190041 -79.006875 
L 258.186408 -79.006875 
L 268.182776 -79.006875 
L 278.179144 -79.006875 
L 288.175511 -79.006875 
L 298.171879 -79.006875 
L 308.168247 -79.006875 
L 328.160982 -79.006875 
L 338.15735 -79.006875 
L 348.153718 -79.006875 
L 358.150085 -79.006875 
L 358.150085 -209.443111 
L 358.150085 -209.443111 
L 348.153718 -241.461661 
L 338.15735 -278.208176 
L 328.160982 -276.431919 
L 308.168247 -211.996091 
L 298.171879 -231.058129 
L 288.175511 -227.017988 
L 278.179144 -234.750669 
L 268.182776 -248.961632 
L 258.186408 -241.513791 
L 248.190041 -229.40036 
L 238.193673 -270.083104 
L 228.197305 -240.593043 
L 218.200938 -244.27912 
L 208.20457 -242.081022 
L 198.208202 -204.039418 
L 188.211834 -231.426073 
L 178.215467 -238.957102 
L 168.219099 -254.458043 
L 158.222731 -228.339882 
L 148.226364 -254.542091 
L 138.229996 -242.01142 
L 128.233628 -231.801023 
L 118.237261 -198.900481 
L 108.240893 -252.394235 
L 98.244525 -240.135951 
L 88.248157 -247.697033 
L 78.25179 -211.097455 
z
" style="stroke: #ffffff"/>
    </defs>
    <g clip-path="url(#p34230573b8)">
     <use xlink:href="#m57211cbc45" x="0" y="360" style="fill: #4c72b0; stroke: #ffffff"/>
    </g>
   </g>
   <g id="PolyCollection_2">
    <defs>
     <path id="mc0c1a02872" d="M 78.25179 -212.394887 
L 78.25179 -211.097455 
L 88.248157 -247.697033 
L 98.244525 -240.135951 
L 108.240893 -252.394235 
L 118.237261 -198.900481 
L 128.233628 -231.801023 
L 138.229996 -242.01142 
L 148.226364 -254.542091 
L 158.222731 -228.339882 
L 168.219099 -254.458043 
L 178.215467 -238.957102 
L 188.211834 -231.426073 
L 198.208202 -204.039418 
L 208.20457 -242.081022 
L 218.200938 -244.27912 
L 228.197305 -240.593043 
L 238.193673 -270.083104 
L 248.190041 -229.40036 
L 258.186408 -241.513791 
L 268.182776 -248.961632 
L 278.179144 -234.750669 
L 288.175511 -227.017988 
L 298.171879 -231.058129 
L 308.168247 -211.996091 
L 328.160982 -276.431919 
L 338.15735 -278.208176 
L 348.153718 -241.461661 
L 358.150085 -209.443111 
L 358.150085 -213.318152 
L 358.150085 -213.318152 
L 348.153718 -245.127043 
L 338.15735 -281.693945 
L 328.160982 -279.815948 
L 308.168247 -215.111194 
L 298.171879 -234.096357 
L 288.175511 -229.983472 
L 278.179144 -237.542724 
L 268.182776 -251.64553 
L 258.186408 -244.093863 
L 248.190041 -231.87446 
L 238.193673 -272.456978 
L 228.197305 -242.849686 
L 218.200938 -246.472184 
L 208.20457 -244.249746 
L 198.208202 -206.098594 
L 188.211834 -233.391804 
L 178.215467 -240.894992 
L 168.219099 -256.31925 
L 158.222731 -230.16308 
L 148.226364 -256.252745 
L 138.229996 -243.681903 
L 128.233628 -233.752123 
L 118.237261 -200.714151 
L 108.240893 -254.020133 
L 98.244525 -241.667358 
L 88.248157 -249.160422 
L 78.25179 -212.394887 
z
" style="stroke: #ffffff"/>
    </defs>
    <g clip-path="url(#p34230573b8)">
     <use xlink:href="#mc0c1a02872" x="0" y="360" style="fill: #dd8452; stroke: #ffffff"/>
    </g>
   </g>
   <g id="PolyCollection_3">
    <defs>
     <path id="mcf17695104" d="M 78.25179 -213.38483 
L 78.25179 -212.394887 
L 88.248157 -249.160422 
L 98.244525 -241.667358 
L 108.240893 -254.020133 
L 118.237261 -200.714151 
L 128.233628 -233.752123 
L 138.229996 -243.681903 
L 148.226364 -256.252745 
L 158.222731 -230.16308 
L 168.219099 -256.31925 
L 178.215467 -240.894992 
L 188.211834 -233.391804 
L 198.208202 -206.098594 
L 208.20457 -244.249746 
L 218.200938 -246.472184 
L 228.197305 -242.849686 
L 238.193673 -272.456978 
L 248.190041 -231.87446 
L 258.186408 -244.093863 
L 268.182776 -251.64553 
L 278.179144 -237.542724 
L 288.175511 -229.983472 
L 298.171879 -234.096357 
L 308.168247 -215.111194 
L 328.160982 -279.815948 
L 338.15735 -281.693945 
L 348.153718 -245.127043 
L 358.150085 -213.318152 
L 358.150085 -214.679299 
L 358.150085 -214.679299 
L 348.153718 -247.060453 
L 338.15735 -283.009691 
L 328.160982 -281.672632 
L 308.168247 -216.462528 
L 298.171879 -235.712662 
L 288.175511 -231.198115 
L 278.179144 -238.932362 
L 268.182776 -253.136021 
L 258.186408 -245.453803 
L 248.190041 -233.125492 
L 238.193673 -273.67187 
L 228.197305 -244.168145 
L 218.200938 -247.63406 
L 208.20457 -245.491087 
L 198.208202 -207.319009 
L 188.211834 -234.623572 
L 178.215467 -241.975821 
L 168.219099 -257.43872 
L 158.222731 -231.282126 
L 148.226364 -257.38663 
L 138.229996 -244.826048 
L 128.233628 -234.86935 
L 118.237261 -201.701906 
L 108.240893 -255.029726 
L 98.244525 -242.687888 
L 88.248157 -250.165835 
L 78.25179 -213.38483 
z
" style="stroke: #ffffff"/>
    </defs>
    <g clip-path="url(#p34230573b8)">
     <use xlink:href="#mcf17695104" x="0" y="360" style="fill: #55a868; stroke: #ffffff"/>
    </g>
   </g>
   <g id="PolyCollection_4">
    <defs>
     <path id="m4597ca374b" d="M 78.25179 -214.243044 
L 78.25179 -213.38483 
L 88.248157 -250.165835 
L 98.244525 -242.687888 
L 108.240893 -255.029726 
L 118.237261 -201.701906 
L 128.233628 -234.86935 
L 138.229996 -244.826048 
L 148.226364 -257.38663 
L 158.222731 -231.282126 
L 168.219099 -257.43872 
L 178.215467 -241.975821 
L 188.211834 -234.623572 
L 198.208202 -207.319009 
L 208.20457 -245.491087 
L 218.200938 -247.63406 
L 228.197305 -244.168145 
L 238.193673 -273.67187 
L 248.190041 -233.125492 
L 258.186408 -245.453803 
L 268.182776 -253.136021 
L 278.179144 -238.932362 
L 288.175511 -231.198115 
L 298.171879 -235.712662 
L 308.168247 -216.462528 
L 328.160982 -281.672632 
L 338.15735 -283.009691 
L 348.153718 -247.060453 
L 358.150085 -214.679299 
L 358.150085 -216.626938 
L 358.150085 -216.626938 
L 348.153718 -248.912443 
L 338.15735 -284.788021 
L 328.160982 -283.411953 
L 308.168247 -218.106709 
L 298.171879 -237.212511 
L 288.175511 -232.729331 
L 278.179144 -240.354751 
L 268.182776 -254.578288 
L 258.186408 -246.821678 
L 248.190041 -234.364666 
L 238.193673 -274.894223 
L 228.197305 -245.29804 
L 218.200938 -248.805391 
L 208.20457 -246.643921 
L 198.208202 -208.337142 
L 188.211834 -235.644074 
L 178.215467 -242.970171 
L 168.219099 -258.394502 
L 158.222731 -232.291181 
L 148.226364 -258.502466 
L 138.229996 -245.701635 
L 128.233628 -235.769066 
L 118.237261 -202.62738 
L 108.240893 -255.839138 
L 98.244525 -243.633266 
L 88.248157 -251.005348 
L 78.25179 -214.243044 
z
" style="stroke: #ffffff"/>
    </defs>
    <g clip-path="url(#p34230573b8)">
     <use xlink:href="#m4597ca374b" x="0" y="360" style="fill: #c44e52; stroke: #ffffff"/>
    </g>
   </g>
   <g id="PolyCollection_5">
    <defs>
     <path id="mfc8b979ae2" d="M 78.25179 -225.884867 
L 78.25179 -214.243044 
L 88.248157 -251.005348 
L 98.244525 -243.633266 
L 108.240893 -255.839138 
L 118.237261 -202.62738 
L 128.233628 -235.769066 
L 138.229996 -245.701635 
L 148.226364 -258.502466 
L 158.222731 -232.291181 
L 168.219099 -258.394502 
L 178.215467 -242.970171 
L 188.211834 -235.644074 
L 198.208202 -208.337142 
L 208.20457 -246.643921 
L 218.200938 -248.805391 
L 228.197305 -245.29804 
L 238.193673 -274.894223 
L 248.190041 -234.364666 
L 258.186408 -246.821678 
L 268.182776 -254.578288 
L 278.179144 -240.354751 
L 288.175511 -232.729331 
L 298.171879 -237.212511 
L 308.168247 -218.106709 
L 328.160982 -283.411953 
L 338.15735 -284.788021 
L 348.153718 -248.912443 
L 358.150085 -216.626938 
L 358.150085 -236.165579 
L 358.150085 -236.165579 
L 348.153718 -302.533902 
L 338.15735 -299.577952 
L 328.160982 -298.324055 
L 308.168247 -235.184004 
L 298.171879 -251.121259 
L 288.175511 -246.299302 
L 278.179144 -253.803785 
L 268.182776 -306.941478 
L 258.186408 -283.980496 
L 248.190041 -247.345171 
L 238.193673 -290.229929 
L 228.197305 -257.537532 
L 218.200938 -262.724257 
L 208.20457 -267.621784 
L 198.208202 -220.065896 
L 188.211834 -247.655673 
L 178.215467 -257.638624 
L 168.219099 -271.941673 
L 158.222731 -301.413418 
L 148.226364 -271.163609 
L 138.229996 -257.519749 
L 128.233628 -247.739956 
L 118.237261 -296.672981 
L 108.240893 -268.008633 
L 98.244525 -255.427081 
L 88.248157 -263.499846 
L 78.25179 -225.884867 
z
" style="stroke: #ffffff"/>
    </defs>
    <g clip-path="url(#p34230573b8)">
     <use xlink:href="#mfc8b979ae2" x="0" y="360" style="fill: #8172b3; stroke: #ffffff"/>
    </g>
   </g>
   <g id="patch_3">
    <path d="M 64.256875 280.993125 
L 64.256875 26.96 
" style="fill: none; stroke: #ffffff; stroke-width: 1.25; stroke-linejoin: miter; stroke-linecap: square"/>
   </g>
   <g id="patch_4">
    <path d="M 372.145 280.993125 
L 372.145 26.96 
" style="fill: none; stroke: #ffffff; stroke-width: 1.25; stroke-linejoin: miter; stroke-linecap: square"/>
   </g>
   <g id="patch_5">
    <path d="M 64.256875 280.993125 
L 372.145 280.993125 
" style="fill: none; stroke: #ffffff; stroke-width: 1.25; stroke-linejoin: miter; stroke-linecap: square"/>
   </g>
   <g id="patch_6">
    <path d="M 64.256875 26.96 
L 372.145 26.96 
" style="fill: none; stroke: #ffffff; stroke-width: 1.25; stroke-linejoin: miter; stroke-linecap: square"/>
   </g>
   <g id="text_22">
    <!-- Single -->
    <g style="fill: #262626" transform="translate(201.522813 20.96)scale(0.12 -0.12)">
     <defs>
      <path id="ArialMT-53" d="M 288 1472 
L 859 1522 
Q 900 1178 1048 958 
Q 1197 738 1509 602 
Q 1822 466 2213 466 
Q 2559 466 2825 569 
Q 3091 672 3220 851 
Q 3350 1031 3350 1244 
Q 3350 1459 3225 1620 
Q 3100 1781 2813 1891 
Q 2628 1963 1997 2114 
Q 1366 2266 1113 2400 
Q 784 2572 623 2826 
Q 463 3081 463 3397 
Q 463 3744 659 4045 
Q 856 4347 1234 4503 
Q 1613 4659 2075 4659 
Q 2584 4659 2973 4495 
Q 3363 4331 3572 4012 
Q 3781 3694 3797 3291 
L 3216 3247 
Q 3169 3681 2898 3903 
Q 2628 4125 2100 4125 
Q 1550 4125 1298 3923 
Q 1047 3722 1047 3438 
Q 1047 3191 1225 3031 
Q 1400 2872 2139 2705 
Q 2878 2538 3153 2413 
Q 3553 2228 3743 1945 
Q 3934 1663 3934 1294 
Q 3934 928 3725 604 
Q 3516 281 3123 101 
Q 2731 -78 2241 -78 
Q 1619 -78 1198 103 
Q 778 284 539 648 
Q 300 1013 288 1472 
z
" transform="scale(0.015625)"/>
      <path id="ArialMT-67" d="M 319 -275 
L 866 -356 
Q 900 -609 1056 -725 
Q 1266 -881 1628 -881 
Q 2019 -881 2231 -725 
Q 2444 -569 2519 -288 
Q 2563 -116 2559 434 
Q 2191 0 1641 0 
Q 956 0 581 494 
Q 206 988 206 1678 
Q 206 2153 378 2554 
Q 550 2956 876 3175 
Q 1203 3394 1644 3394 
Q 2231 3394 2613 2919 
L 2613 3319 
L 3131 3319 
L 3131 450 
Q 3131 -325 2973 -648 
Q 2816 -972 2473 -1159 
Q 2131 -1347 1631 -1347 
Q 1038 -1347 672 -1080 
Q 306 -813 319 -275 
z
M 784 1719 
Q 784 1066 1043 766 
Q 1303 466 1694 466 
Q 2081 466 2343 764 
Q 2606 1063 2606 1700 
Q 2606 2309 2336 2618 
Q 2066 2928 1684 2928 
Q 1309 2928 1046 2623 
Q 784 2319 784 1719 
z
" transform="scale(0.015625)"/>
      <path id="ArialMT-6c" d="M 409 0 
L 409 4581 
L 972 4581 
L 972 0 
L 409 0 
z
" transform="scale(0.015625)"/>
     </defs>
     <use xlink:href="#ArialMT-53"/>
     <use xlink:href="#ArialMT-69" x="66.699219"/>
     <use xlink:href="#ArialMT-6e" x="88.916016"/>
     <use xlink:href="#ArialMT-67" x="144.53125"/>
     <use xlink:href="#ArialMT-6c" x="200.146484"/>
     <use xlink:href="#ArialMT-65" x="222.363281"/>
    </g>
   </g>
   <g id="legend_1">
    <g id="patch_7">
     <path d="M 288.706563 275.493125 
L 364.445 275.493125 
Q 366.645 275.493125 366.645 273.293125 
L 366.645 196.593906 
Q 366.645 194.393906 364.445 194.393906 
L 288.706563 194.393906 
Q 286.506563 194.393906 286.506563 196.593906 
L 286.506563 273.293125 
Q 286.506563 275.493125 288.706563 275.493125 
z
" style="fill: #eaeaf2; opacity: 0.8; stroke: #cccccc; stroke-linejoin: miter"/>
    </g>
    <g id="patch_8">
     <path d="M 290.906563 206.6675 
L 312.906563 206.6675 
L 312.906563 198.9675 
L 290.906563 198.9675 
z
" style="fill: #4c72b0; stroke: #ffffff; stroke-linejoin: miter"/>
    </g>
    <g id="text_23">
     <!-- Prepare -->
     <g style="fill: #262626" transform="translate(321.706563 206.6675)scale(0.11 -0.11)">
      <defs>
       <path id="ArialMT-50" d="M 494 0 
L 494 4581 
L 2222 4581 
Q 2678 4581 2919 4538 
Q 3256 4481 3484 4323 
Q 3713 4166 3852 3881 
Q 3991 3597 3991 3256 
Q 3991 2672 3619 2267 
Q 3247 1863 2275 1863 
L 1100 1863 
L 1100 0 
L 494 0 
z
M 1100 2403 
L 2284 2403 
Q 2872 2403 3119 2622 
Q 3366 2841 3366 3238 
Q 3366 3525 3220 3729 
Q 3075 3934 2838 4000 
Q 2684 4041 2272 4041 
L 1100 4041 
L 1100 2403 
z
" transform="scale(0.015625)"/>
      </defs>
      <use xlink:href="#ArialMT-50"/>
      <use xlink:href="#ArialMT-72" x="66.699219"/>
      <use xlink:href="#ArialMT-65" x="100"/>
      <use xlink:href="#ArialMT-70" x="155.615234"/>
      <use xlink:href="#ArialMT-61" x="211.230469"/>
      <use xlink:href="#ArialMT-72" x="266.845703"/>
      <use xlink:href="#ArialMT-65" x="300.146484"/>
     </g>
    </g>
    <g id="patch_9">
     <path d="M 290.906563 222.227344 
L 312.906563 222.227344 
L 312.906563 214.527344 
L 290.906563 214.527344 
z
" style="fill: #dd8452; stroke: #ffffff; stroke-linejoin: miter"/>
    </g>
    <g id="text_24">
     <!-- Transfer -->
     <g style="fill: #262626" transform="translate(321.706563 222.227344)scale(0.11 -0.11)">
      <defs>
       <path id="ArialMT-54" d="M 1659 0 
L 1659 4041 
L 150 4041 
L 150 4581 
L 3781 4581 
L 3781 4041 
L 2266 4041 
L 2266 0 
L 1659 0 
z
" transform="scale(0.015625)"/>
       <path id="ArialMT-66" d="M 556 0 
L 556 2881 
L 59 2881 
L 59 3319 
L 556 3319 
L 556 3672 
Q 556 4006 616 4169 
Q 697 4388 901 4523 
Q 1106 4659 1475 4659 
Q 1713 4659 2000 4603 
L 1916 4113 
Q 1741 4144 1584 4144 
Q 1328 4144 1222 4034 
Q 1116 3925 1116 3625 
L 1116 3319 
L 1763 3319 
L 1763 2881 
L 1116 2881 
L 1116 0 
L 556 0 
z
" transform="scale(0.015625)"/>
      </defs>
      <use xlink:href="#ArialMT-54"/>
      <use xlink:href="#ArialMT-72" x="57.333984"/>
      <use xlink:href="#ArialMT-61" x="90.634766"/>
      <use xlink:href="#ArialMT-6e" x="146.25"/>
      <use xlink:href="#ArialMT-73" x="201.865234"/>
      <use xlink:href="#ArialMT-66" x="251.865234"/>
      <use xlink:href="#ArialMT-65" x="279.648438"/>
      <use xlink:href="#ArialMT-72" x="335.263672"/>
     </g>
    </g>
    <g id="patch_10">
     <path d="M 290.906563 237.787187 
L 312.906563 237.787187 
L 312.906563 230.087187 
L 290.906563 230.087187 
z
" style="fill: #55a868; stroke: #ffffff; stroke-linejoin: miter"/>
    </g>
    <g id="text_25">
     <!-- Run -->
     <g style="fill: #262626" transform="translate(321.706563 237.787187)scale(0.11 -0.11)">
      <use xlink:href="#ArialMT-52"/>
      <use xlink:href="#ArialMT-75" x="72.216797"/>
      <use xlink:href="#ArialMT-6e" x="127.832031"/>
     </g>
    </g>
    <g id="patch_11">
     <path d="M 290.906563 253.347031 
L 312.906563 253.347031 
L 312.906563 245.647031 
L 290.906563 245.647031 
z
" style="fill: #c44e52; stroke: #ffffff; stroke-linejoin: miter"/>
    </g>
    <g id="text_26">
     <!-- Finalize -->
     <g style="fill: #262626" transform="translate(321.706563 253.347031)scale(0.11 -0.11)">
      <defs>
       <path id="ArialMT-46" d="M 525 0 
L 525 4581 
L 3616 4581 
L 3616 4041 
L 1131 4041 
L 1131 2622 
L 3281 2622 
L 3281 2081 
L 1131 2081 
L 1131 0 
L 525 0 
z
" transform="scale(0.015625)"/>
      </defs>
      <use xlink:href="#ArialMT-46"/>
      <use xlink:href="#ArialMT-69" x="61.083984"/>
      <use xlink:href="#ArialMT-6e" x="83.300781"/>
      <use xlink:href="#ArialMT-61" x="138.916016"/>
      <use xlink:href="#ArialMT-6c" x="194.53125"/>
      <use xlink:href="#ArialMT-69" x="216.748047"/>
      <use xlink:href="#ArialMT-7a" x="238.964844"/>
      <use xlink:href="#ArialMT-65" x="288.964844"/>
     </g>
    </g>
    <g id="patch_12">
     <path d="M 290.906563 268.906875 
L 312.906563 268.906875 
L 312.906563 261.206875 
L 290.906563 261.206875 
z
" style="fill: #8172b3; stroke: #ffffff; stroke-linejoin: miter"/>
    </g>
    <g id="text_27">
     <!-- Free -->
     <g style="fill: #262626" transform="translate(321.706563 268.906875)scale(0.11 -0.11)">
      <use xlink:href="#ArialMT-46"/>
      <use xlink:href="#ArialMT-72" x="61.083984"/>
      <use xlink:href="#ArialMT-65" x="94.384766"/>
      <use xlink:href="#ArialMT-65" x="150"/>
     </g>
    </g>
   </g>
  </g>
  <g id="axes_2">
   <g id="patch_13">
    <path d="M 399.151875 280.993125 
L 707.04 280.993125 
L 707.04 26.96 
L 399.151875 26.96 
z
" style="fill: #eaeaf2"/>
   </g>
   <g id="matplotlib.axis_3">
    <g id="xtick_15">
     <g id="line2d_20">
      <path d="M 413.14679 280.993125 
L 413.14679 26.96 
" clip-path="url(#p92ef310b48)" style="fill: none; stroke: #ffffff; stroke-linecap: round"/>
     </g>
     <g id="text_28">
      <!-- 16x16 -->
      <g style="fill: #262626" transform="translate(415.990462 320.46125)rotate(-90)scale(0.11 -0.11)">
       <use xlink:href="#ArialMT-31"/>
       <use xlink:href="#ArialMT-36" x="55.615234"/>
       <use xlink:href="#ArialMT-78" x="111.230469"/>
       <use xlink:href="#ArialMT-31" x="161.230469"/>
       <use xlink:href="#ArialMT-36" x="216.845703"/>
      </g>
     </g>
    </g>
    <g id="xtick_16">
     <g id="line2d_21">
      <path d="M 433.139525 280.993125 
L 433.139525 26.96 
" clip-path="url(#p92ef310b48)" style="fill: none; stroke: #ffffff; stroke-linecap: round"/>
     </g>
     <g id="text_29">
      <!-- 24x24 -->
      <g style="fill: #262626" transform="translate(435.983197 320.46125)rotate(-90)scale(0.11 -0.11)">
       <use xlink:href="#ArialMT-32"/>
       <use xlink:href="#ArialMT-34" x="55.615234"/>
       <use xlink:href="#ArialMT-78" x="111.230469"/>
       <use xlink:href="#ArialMT-32" x="161.230469"/>
       <use xlink:href="#ArialMT-34" x="216.845703"/>
      </g>
     </g>
    </g>
    <g id="xtick_17">
     <g id="line2d_22">
      <path d="M 453.132261 280.993125 
L 453.132261 26.96 
" clip-path="url(#p92ef310b48)" style="fill: none; stroke: #ffffff; stroke-linecap: round"/>
     </g>
     <g id="text_30">
      <!-- 32x32 -->
      <g style="fill: #262626" transform="translate(455.975932 320.46125)rotate(-90)scale(0.11 -0.11)">
       <use xlink:href="#ArialMT-33"/>
       <use xlink:href="#ArialMT-32" x="55.615234"/>
       <use xlink:href="#ArialMT-78" x="111.230469"/>
       <use xlink:href="#ArialMT-33" x="161.230469"/>
       <use xlink:href="#ArialMT-32" x="216.845703"/>
      </g>
     </g>
    </g>
    <g id="xtick_18">
     <g id="line2d_23">
      <path d="M 473.124996 280.993125 
L 473.124996 26.96 
" clip-path="url(#p92ef310b48)" style="fill: none; stroke: #ffffff; stroke-linecap: round"/>
     </g>
     <g id="text_31">
      <!-- 40x40 -->
      <g style="fill: #262626" transform="translate(475.968668 320.46125)rotate(-90)scale(0.11 -0.11)">
       <use xlink:href="#ArialMT-34"/>
       <use xlink:href="#ArialMT-30" x="55.615234"/>
       <use xlink:href="#ArialMT-78" x="111.230469"/>
       <use xlink:href="#ArialMT-34" x="161.230469"/>
       <use xlink:href="#ArialMT-30" x="216.845703"/>
      </g>
     </g>
    </g>
    <g id="xtick_19">
     <g id="line2d_24">
      <path d="M 493.117731 280.993125 
L 493.117731 26.96 
" clip-path="url(#p92ef310b48)" style="fill: none; stroke: #ffffff; stroke-linecap: round"/>
     </g>
     <g id="text_32">
      <!-- 48x48 -->
      <g style="fill: #262626" transform="translate(495.961403 320.46125)rotate(-90)scale(0.11 -0.11)">
       <use xlink:href="#ArialMT-34"/>
       <use xlink:href="#ArialMT-38" x="55.615234"/>
       <use xlink:href="#ArialMT-78" x="111.230469"/>
       <use xlink:href="#ArialMT-34" x="161.230469"/>
       <use xlink:href="#ArialMT-38" x="216.845703"/>
      </g>
     </g>
    </g>
    <g id="xtick_20">
     <g id="line2d_25">
      <path d="M 513.110467 280.993125 
L 513.110467 26.96 
" clip-path="url(#p92ef310b48)" style="fill: none; stroke: #ffffff; stroke-linecap: round"/>
     </g>
     <g id="text_33">
      <!-- 56x56 -->
      <g style="fill: #262626" transform="translate(515.954139 320.46125)rotate(-90)scale(0.11 -0.11)">
       <use xlink:href="#ArialMT-35"/>
       <use xlink:href="#ArialMT-36" x="55.615234"/>
       <use xlink:href="#ArialMT-78" x="111.230469"/>
       <use xlink:href="#ArialMT-35" x="161.230469"/>
       <use xlink:href="#ArialMT-36" x="216.845703"/>
      </g>
     </g>
    </g>
    <g id="xtick_21">
     <g id="line2d_26">
      <path d="M 533.103202 280.993125 
L 533.103202 26.96 
" clip-path="url(#p92ef310b48)" style="fill: none; stroke: #ffffff; stroke-linecap: round"/>
     </g>
     <g id="text_34">
      <!-- 64x64 -->
      <g style="fill: #262626" transform="translate(535.946874 320.46125)rotate(-90)scale(0.11 -0.11)">
       <use xlink:href="#ArialMT-36"/>
       <use xlink:href="#ArialMT-34" x="55.615234"/>
       <use xlink:href="#ArialMT-78" x="111.230469"/>
       <use xlink:href="#ArialMT-36" x="161.230469"/>
       <use xlink:href="#ArialMT-34" x="216.845703"/>
      </g>
     </g>
    </g>
    <g id="xtick_22">
     <g id="line2d_27">
      <path d="M 553.095937 280.993125 
L 553.095937 26.96 
" clip-path="url(#p92ef310b48)" style="fill: none; stroke: #ffffff; stroke-linecap: round"/>
     </g>
     <g id="text_35">
      <!-- 72x72 -->
      <g style="fill: #262626" transform="translate(555.939609 320.46125)rotate(-90)scale(0.11 -0.11)">
       <use xlink:href="#ArialMT-37"/>
       <use xlink:href="#ArialMT-32" x="55.615234"/>
       <use xlink:href="#ArialMT-78" x="111.230469"/>
       <use xlink:href="#ArialMT-37" x="161.230469"/>
       <use xlink:href="#ArialMT-32" x="216.845703"/>
      </g>
     </g>
    </g>
    <g id="xtick_23">
     <g id="line2d_28">
      <path d="M 573.088673 280.993125 
L 573.088673 26.96 
" clip-path="url(#p92ef310b48)" style="fill: none; stroke: #ffffff; stroke-linecap: round"/>
     </g>
     <g id="text_36">
      <!-- 80x80 -->
      <g style="fill: #262626" transform="translate(575.932345 320.46125)rotate(-90)scale(0.11 -0.11)">
       <use xlink:href="#ArialMT-38"/>
       <use xlink:href="#ArialMT-30" x="55.615234"/>
       <use xlink:href="#ArialMT-78" x="111.230469"/>
       <use xlink:href="#ArialMT-38" x="161.230469"/>
       <use xlink:href="#ArialMT-30" x="216.845703"/>
      </g>
     </g>
    </g>
    <g id="xtick_24">
     <g id="line2d_29">
      <path d="M 593.081408 280.993125 
L 593.081408 26.96 
" clip-path="url(#p92ef310b48)" style="fill: none; stroke: #ffffff; stroke-linecap: round"/>
     </g>
     <g id="text_37">
      <!-- 88x88 -->
      <g style="fill: #262626" transform="translate(595.92508 320.46125)rotate(-90)scale(0.11 -0.11)">
       <use xlink:href="#ArialMT-38"/>
       <use xlink:href="#ArialMT-38" x="55.615234"/>
       <use xlink:href="#ArialMT-78" x="111.230469"/>
       <use xlink:href="#ArialMT-38" x="161.230469"/>
       <use xlink:href="#ArialMT-38" x="216.845703"/>
      </g>
     </g>
    </g>
    <g id="xtick_25">
     <g id="line2d_30">
      <path d="M 613.074144 280.993125 
L 613.074144 26.96 
" clip-path="url(#p92ef310b48)" style="fill: none; stroke: #ffffff; stroke-linecap: round"/>
     </g>
     <g id="text_38">
      <!-- 96x96 -->
      <g style="fill: #262626" transform="translate(615.917816 320.46125)rotate(-90)scale(0.11 -0.11)">
       <use xlink:href="#ArialMT-39"/>
       <use xlink:href="#ArialMT-36" x="55.615234"/>
       <use xlink:href="#ArialMT-78" x="111.230469"/>
       <use xlink:href="#ArialMT-39" x="161.230469"/>
       <use xlink:href="#ArialMT-36" x="216.845703"/>
      </g>
     </g>
    </g>
    <g id="xtick_26">
     <g id="line2d_31">
      <path d="M 633.066879 280.993125 
L 633.066879 26.96 
" clip-path="url(#p92ef310b48)" style="fill: none; stroke: #ffffff; stroke-linecap: round"/>
     </g>
     <g id="text_39">
      <!-- 104x104 -->
      <g style="fill: #262626" transform="translate(635.910551 332.695312)rotate(-90)scale(0.11 -0.11)">
       <use xlink:href="#ArialMT-31"/>
       <use xlink:href="#ArialMT-30" x="55.615234"/>
       <use xlink:href="#ArialMT-34" x="111.230469"/>
       <use xlink:href="#ArialMT-78" x="166.845703"/>
       <use xlink:href="#ArialMT-31" x="216.845703"/>
       <use xlink:href="#ArialMT-30" x="272.460938"/>
       <use xlink:href="#ArialMT-34" x="328.076172"/>
      </g>
     </g>
    </g>
    <g id="xtick_27">
     <g id="line2d_32">
      <path d="M 663.055982 280.993125 
L 663.055982 26.96 
" clip-path="url(#p92ef310b48)" style="fill: none; stroke: #ffffff; stroke-linecap: round"/>
     </g>
     <g id="text_40">
      <!-- 116x116 -->
      <g style="fill: #262626" transform="translate(665.899654 331.072812)rotate(-90)scale(0.11 -0.11)">
       <use xlink:href="#ArialMT-31"/>
       <use xlink:href="#ArialMT-31" x="48.240234"/>
       <use xlink:href="#ArialMT-36" x="103.855469"/>
       <use xlink:href="#ArialMT-78" x="159.470703"/>
       <use xlink:href="#ArialMT-31" x="209.470703"/>
       <use xlink:href="#ArialMT-31" x="257.710938"/>
       <use xlink:href="#ArialMT-36" x="313.326172"/>
      </g>
     </g>
    </g>
    <g id="xtick_28">
     <g id="line2d_33">
      <path d="M 683.048718 280.993125 
L 683.048718 26.96 
" clip-path="url(#p92ef310b48)" style="fill: none; stroke: #ffffff; stroke-linecap: round"/>
     </g>
     <g id="text_41">
      <!-- 124x124 -->
      <g style="fill: #262626" transform="translate(685.892389 332.695312)rotate(-90)scale(0.11 -0.11)">
       <use xlink:href="#ArialMT-31"/>
       <use xlink:href="#ArialMT-32" x="55.615234"/>
       <use xlink:href="#ArialMT-34" x="111.230469"/>
       <use xlink:href="#ArialMT-78" x="166.845703"/>
       <use xlink:href="#ArialMT-31" x="216.845703"/>
       <use xlink:href="#ArialMT-32" x="272.460938"/>
       <use xlink:href="#ArialMT-34" x="328.076172"/>
      </g>
     </g>
    </g>
    <g id="text_42">
     <!-- Input matrix size -->
     <g style="fill: #262626" transform="translate(509.416875 345.284688)scale(0.12 -0.12)">
      <use xlink:href="#ArialMT-49"/>
      <use xlink:href="#ArialMT-6e" x="27.783203"/>
      <use xlink:href="#ArialMT-70" x="83.398438"/>
      <use xlink:href="#ArialMT-75" x="139.013672"/>
      <use xlink:href="#ArialMT-74" x="194.628906"/>
      <use xlink:href="#ArialMT-20" x="222.412109"/>
      <use xlink:href="#ArialMT-6d" x="250.195312"/>
      <use xlink:href="#ArialMT-61" x="333.496094"/>
      <use xlink:href="#ArialMT-74" x="389.111328"/>
      <use xlink:href="#ArialMT-72" x="416.894531"/>
      <use xlink:href="#ArialMT-69" x="450.195312"/>
      <use xlink:href="#ArialMT-78" x="472.412109"/>
      <use xlink:href="#ArialMT-20" x="522.412109"/>
      <use xlink:href="#ArialMT-73" x="550.195312"/>
      <use xlink:href="#ArialMT-69" x="600.195312"/>
      <use xlink:href="#ArialMT-7a" x="622.412109"/>
      <use xlink:href="#ArialMT-65" x="672.412109"/>
     </g>
    </g>
   </g>
   <g id="matplotlib.axis_4">
    <g id="ytick_6">
     <g id="line2d_34">
      <path d="M 399.151875 280.993125 
L 707.04 280.993125 
" clip-path="url(#p92ef310b48)" style="fill: none; stroke: #ffffff; stroke-linecap: round"/>
     </g>
    </g>
    <g id="ytick_7">
     <g id="line2d_35">
      <path d="M 399.151875 228.711599 
L 707.04 228.711599 
" clip-path="url(#p92ef310b48)" style="fill: none; stroke: #ffffff; stroke-linecap: round"/>
     </g>
    </g>
    <g id="ytick_8">
     <g id="line2d_36">
      <path d="M 399.151875 176.430073 
L 707.04 176.430073 
" clip-path="url(#p92ef310b48)" style="fill: none; stroke: #ffffff; stroke-linecap: round"/>
     </g>
    </g>
    <g id="ytick_9">
     <g id="line2d_37">
      <path d="M 399.151875 124.148547 
L 707.04 124.148547 
" clip-path="url(#p92ef310b48)" style="fill: none; stroke: #ffffff; stroke-linecap: round"/>
     </g>
    </g>
    <g id="ytick_10">
     <g id="line2d_38">
      <path d="M 399.151875 71.86702 
L 707.04 71.86702 
" clip-path="url(#p92ef310b48)" style="fill: none; stroke: #ffffff; stroke-linecap: round"/>
     </g>
    </g>
    <g id="text_43">
     <!-- Run time (s) -->
     <g style="fill: #262626" transform="translate(392.62625 186.646563)rotate(-90)scale(0.12 -0.12)">
      <use xlink:href="#ArialMT-52"/>
      <use xlink:href="#ArialMT-75" x="72.216797"/>
      <use xlink:href="#ArialMT-6e" x="127.832031"/>
      <use xlink:href="#ArialMT-20" x="183.447266"/>
      <use xlink:href="#ArialMT-74" x="211.230469"/>
      <use xlink:href="#ArialMT-69" x="239.013672"/>
      <use xlink:href="#ArialMT-6d" x="261.230469"/>
      <use xlink:href="#ArialMT-65" x="344.53125"/>
      <use xlink:href="#ArialMT-20" x="400.146484"/>
      <use xlink:href="#ArialMT-28" x="427.929688"/>
      <use xlink:href="#ArialMT-73" x="461.230469"/>
      <use xlink:href="#ArialMT-29" x="511.230469"/>
     </g>
    </g>
   </g>
   <g id="PolyCollection_6">
    <defs>
     <path id="m103590fbff" d="M 413.14679 -201.907531 
L 413.14679 -79.006875 
L 423.143157 -79.006875 
L 433.139525 -79.006875 
L 443.135893 -79.006875 
L 453.132261 -79.006875 
L 463.128628 -79.006875 
L 473.124996 -79.006875 
L 483.121364 -79.006875 
L 493.117731 -79.006875 
L 503.114099 -79.006875 
L 513.110467 -79.006875 
L 523.106834 -79.006875 
L 533.103202 -79.006875 
L 543.09957 -79.006875 
L 553.095937 -79.006875 
L 563.092305 -79.006875 
L 573.088673 -79.006875 
L 583.085041 -79.006875 
L 593.081408 -79.006875 
L 603.077776 -79.006875 
L 613.074144 -79.006875 
L 623.070511 -79.006875 
L 633.066879 -79.006875 
L 643.063247 -79.006875 
L 663.055982 -79.006875 
L 673.05235 -79.006875 
L 683.048718 -79.006875 
L 693.045085 -79.006875 
L 693.045085 -213.406273 
L 693.045085 -213.406273 
L 683.048718 -218.265906 
L 673.05235 -235.676109 
L 663.055982 -210.959842 
L 643.063247 -201.010247 
L 633.066879 -200.406727 
L 623.070511 -254.148268 
L 613.074144 -239.690956 
L 603.077776 -196.027311 
L 593.081408 -262.698626 
L 583.085041 -223.886732 
L 573.088673 -244.017467 
L 563.092305 -203.135489 
L 553.095937 -236.372261 
L 543.09957 -193.702524 
L 533.103202 -189.231021 
L 523.106834 -270.090492 
L 513.110467 -257.788575 
L 503.114099 -192.098722 
L 493.117731 -270.98003 
L 483.121364 -247.83182 
L 473.124996 -247.084756 
L 463.128628 -239.743863 
L 453.132261 -228.718609 
L 443.135893 -268.846058 
L 433.139525 -237.697582 
L 423.143157 -256.585695 
L 413.14679 -201.907531 
z
" style="stroke: #ffffff"/>
    </defs>
    <g clip-path="url(#p92ef310b48)">
     <use xlink:href="#m103590fbff" x="0" y="360" style="fill: #4c72b0; stroke: #ffffff"/>
    </g>
   </g>
   <g id="PolyCollection_7">
    <defs>
     <path id="maa630d7e72" d="M 413.14679 -203.33443 
L 413.14679 -201.907531 
L 423.143157 -256.585695 
L 433.139525 -237.697582 
L 443.135893 -268.846058 
L 453.132261 -228.718609 
L 463.128628 -239.743863 
L 473.124996 -247.084756 
L 483.121364 -247.83182 
L 493.117731 -270.98003 
L 503.114099 -192.098722 
L 513.110467 -257.788575 
L 523.106834 -270.090492 
L 533.103202 -189.231021 
L 543.09957 -193.702524 
L 553.095937 -236.372261 
L 563.092305 -203.135489 
L 573.088673 -244.017467 
L 583.085041 -223.886732 
L 593.081408 -262.698626 
L 603.077776 -196.027311 
L 613.074144 -239.690956 
L 623.070511 -254.148268 
L 633.066879 -200.406727 
L 643.063247 -201.010247 
L 663.055982 -210.959842 
L 673.05235 -235.676109 
L 683.048718 -218.265906 
L 693.045085 -213.406273 
L 693.045085 -219.427087 
L 693.045085 -219.427087 
L 683.048718 -224.131472 
L 673.05235 -241.168845 
L 663.055982 -216.235067 
L 643.063247 -210.705827 
L 633.066879 -204.936349 
L 623.070511 -258.423762 
L 613.074144 -243.813284 
L 603.077776 -199.837656 
L 593.081408 -266.366416 
L 583.085041 -227.285606 
L 573.088673 -247.344724 
L 563.092305 -206.310135 
L 553.095937 -239.285427 
L 543.09957 -196.43319 
L 533.103202 -191.776234 
L 523.106834 -272.527111 
L 513.110467 -260.118002 
L 503.114099 -194.357436 
L 493.117731 -273.052948 
L 483.121364 -249.847257 
L 473.124996 -248.95937 
L 463.128628 -241.559033 
L 453.132261 -230.427867 
L 443.135893 -270.446529 
L 433.139525 -239.516072 
L 423.143157 -258.231405 
L 413.14679 -203.33443 
z
" style="stroke: #ffffff"/>
    </defs>
    <g clip-path="url(#p92ef310b48)">
     <use xlink:href="#maa630d7e72" x="0" y="360" style="fill: #dd8452; stroke: #ffffff"/>
    </g>
   </g>
   <g id="PolyCollection_8">
    <defs>
     <path id="me16da091a6" d="M 413.14679 -204.414255 
L 413.14679 -203.33443 
L 423.143157 -258.231405 
L 433.139525 -239.516072 
L 443.135893 -270.446529 
L 453.132261 -230.427867 
L 463.128628 -241.559033 
L 473.124996 -248.95937 
L 483.121364 -249.847257 
L 493.117731 -273.052948 
L 503.114099 -194.357436 
L 513.110467 -260.118002 
L 523.106834 -272.527111 
L 533.103202 -191.776234 
L 543.09957 -196.43319 
L 553.095937 -239.285427 
L 563.092305 -206.310135 
L 573.088673 -247.344724 
L 583.085041 -227.285606 
L 593.081408 -266.366416 
L 603.077776 -199.837656 
L 613.074144 -243.813284 
L 623.070511 -258.423762 
L 633.066879 -204.936349 
L 643.063247 -210.705827 
L 663.055982 -216.235067 
L 673.05235 -241.168845 
L 683.048718 -224.131472 
L 693.045085 -219.427087 
L 693.045085 -220.901358 
L 693.045085 -220.901358 
L 683.048718 -226.766623 
L 673.05235 -242.821762 
L 663.055982 -218.755055 
L 643.063247 -212.450036 
L 633.066879 -207.432175 
L 623.070511 -259.877873 
L 613.074144 -245.534439 
L 603.077776 -202.178426 
L 593.081408 -268.075543 
L 583.085041 -228.785409 
L 573.088673 -248.730236 
L 563.092305 -208.520188 
L 553.095937 -240.664608 
L 543.09957 -198.710903 
L 533.103202 -193.092257 
L 523.106834 -273.987891 
L 513.110467 -261.31212 
L 503.114099 -196.498364 
L 493.117731 -274.356779 
L 483.121364 -251.138185 
L 473.124996 -250.32985 
L 463.128628 -242.898906 
L 453.132261 -231.613848 
L 443.135893 -271.549447 
L 433.139525 -240.622545 
L 423.143157 -259.344309 
L 413.14679 -204.414255 
z
" style="stroke: #ffffff"/>
    </defs>
    <g clip-path="url(#p92ef310b48)">
     <use xlink:href="#me16da091a6" x="0" y="360" style="fill: #55a868; stroke: #ffffff"/>
    </g>
   </g>
   <g id="PolyCollection_9">
    <defs>
     <path id="m000f0b248f" d="M 413.14679 -205.131953 
L 413.14679 -204.414255 
L 423.143157 -259.344309 
L 433.139525 -240.622545 
L 443.135893 -271.549447 
L 453.132261 -231.613848 
L 463.128628 -242.898906 
L 473.124996 -250.32985 
L 483.121364 -251.138185 
L 493.117731 -274.356779 
L 503.114099 -196.498364 
L 513.110467 -261.31212 
L 523.106834 -273.987891 
L 533.103202 -193.092257 
L 543.09957 -198.710903 
L 553.095937 -240.664608 
L 563.092305 -208.520188 
L 573.088673 -248.730236 
L 583.085041 -228.785409 
L 593.081408 -268.075543 
L 603.077776 -202.178426 
L 613.074144 -245.534439 
L 623.070511 -259.877873 
L 633.066879 -207.432175 
L 643.063247 -212.450036 
L 663.055982 -218.755055 
L 673.05235 -242.821762 
L 683.048718 -226.766623 
L 693.045085 -220.901358 
L 693.045085 -223.738935 
L 693.045085 -223.738935 
L 683.048718 -229.552243 
L 673.05235 -245.469558 
L 663.055982 -221.226282 
L 643.063247 -214.727168 
L 633.066879 -209.590971 
L 623.070511 -261.927343 
L 613.074144 -247.550313 
L 603.077776 -203.997935 
L 593.081408 -269.949028 
L 583.085041 -230.455898 
L 573.088673 -250.433921 
L 563.092305 -210.016263 
L 553.095937 -242.09799 
L 543.09957 -200.082313 
L 533.103202 -194.467996 
L 523.106834 -275.371848 
L 513.110467 -262.605162 
L 503.114099 -197.739625 
L 493.117731 -275.467798 
L 483.121364 -252.272874 
L 473.124996 -251.362901 
L 463.128628 -243.941724 
L 453.132261 -232.602523 
L 443.135893 -272.424901 
L 433.139525 -241.499327 
L 423.143157 -260.254164 
L 413.14679 -205.131953 
z
" style="stroke: #ffffff"/>
    </defs>
    <g clip-path="url(#p92ef310b48)">
     <use xlink:href="#m000f0b248f" x="0" y="360" style="fill: #c44e52; stroke: #ffffff"/>
    </g>
   </g>
   <g id="PolyCollection_10">
    <defs>
     <path id="m19e00a137a" d="M 413.14679 -209.121276 
L 413.14679 -205.131953 
L 423.143157 -260.254164 
L 433.139525 -241.499327 
L 443.135893 -272.424901 
L 453.132261 -232.602523 
L 463.128628 -243.941724 
L 473.124996 -251.362901 
L 483.121364 -252.272874 
L 493.117731 -275.467798 
L 503.114099 -197.739625 
L 513.110467 -262.605162 
L 523.106834 -275.371848 
L 533.103202 -194.467996 
L 543.09957 -200.082313 
L 553.095937 -242.09799 
L 563.092305 -210.016263 
L 573.088673 -250.433921 
L 583.085041 -230.455898 
L 593.081408 -269.949028 
L 603.077776 -203.997935 
L 613.074144 -247.550313 
L 623.070511 -261.927343 
L 633.066879 -209.590971 
L 643.063247 -214.727168 
L 663.055982 -221.226282 
L 673.05235 -245.469558 
L 683.048718 -229.552243 
L 693.045085 -223.738935 
L 693.045085 -239.911156 
L 693.045085 -239.911156 
L 683.048718 -291.707136 
L 673.05235 -263.455916 
L 663.055982 -238.853192 
L 643.063247 -227.34927 
L 633.066879 -222.466332 
L 623.070511 -274.666738 
L 613.074144 -259.925698 
L 603.077776 -216.748479 
L 593.081408 -284.625875 
L 583.085041 -242.471646 
L 573.088673 -320.943185 
L 563.092305 -222.288713 
L 553.095937 -246.591315 
L 543.09957 -204.773069 
L 533.103202 -198.911735 
L 523.106834 -281.083854 
L 513.110467 -267.826594 
L 503.114099 -202.964222 
L 493.117731 -280.459913 
L 483.121364 -256.898234 
L 473.124996 -256.318583 
L 463.128628 -248.651168 
L 453.132261 -237.435712 
L 443.135893 -276.674741 
L 433.139525 -245.298796 
L 423.143157 -265.12263 
L 413.14679 -209.121276 
z
" style="stroke: #ffffff"/>
    </defs>
    <g clip-path="url(#p92ef310b48)">
     <use xlink:href="#m19e00a137a" x="0" y="360" style="fill: #8172b3; stroke: #ffffff"/>
    </g>
   </g>
   <g id="patch_14">
    <path d="M 399.151875 280.993125 
L 399.151875 26.96 
" style="fill: none; stroke: #ffffff; stroke-width: 1.25; stroke-linejoin: miter; stroke-linecap: square"/>
   </g>
   <g id="patch_15">
    <path d="M 707.04 280.993125 
L 707.04 26.96 
" style="fill: none; stroke: #ffffff; stroke-width: 1.25; stroke-linejoin: miter; stroke-linecap: square"/>
   </g>
   <g id="patch_16">
    <path d="M 399.151875 280.993125 
L 707.04 280.993125 
" style="fill: none; stroke: #ffffff; stroke-width: 1.25; stroke-linejoin: miter; stroke-linecap: square"/>
   </g>
   <g id="patch_17">
    <path d="M 399.151875 26.96 
L 707.04 26.96 
" style="fill: none; stroke: #ffffff; stroke-width: 1.25; stroke-linejoin: miter; stroke-linecap: square"/>
   </g>
   <g id="text_44">
    <!-- Double -->
    <g style="fill: #262626" transform="translate(534.083437 20.96)scale(0.12 -0.12)">
     <defs>
      <path id="ArialMT-44" d="M 494 0 
L 494 4581 
L 2072 4581 
Q 2606 4581 2888 4516 
Q 3281 4425 3559 4188 
Q 3922 3881 4101 3404 
Q 4281 2928 4281 2316 
Q 4281 1794 4159 1391 
Q 4038 988 3847 723 
Q 3656 459 3429 307 
Q 3203 156 2883 78 
Q 2563 0 2147 0 
L 494 0 
z
M 1100 541 
L 2078 541 
Q 2531 541 2789 625 
Q 3047 709 3200 863 
Q 3416 1078 3536 1442 
Q 3656 1806 3656 2325 
Q 3656 3044 3420 3430 
Q 3184 3816 2847 3947 
Q 2603 4041 2063 4041 
L 1100 4041 
L 1100 541 
z
" transform="scale(0.015625)"/>
      <path id="ArialMT-6f" d="M 213 1659 
Q 213 2581 725 3025 
Q 1153 3394 1769 3394 
Q 2453 3394 2887 2945 
Q 3322 2497 3322 1706 
Q 3322 1066 3130 698 
Q 2938 331 2570 128 
Q 2203 -75 1769 -75 
Q 1072 -75 642 372 
Q 213 819 213 1659 
z
M 791 1659 
Q 791 1022 1069 705 
Q 1347 388 1769 388 
Q 2188 388 2466 706 
Q 2744 1025 2744 1678 
Q 2744 2294 2464 2611 
Q 2184 2928 1769 2928 
Q 1347 2928 1069 2612 
Q 791 2297 791 1659 
z
" transform="scale(0.015625)"/>
      <path id="ArialMT-62" d="M 941 0 
L 419 0 
L 419 4581 
L 981 4581 
L 981 2947 
Q 1338 3394 1891 3394 
Q 2197 3394 2470 3270 
Q 2744 3147 2920 2923 
Q 3097 2700 3197 2384 
Q 3297 2069 3297 1709 
Q 3297 856 2875 390 
Q 2453 -75 1863 -75 
Q 1275 -75 941 416 
L 941 0 
z
M 934 1684 
Q 934 1088 1097 822 
Q 1363 388 1816 388 
Q 2184 388 2453 708 
Q 2722 1028 2722 1663 
Q 2722 2313 2464 2622 
Q 2206 2931 1841 2931 
Q 1472 2931 1203 2611 
Q 934 2291 934 1684 
z
" transform="scale(0.015625)"/>
     </defs>
     <use xlink:href="#ArialMT-44"/>
     <use xlink:href="#ArialMT-6f" x="72.216797"/>
     <use xlink:href="#ArialMT-75" x="127.832031"/>
     <use xlink:href="#ArialMT-62" x="183.447266"/>
     <use xlink:href="#ArialMT-6c" x="239.0625"/>
     <use xlink:href="#ArialMT-65" x="261.279297"/>
    </g>
   </g>
   <g id="legend_2">
    <g id="patch_18">
     <path d="M 623.601562 275.493125 
L 699.34 275.493125 
Q 701.54 275.493125 701.54 273.293125 
L 701.54 196.593906 
Q 701.54 194.393906 699.34 194.393906 
L 623.601562 194.393906 
Q 621.401562 194.393906 621.401562 196.593906 
L 621.401562 273.293125 
Q 621.401562 275.493125 623.601562 275.493125 
z
" style="fill: #eaeaf2; opacity: 0.8; stroke: #cccccc; stroke-linejoin: miter"/>
    </g>
    <g id="patch_19">
     <path d="M 625.801562 206.6675 
L 647.801562 206.6675 
L 647.801562 198.9675 
L 625.801562 198.9675 
z
" style="fill: #4c72b0; stroke: #ffffff; stroke-linejoin: miter"/>
    </g>
    <g id="text_45">
     <!-- Prepare -->
     <g style="fill: #262626" transform="translate(656.601562 206.6675)scale(0.11 -0.11)">
      <use xlink:href="#ArialMT-50"/>
      <use xlink:href="#ArialMT-72" x="66.699219"/>
      <use xlink:href="#ArialMT-65" x="100"/>
      <use xlink:href="#ArialMT-70" x="155.615234"/>
      <use xlink:href="#ArialMT-61" x="211.230469"/>
      <use xlink:href="#ArialMT-72" x="266.845703"/>
      <use xlink:href="#ArialMT-65" x="300.146484"/>
     </g>
    </g>
    <g id="patch_20">
     <path d="M 625.801562 222.227344 
L 647.801562 222.227344 
L 647.801562 214.527344 
L 625.801562 214.527344 
z
" style="fill: #dd8452; stroke: #ffffff; stroke-linejoin: miter"/>
    </g>
    <g id="text_46">
     <!-- Transfer -->
     <g style="fill: #262626" transform="translate(656.601562 222.227344)scale(0.11 -0.11)">
      <use xlink:href="#ArialMT-54"/>
      <use xlink:href="#ArialMT-72" x="57.333984"/>
      <use xlink:href="#ArialMT-61" x="90.634766"/>
      <use xlink:href="#ArialMT-6e" x="146.25"/>
      <use xlink:href="#ArialMT-73" x="201.865234"/>
      <use xlink:href="#ArialMT-66" x="251.865234"/>
      <use xlink:href="#ArialMT-65" x="279.648438"/>
      <use xlink:href="#ArialMT-72" x="335.263672"/>
     </g>
    </g>
    <g id="patch_21">
     <path d="M 625.801562 237.787187 
L 647.801562 237.787187 
L 647.801562 230.087187 
L 625.801562 230.087187 
z
" style="fill: #55a868; stroke: #ffffff; stroke-linejoin: miter"/>
    </g>
    <g id="text_47">
     <!-- Run -->
     <g style="fill: #262626" transform="translate(656.601562 237.787187)scale(0.11 -0.11)">
      <use xlink:href="#ArialMT-52"/>
      <use xlink:href="#ArialMT-75" x="72.216797"/>
      <use xlink:href="#ArialMT-6e" x="127.832031"/>
     </g>
    </g>
    <g id="patch_22">
     <path d="M 625.801562 253.347031 
L 647.801562 253.347031 
L 647.801562 245.647031 
L 625.801562 245.647031 
z
" style="fill: #c44e52; stroke: #ffffff; stroke-linejoin: miter"/>
    </g>
    <g id="text_48">
     <!-- Finalize -->
     <g style="fill: #262626" transform="translate(656.601562 253.347031)scale(0.11 -0.11)">
      <use xlink:href="#ArialMT-46"/>
      <use xlink:href="#ArialMT-69" x="61.083984"/>
      <use xlink:href="#ArialMT-6e" x="83.300781"/>
      <use xlink:href="#ArialMT-61" x="138.916016"/>
      <use xlink:href="#ArialMT-6c" x="194.53125"/>
      <use xlink:href="#ArialMT-69" x="216.748047"/>
      <use xlink:href="#ArialMT-7a" x="238.964844"/>
      <use xlink:href="#ArialMT-65" x="288.964844"/>
     </g>
    </g>
    <g id="patch_23">
     <path d="M 625.801562 268.906875 
L 647.801562 268.906875 
L 647.801562 261.206875 
L 625.801562 261.206875 
z
" style="fill: #8172b3; stroke: #ffffff; stroke-linejoin: miter"/>
    </g>
    <g id="text_49">
     <!-- Free -->
     <g style="fill: #262626" transform="translate(656.601562 268.906875)scale(0.11 -0.11)">
      <use xlink:href="#ArialMT-46"/>
      <use xlink:href="#ArialMT-72" x="61.083984"/>
      <use xlink:href="#ArialMT-65" x="94.384766"/>
      <use xlink:href="#ArialMT-65" x="150"/>
     </g>
    </g>
   </g>
  </g>
 </g>
 <defs>
  <clipPath id="p34230573b8">
   <rect x="64.256875" y="26.96" width="307.888125" height="254.033125"/>
  </clipPath>
  <clipPath id="p92ef310b48">
   <rect x="399.151875" y="26.96" width="307.888125" height="254.033125"/>
  </clipPath>
 </defs>
</svg>
