<?xml version="1.0" encoding="UTF-8"?>
<!DOCTYPE svg PUBLIC "-//W3C//DTD SVG 1.1//EN" "http://www.w3.org/Graphics/SVG/1.1/DTD/svg11.dtd">
<svg xmlns="http://www.w3.org/2000/svg" xmlns:xlink="http://www.w3.org/1999/xlink" version="1.1" width="1901px" height="361px" viewBox="-0.5 -0.5 1901 361"><defs/><g><rect x="0" y="150" width="50" height="50" fill="#f0ba6c" stroke="rgb(0, 0, 0)" pointer-events="all"/><rect x="100" y="150" width="50" height="50" fill="#f0ba6c" stroke="rgb(0, 0, 0)" pointer-events="all"/><rect x="260" y="150" width="50" height="50" fill="#f0ba6c" stroke="rgb(0, 0, 0)" pointer-events="all"/><rect x="480" y="150" width="50" height="50" fill="#f0ba6c" stroke="rgb(0, 0, 0)" pointer-events="all"/><rect x="0" y="260" width="50" height="50" fill="#ebea44" stroke="rgb(0, 0, 0)" pointer-events="all"/><rect x="75" y="260" width="50" height="50" fill="#ebea44" stroke="rgb(0, 0, 0)" pointer-events="all"/><rect x="125" y="260" width="50" height="50" fill="#ebea44" stroke="rgb(0, 0, 0)" pointer-events="all"/><rect x="210" y="260" width="50" height="50" fill="#ebea44" stroke="rgb(0, 0, 0)" pointer-events="all"/><rect x="260" y="260" width="50" height="50" fill="#ebea44" stroke="rgb(0, 0, 0)" pointer-events="all"/><rect x="310" y="260" width="50" height="50" fill="#ebea44" stroke="rgb(0, 0, 0)" pointer-events="all"/><rect x="400" y="260" width="50" height="50" fill="#ebea44" stroke="rgb(0, 0, 0)" pointer-events="all"/><rect x="450" y="260" width="50" height="50" fill="#ebea44" stroke="rgb(0, 0, 0)" pointer-events="all"/><rect x="500" y="260" width="50" height="50" fill="#ebea44" stroke="rgb(0, 0, 0)" pointer-events="all"/><rect x="550" y="260" width="50" height="50" fill="#ebea44" stroke="rgb(0, 0, 0)" pointer-events="all"/><rect x="400" y="310" width="50" height="50" fill="#ebea44" stroke="rgb(0, 0, 0)" pointer-events="all"/><rect x="450" y="310" width="50" height="50" fill="#ebea44" stroke="rgb(0, 0, 0)" pointer-events="all"/><rect x="500" y="310" width="50" height="50" fill="#ebea44" stroke="rgb(0, 0, 0)" pointer-events="all"/><rect x="550" y="310" width="50" height="50" fill="#ebea44" stroke="rgb(0, 0, 0)" pointer-events="all"/><path d="M 25 150 L 285 50" fill="none" stroke="rgb(0, 0, 0)" stroke-miterlimit="10" pointer-events="stroke"/><path d="M 125 150 L 285 50" fill="none" stroke="rgb(0, 0, 0)" stroke-miterlimit="10" pointer-events="stroke"/><path d="M 285 150 L 285 50" fill="none" stroke="rgb(0, 0, 0)" stroke-miterlimit="10" pointer-events="stroke"/><path d="M 505 150 L 285 50" fill="none" stroke="rgb(0, 0, 0)" stroke-miterlimit="10" pointer-events="stroke"/><path d="M 25 260 L 25 215" fill="none" stroke="rgb(0, 0, 0)" stroke-miterlimit="10" pointer-events="stroke"/><path d="M 150 260 L 125 215" fill="none" stroke="rgb(0, 0, 0)" stroke-miterlimit="10" pointer-events="stroke"/><path d="M 235 260 L 285 215" fill="none" stroke="rgb(0, 0, 0)" stroke-miterlimit="10" pointer-events="stroke"/><path d="M 335 260 L 285 215" fill="none" stroke="rgb(0, 0, 0)" stroke-miterlimit="10" pointer-events="stroke"/><path d="M 425 260 L 505 215" fill="none" stroke="rgb(0, 0, 0)" stroke-miterlimit="10" pointer-events="stroke"/><path d="M 475 260 L 505 215" fill="none" stroke="rgb(0, 0, 0)" stroke-miterlimit="10" pointer-events="stroke"/><path d="M 575 260 L 505 215" fill="none" stroke="rgb(0, 0, 0)" stroke-miterlimit="10" pointer-events="stroke"/><path d="M 360 175 L 420 175" fill="none" stroke="rgb(0, 0, 0)" stroke-width="6" stroke-miterlimit="10" stroke-dasharray="6 18" pointer-events="stroke"/><rect x="260" y="0" width="50" height="50" fill="#96eb88" stroke="rgb(0, 0, 0)" pointer-events="all"/><rect x="650" y="150" width="50" height="50" fill="#f0ba6c" stroke="rgb(0, 0, 0)" pointer-events="all"/><rect x="750" y="150" width="50" height="50" fill="#f0ba6c" stroke="rgb(0, 0, 0)" pointer-events="all"/><rect x="910" y="150" width="50" height="50" fill="#f0ba6c" stroke="rgb(0, 0, 0)" pointer-events="all"/><rect x="1130" y="150" width="50" height="50" fill="#f0ba6c" stroke="rgb(0, 0, 0)" pointer-events="all"/><rect x="650" y="260" width="50" height="50" fill="#ebea44" stroke="rgb(0, 0, 0)" pointer-events="all"/><rect x="725" y="260" width="50" height="50" fill="#ebea44" stroke="rgb(0, 0, 0)" pointer-events="all"/><rect x="775" y="260" width="50" height="50" fill="#ebea44" stroke="rgb(0, 0, 0)" pointer-events="all"/><rect x="860" y="260" width="50" height="50" fill="#ebea44" stroke="rgb(0, 0, 0)" pointer-events="all"/><rect x="910" y="260" width="50" height="50" fill="#ebea44" stroke="rgb(0, 0, 0)" pointer-events="all"/><rect x="960" y="260" width="50" height="50" fill="#ebea44" stroke="rgb(0, 0, 0)" pointer-events="all"/><rect x="1050" y="260" width="50" height="50" fill="#ebea44" stroke="rgb(0, 0, 0)" pointer-events="all"/><rect x="1100" y="260" width="50" height="50" fill="#ebea44" stroke="rgb(0, 0, 0)" pointer-events="all"/><rect x="1150" y="260" width="50" height="50" fill="#ebea44" stroke="rgb(0, 0, 0)" pointer-events="all"/><rect x="1200" y="260" width="50" height="50" fill="#ebea44" stroke="rgb(0, 0, 0)" pointer-events="all"/><rect x="1050" y="310" width="50" height="50" fill="#ebea44" stroke="rgb(0, 0, 0)" pointer-events="all"/><rect x="1100" y="310" width="50" height="50" fill="#ebea44" stroke="rgb(0, 0, 0)" pointer-events="all"/><rect x="1150" y="310" width="50" height="50" fill="#ebea44" stroke="rgb(0, 0, 0)" pointer-events="all"/><rect x="1200" y="310" width="50" height="50" fill="#ebea44" stroke="rgb(0, 0, 0)" pointer-events="all"/><path d="M 675 150 L 935 50" fill="none" stroke="rgb(0, 0, 0)" stroke-miterlimit="10" pointer-events="stroke"/><path d="M 775 150 L 935 50" fill="none" stroke="rgb(0, 0, 0)" stroke-miterlimit="10" pointer-events="stroke"/><path d="M 935 150 L 935 50" fill="none" stroke="rgb(0, 0, 0)" stroke-miterlimit="10" pointer-events="stroke"/><path d="M 1155 150 L 935 50" fill="none" stroke="rgb(0, 0, 0)" stroke-miterlimit="10" pointer-events="stroke"/><path d="M 675 260 L 675 215" fill="none" stroke="rgb(0, 0, 0)" stroke-miterlimit="10" pointer-events="stroke"/><path d="M 800 260 L 775 215" fill="none" stroke="rgb(0, 0, 0)" stroke-miterlimit="10" pointer-events="stroke"/><path d="M 885 260 L 935 215" fill="none" stroke="rgb(0, 0, 0)" stroke-miterlimit="10" pointer-events="stroke"/><path d="M 985 260 L 935 215" fill="none" stroke="rgb(0, 0, 0)" stroke-miterlimit="10" pointer-events="stroke"/><path d="M 1075 260 L 1155 215" fill="none" stroke="rgb(0, 0, 0)" stroke-miterlimit="10" pointer-events="stroke"/><path d="M 1175 260 L 1155 215" fill="none" stroke="rgb(0, 0, 0)" stroke-miterlimit="10" pointer-events="stroke"/><path d="M 1225 260 L 1155 215" fill="none" stroke="rgb(0, 0, 0)" stroke-miterlimit="10" pointer-events="stroke"/><rect x="910" y="0" width="50" height="50" fill="#96eb88" stroke="rgb(0, 0, 0)" pointer-events="all"/><rect x="1300" y="150" width="50" height="50" fill="#f0ba6c" stroke="rgb(0, 0, 0)" pointer-events="all"/><rect x="1400" y="150" width="50" height="50" fill="#f0ba6c" stroke="rgb(0, 0, 0)" pointer-events="all"/><rect x="1560" y="150" width="50" height="50" fill="#f0ba6c" stroke="rgb(0, 0, 0)" pointer-events="all"/><rect x="1780" y="150" width="50" height="50" fill="#f0ba6c" stroke="rgb(0, 0, 0)" pointer-events="all"/><rect x="1300" y="260" width="50" height="50" fill="#ebea44" stroke="rgb(0, 0, 0)" pointer-events="all"/><rect x="1375" y="260" width="50" height="50" fill="#ebea44" stroke="rgb(0, 0, 0)" pointer-events="all"/><rect x="1425" y="260" width="50" height="50" fill="#ebea44" stroke="rgb(0, 0, 0)" pointer-events="all"/><rect x="1510" y="260" width="50" height="50" fill="#ebea44" stroke="rgb(0, 0, 0)" pointer-events="all"/><rect x="1560" y="260" width="50" height="50" fill="#ebea44" stroke="rgb(0, 0, 0)" pointer-events="all"/><rect x="1610" y="260" width="50" height="50" fill="#ebea44" stroke="rgb(0, 0, 0)" pointer-events="all"/><rect x="1700" y="260" width="50" height="50" fill="#ebea44" stroke="rgb(0, 0, 0)" pointer-events="all"/><rect x="1750" y="260" width="50" height="50" fill="#ebea44" stroke="rgb(0, 0, 0)" pointer-events="all"/><rect x="1800" y="260" width="50" height="50" fill="#ebea44" stroke="rgb(0, 0, 0)" pointer-events="all"/><rect x="1850" y="260" width="50" height="50" fill="#ebea44" stroke="rgb(0, 0, 0)" pointer-events="all"/><rect x="1700" y="310" width="50" height="50" fill="#ebea44" stroke="rgb(0, 0, 0)" pointer-events="all"/><rect x="1750" y="310" width="50" height="50" fill="#ebea44" stroke="rgb(0, 0, 0)" pointer-events="all"/><rect x="1800" y="310" width="50" height="50" fill="#ebea44" stroke="rgb(0, 0, 0)" pointer-events="all"/><rect x="1850" y="310" width="50" height="50" fill="#ebea44" stroke="rgb(0, 0, 0)" pointer-events="all"/><path d="M 1325 150 L 1585 50" fill="none" stroke="rgb(0, 0, 0)" stroke-miterlimit="10" pointer-events="stroke"/><path d="M 1425 150 L 1585 50" fill="none" stroke="rgb(0, 0, 0)" stroke-miterlimit="10" pointer-events="stroke"/><path d="M 1585 150 L 1585 50" fill="none" stroke="rgb(0, 0, 0)" stroke-miterlimit="10" pointer-events="stroke"/><path d="M 1805 150 L 1585 50" fill="none" stroke="rgb(0, 0, 0)" stroke-miterlimit="10" pointer-events="stroke"/><rect x="1560" y="0" width="50" height="50" fill="#96eb88" stroke="rgb(0, 0, 0)" pointer-events="all"/><path d="M 1020 174.58 L 1080 174.58" fill="none" stroke="rgb(0, 0, 0)" stroke-width="6" stroke-miterlimit="10" stroke-dasharray="6 18" pointer-events="stroke"/><path d="M 1670 174.58 L 1730 174.58" fill="none" stroke="rgb(0, 0, 0)" stroke-width="6" stroke-miterlimit="10" stroke-dasharray="6 18" pointer-events="stroke"/><path d="M 1230 23.75 L 1290 23.75" fill="none" stroke="rgb(0, 0, 0)" stroke-width="6" stroke-miterlimit="10" stroke-dasharray="6 18" pointer-events="stroke"/><path d="M 580 23.75 L 640 23.75" fill="none" stroke="rgb(0, 0, 0)" stroke-width="6" stroke-miterlimit="10" stroke-dasharray="6 18" pointer-events="stroke"/><ellipse cx="25" cy="207.5" rx="7.5" ry="7.5" fill="rgb(255, 255, 255)" stroke="rgb(0, 0, 0)" pointer-events="all"/><path d="M 17.5 207.5 L 32.5 207.5" fill="none" stroke="rgb(0, 0, 0)" stroke-miterlimit="10" pointer-events="all"/><path d="M 25 200 L 25 215" fill="none" stroke="rgb(0, 0, 0)" stroke-miterlimit="10" pointer-events="all"/><ellipse cx="675" cy="207.5" rx="7.5" ry="7.5" fill="rgb(255, 255, 255)" stroke="rgb(0, 0, 0)" pointer-events="all"/><path d="M 667.5 207.5 L 682.5 207.5" fill="none" stroke="rgb(0, 0, 0)" stroke-miterlimit="10" pointer-events="all"/><path d="M 675 200 L 675 215" fill="none" stroke="rgb(0, 0, 0)" stroke-miterlimit="10" pointer-events="all"/><ellipse cx="125" cy="207.5" rx="7.5" ry="7.5" fill="rgb(255, 255, 255)" stroke="rgb(0, 0, 0)" pointer-events="all"/><path d="M 117.5 207.5 L 132.5 207.5" fill="none" stroke="rgb(0, 0, 0)" stroke-miterlimit="10" pointer-events="all"/><path d="M 125 200 L 125 215" fill="none" stroke="rgb(0, 0, 0)" stroke-miterlimit="10" pointer-events="all"/><path d="M 100 260 L 125 215" fill="none" stroke="rgb(0, 0, 0)" stroke-miterlimit="10" pointer-events="stroke"/><ellipse cx="285" cy="207.5" rx="7.5" ry="7.5" fill="rgb(255, 255, 255)" stroke="rgb(0, 0, 0)" pointer-events="all"/><path d="M 277.5 207.5 L 292.5 207.5" fill="none" stroke="rgb(0, 0, 0)" stroke-miterlimit="10" pointer-events="all"/><path d="M 285 200 L 285 215" fill="none" stroke="rgb(0, 0, 0)" stroke-miterlimit="10" pointer-events="all"/><path d="M 285 260 L 285 215" fill="none" stroke="rgb(0, 0, 0)" stroke-miterlimit="10" pointer-events="stroke"/><ellipse cx="505" cy="207.5" rx="7.5" ry="7.5" fill="rgb(255, 255, 255)" stroke="rgb(0, 0, 0)" pointer-events="all"/><path d="M 497.5 207.5 L 512.5 207.5" fill="none" stroke="rgb(0, 0, 0)" stroke-miterlimit="10" pointer-events="all"/><path d="M 505 200 L 505 215" fill="none" stroke="rgb(0, 0, 0)" stroke-miterlimit="10" pointer-events="all"/><path d="M 525 260 L 505 215" fill="none" stroke="rgb(0, 0, 0)" stroke-miterlimit="10" pointer-events="stroke"/><ellipse cx="775" cy="207.5" rx="7.5" ry="7.5" fill="rgb(255, 255, 255)" stroke="rgb(0, 0, 0)" pointer-events="all"/><path d="M 767.5 207.5 L 782.5 207.5" fill="none" stroke="rgb(0, 0, 0)" stroke-miterlimit="10" pointer-events="all"/><path d="M 775 200 L 775 215" fill="none" stroke="rgb(0, 0, 0)" stroke-miterlimit="10" pointer-events="all"/><path d="M 750 260 L 775 215" fill="none" stroke="rgb(0, 0, 0)" stroke-miterlimit="10" pointer-events="stroke"/><ellipse cx="935" cy="207.5" rx="7.5" ry="7.5" fill="rgb(255, 255, 255)" stroke="rgb(0, 0, 0)" pointer-events="all"/><path d="M 927.5 207.5 L 942.5 207.5" fill="none" stroke="rgb(0, 0, 0)" stroke-miterlimit="10" pointer-events="all"/><path d="M 935 200 L 935 215" fill="none" stroke="rgb(0, 0, 0)" stroke-miterlimit="10" pointer-events="all"/><path d="M 935 260 L 935 215" fill="none" stroke="rgb(0, 0, 0)" stroke-miterlimit="10" pointer-events="stroke"/><ellipse cx="1155" cy="207.5" rx="7.5" ry="7.5" fill="rgb(255, 255, 255)" stroke="rgb(0, 0, 0)" pointer-events="all"/><path d="M 1147.5 207.5 L 1162.5 207.5" fill="none" stroke="rgb(0, 0, 0)" stroke-miterlimit="10" pointer-events="all"/><path d="M 1155 200 L 1155 215" fill="none" stroke="rgb(0, 0, 0)" stroke-miterlimit="10" pointer-events="all"/><path d="M 1125 260 L 1155 215" fill="none" stroke="rgb(0, 0, 0)" stroke-miterlimit="10" pointer-events="stroke"/><ellipse cx="1325" cy="207.5" rx="7.5" ry="7.5" fill="rgb(255, 255, 255)" stroke="rgb(0, 0, 0)" pointer-events="all"/><path d="M 1317.5 207.5 L 1332.5 207.5" fill="none" stroke="rgb(0, 0, 0)" stroke-miterlimit="10" pointer-events="all"/><path d="M 1325 200 L 1325 215" fill="none" stroke="rgb(0, 0, 0)" stroke-miterlimit="10" pointer-events="all"/><path d="M 1325 260 L 1325 215" fill="none" stroke="rgb(0, 0, 0)" stroke-miterlimit="10" pointer-events="stroke"/><path d="M 1450 260 L 1425 215" fill="none" stroke="rgb(0, 0, 0)" stroke-miterlimit="10" pointer-events="stroke"/><ellipse cx="1425" cy="207.5" rx="7.5" ry="7.5" fill="rgb(255, 255, 255)" stroke="rgb(0, 0, 0)" pointer-events="all"/><path d="M 1417.5 207.5 L 1432.5 207.5" fill="none" stroke="rgb(0, 0, 0)" stroke-miterlimit="10" pointer-events="all"/><path d="M 1425 200 L 1425 215" fill="none" stroke="rgb(0, 0, 0)" stroke-miterlimit="10" pointer-events="all"/><path d="M 1400 260 L 1425 215" fill="none" stroke="rgb(0, 0, 0)" stroke-miterlimit="10" pointer-events="stroke"/><path d="M 1585 260 L 1585 215" fill="none" stroke="rgb(0, 0, 0)" stroke-miterlimit="10" pointer-events="stroke"/><path d="M 1535 260 L 1585 215" fill="none" stroke="rgb(0, 0, 0)" stroke-miterlimit="10" pointer-events="stroke"/><ellipse cx="1585" cy="207.5" rx="7.5" ry="7.5" fill="rgb(255, 255, 255)" stroke="rgb(0, 0, 0)" pointer-events="all"/><path d="M 1577.5 207.5 L 1592.5 207.5" fill="none" stroke="rgb(0, 0, 0)" stroke-miterlimit="10" pointer-events="all"/><path d="M 1585 200 L 1585 215" fill="none" stroke="rgb(0, 0, 0)" stroke-miterlimit="10" pointer-events="all"/><path d="M 1635 260 L 1585 215" fill="none" stroke="rgb(0, 0, 0)" stroke-miterlimit="10" pointer-events="stroke"/><path d="M 1775 260 L 1805 215" fill="none" stroke="rgb(0, 0, 0)" stroke-miterlimit="10" pointer-events="stroke"/><path d="M 1825 260 L 1805 215" fill="none" stroke="rgb(0, 0, 0)" stroke-miterlimit="10" pointer-events="stroke"/><path d="M 1875 260 L 1805 215" fill="none" stroke="rgb(0, 0, 0)" stroke-miterlimit="10" pointer-events="stroke"/><ellipse cx="1805" cy="207.5" rx="7.5" ry="7.5" fill="rgb(255, 255, 255)" stroke="rgb(0, 0, 0)" pointer-events="all"/><path d="M 1797.5 207.5 L 1812.5 207.5" fill="none" stroke="rgb(0, 0, 0)" stroke-miterlimit="10" pointer-events="all"/><path d="M 1805 200 L 1805 215" fill="none" stroke="rgb(0, 0, 0)" stroke-miterlimit="10" pointer-events="all"/><path d="M 1725 260 L 1805 215" fill="none" stroke="rgb(0, 0, 0)" stroke-miterlimit="10" pointer-events="stroke"/></g></svg>