<?xml version="1.0" encoding="UTF-8"?>
<!DOCTYPE svg PUBLIC "-//W3C//DTD SVG 1.1//EN" "http://www.w3.org/Graphics/SVG/1.1/DTD/svg11.dtd">
<svg xmlns="http://www.w3.org/2000/svg" xmlns:xlink="http://www.w3.org/1999/xlink" version="1.1" width="2550px" height="1100px" viewBox="-0.5 -0.5 2550 1100"><defs/><g><rect x="200" y="300" width="50" height="50" fill="#f0ba6c" stroke="rgb(0, 0, 0)" pointer-events="all"/><rect x="300" y="300" width="50" height="50" fill="#f0ba6c" stroke="rgb(0, 0, 0)" pointer-events="all"/><rect x="460" y="300" width="50" height="50" fill="#f0ba6c" stroke="rgb(0, 0, 0)" pointer-events="all"/><rect x="680" y="300" width="50" height="50" fill="#f0ba6c" stroke="rgb(0, 0, 0)" pointer-events="all"/><rect x="200" y="410" width="50" height="50" fill="#ebea44" stroke="rgb(0, 0, 0)" pointer-events="all"/><rect x="275" y="410" width="50" height="50" fill="#ebea44" stroke="rgb(0, 0, 0)" pointer-events="all"/><rect x="325" y="410" width="50" height="50" fill="#ebea44" stroke="rgb(0, 0, 0)" pointer-events="all"/><rect x="410" y="410" width="50" height="50" fill="#ebea44" stroke="rgb(0, 0, 0)" pointer-events="all"/><rect x="460" y="410" width="50" height="50" fill="#ebea44" stroke="rgb(0, 0, 0)" pointer-events="all"/><rect x="510" y="410" width="50" height="50" fill="#ebea44" stroke="rgb(0, 0, 0)" pointer-events="all"/><rect x="600" y="410" width="50" height="50" fill="#ebea44" stroke="rgb(0, 0, 0)" pointer-events="all"/><rect x="650" y="410" width="50" height="50" fill="#ebea44" stroke="rgb(0, 0, 0)" pointer-events="all"/><rect x="700" y="410" width="50" height="50" fill="#ebea44" stroke="rgb(0, 0, 0)" pointer-events="all"/><rect x="750" y="410" width="50" height="50" fill="#ebea44" stroke="rgb(0, 0, 0)" pointer-events="all"/><rect x="600" y="460" width="50" height="50" fill="#ebea44" stroke="rgb(0, 0, 0)" pointer-events="all"/><rect x="650" y="460" width="50" height="50" fill="#ebea44" stroke="rgb(0, 0, 0)" pointer-events="all"/><rect x="700" y="460" width="50" height="50" fill="#ebea44" stroke="rgb(0, 0, 0)" pointer-events="all"/><rect x="750" y="460" width="50" height="50" fill="#ebea44" stroke="rgb(0, 0, 0)" pointer-events="all"/><path d="M 225 300 L 485 200" fill="none" stroke="rgb(0, 0, 0)" stroke-miterlimit="10" pointer-events="stroke"/><path d="M 325 300 L 485 200" fill="none" stroke="rgb(0, 0, 0)" stroke-miterlimit="10" pointer-events="stroke"/><path d="M 485 300 L 485 200" fill="none" stroke="rgb(0, 0, 0)" stroke-miterlimit="10" pointer-events="stroke"/><path d="M 705 300 L 485 200" fill="none" stroke="rgb(0, 0, 0)" stroke-miterlimit="10" pointer-events="stroke"/><path d="M 225 410 L 225 350" fill="none" stroke="rgb(0, 0, 0)" stroke-miterlimit="10" pointer-events="stroke"/><path d="M 300 410 L 325 350" fill="none" stroke="rgb(0, 0, 0)" stroke-miterlimit="10" pointer-events="stroke"/><path d="M 350 410 L 325 350" fill="none" stroke="rgb(0, 0, 0)" stroke-miterlimit="10" pointer-events="stroke"/><path d="M 435 410 L 485 350" fill="none" stroke="rgb(0, 0, 0)" stroke-miterlimit="10" pointer-events="stroke"/><path d="M 485 410 L 485 350" fill="none" stroke="rgb(0, 0, 0)" stroke-miterlimit="10" pointer-events="stroke"/><path d="M 535 410 L 485 350" fill="none" stroke="rgb(0, 0, 0)" stroke-miterlimit="10" pointer-events="stroke"/><path d="M 625 410 L 705 350" fill="none" stroke="rgb(0, 0, 0)" stroke-miterlimit="10" pointer-events="stroke"/><path d="M 675 410 L 705 350" fill="none" stroke="rgb(0, 0, 0)" stroke-miterlimit="10" pointer-events="stroke"/><path d="M 725 410 L 705 350" fill="none" stroke="rgb(0, 0, 0)" stroke-miterlimit="10" pointer-events="stroke"/><path d="M 775 410 L 705 350" fill="none" stroke="rgb(0, 0, 0)" stroke-miterlimit="10" pointer-events="stroke"/><path d="M 560 325 L 620 325" fill="none" stroke="rgb(0, 0, 0)" stroke-width="6" stroke-miterlimit="10" stroke-dasharray="6 18" pointer-events="stroke"/><rect x="460" y="150" width="50" height="50" fill="#96eb88" stroke="rgb(0, 0, 0)" pointer-events="all"/><rect x="850" y="300" width="50" height="50" fill="#f0ba6c" stroke="rgb(0, 0, 0)" pointer-events="all"/><rect x="950" y="300" width="50" height="50" fill="#f0ba6c" stroke="rgb(0, 0, 0)" pointer-events="all"/><rect x="1110" y="300" width="50" height="50" fill="#f0ba6c" stroke="rgb(0, 0, 0)" pointer-events="all"/><rect x="1330" y="300" width="50" height="50" fill="#f0ba6c" stroke="rgb(0, 0, 0)" pointer-events="all"/><rect x="850" y="410" width="50" height="50" fill="#ebea44" stroke="rgb(0, 0, 0)" pointer-events="all"/><rect x="925" y="410" width="50" height="50" fill="#ebea44" stroke="rgb(0, 0, 0)" pointer-events="all"/><rect x="975" y="410" width="50" height="50" fill="#ebea44" stroke="rgb(0, 0, 0)" pointer-events="all"/><rect x="1060" y="410" width="50" height="50" fill="#ebea44" stroke="rgb(0, 0, 0)" pointer-events="all"/><rect x="1110" y="410" width="50" height="50" fill="#ebea44" stroke="rgb(0, 0, 0)" pointer-events="all"/><rect x="1160" y="410" width="50" height="50" fill="#ebea44" stroke="rgb(0, 0, 0)" pointer-events="all"/><rect x="1250" y="410" width="50" height="50" fill="#ebea44" stroke="rgb(0, 0, 0)" pointer-events="all"/><rect x="1300" y="410" width="50" height="50" fill="#ebea44" stroke="rgb(0, 0, 0)" pointer-events="all"/><rect x="1350" y="410" width="50" height="50" fill="#ebea44" stroke="rgb(0, 0, 0)" pointer-events="all"/><rect x="1400" y="410" width="50" height="50" fill="#ebea44" stroke="rgb(0, 0, 0)" pointer-events="all"/><rect x="1250" y="460" width="50" height="50" fill="#ebea44" stroke="rgb(0, 0, 0)" pointer-events="all"/><rect x="1300" y="460" width="50" height="50" fill="#ebea44" stroke="rgb(0, 0, 0)" pointer-events="all"/><rect x="1350" y="460" width="50" height="50" fill="#ebea44" stroke="rgb(0, 0, 0)" pointer-events="all"/><rect x="1400" y="460" width="50" height="50" fill="#ebea44" stroke="rgb(0, 0, 0)" pointer-events="all"/><path d="M 875 300 L 1135 200" fill="none" stroke="rgb(0, 0, 0)" stroke-miterlimit="10" pointer-events="stroke"/><path d="M 975 300 L 1135 200" fill="none" stroke="rgb(0, 0, 0)" stroke-miterlimit="10" pointer-events="stroke"/><path d="M 1135 300 L 1135 200" fill="none" stroke="rgb(0, 0, 0)" stroke-miterlimit="10" pointer-events="stroke"/><path d="M 1355 300 L 1135 200" fill="none" stroke="rgb(0, 0, 0)" stroke-miterlimit="10" pointer-events="stroke"/><path d="M 875 410 L 875 350" fill="none" stroke="rgb(0, 0, 0)" stroke-miterlimit="10" pointer-events="stroke"/><path d="M 950 410 L 975 350" fill="none" stroke="rgb(0, 0, 0)" stroke-miterlimit="10" pointer-events="stroke"/><path d="M 1000 410 L 975 350" fill="none" stroke="rgb(0, 0, 0)" stroke-miterlimit="10" pointer-events="stroke"/><path d="M 1085 410 L 1135 350" fill="none" stroke="rgb(0, 0, 0)" stroke-miterlimit="10" pointer-events="stroke"/><path d="M 1135 410 L 1135 350" fill="none" stroke="rgb(0, 0, 0)" stroke-miterlimit="10" pointer-events="stroke"/><path d="M 1185 410 L 1135 350" fill="none" stroke="rgb(0, 0, 0)" stroke-miterlimit="10" pointer-events="stroke"/><path d="M 1275 410 L 1355 350" fill="none" stroke="rgb(0, 0, 0)" stroke-miterlimit="10" pointer-events="stroke"/><path d="M 1325 410 L 1355 350" fill="none" stroke="rgb(0, 0, 0)" stroke-miterlimit="10" pointer-events="stroke"/><path d="M 1375 410 L 1355 350" fill="none" stroke="rgb(0, 0, 0)" stroke-miterlimit="10" pointer-events="stroke"/><path d="M 1425 410 L 1355 350" fill="none" stroke="rgb(0, 0, 0)" stroke-miterlimit="10" pointer-events="stroke"/><rect x="1110" y="150" width="50" height="50" fill="#96eb88" stroke="rgb(0, 0, 0)" pointer-events="all"/><rect x="1500" y="300" width="50" height="50" fill="#f0ba6c" stroke="rgb(0, 0, 0)" pointer-events="all"/><rect x="1600" y="300" width="50" height="50" fill="#f0ba6c" stroke="rgb(0, 0, 0)" pointer-events="all"/><rect x="1760" y="300" width="50" height="50" fill="#f0ba6c" stroke="rgb(0, 0, 0)" pointer-events="all"/><rect x="1980" y="300" width="50" height="50" fill="#f0ba6c" stroke="rgb(0, 0, 0)" pointer-events="all"/><rect x="1500" y="410" width="50" height="50" fill="#ebea44" stroke="rgb(0, 0, 0)" pointer-events="all"/><rect x="1575" y="410" width="50" height="50" fill="#ebea44" stroke="rgb(0, 0, 0)" pointer-events="all"/><rect x="1625" y="410" width="50" height="50" fill="#ebea44" stroke="rgb(0, 0, 0)" pointer-events="all"/><rect x="1710" y="410" width="50" height="50" fill="#ebea44" stroke="rgb(0, 0, 0)" pointer-events="all"/><rect x="1760" y="410" width="50" height="50" fill="#ebea44" stroke="rgb(0, 0, 0)" pointer-events="all"/><rect x="1810" y="410" width="50" height="50" fill="#ebea44" stroke="rgb(0, 0, 0)" pointer-events="all"/><rect x="1900" y="410" width="50" height="50" fill="#ebea44" stroke="rgb(0, 0, 0)" pointer-events="all"/><rect x="1950" y="410" width="50" height="50" fill="#ebea44" stroke="rgb(0, 0, 0)" pointer-events="all"/><rect x="2000" y="410" width="50" height="50" fill="#ebea44" stroke="rgb(0, 0, 0)" pointer-events="all"/><rect x="2050" y="410" width="50" height="50" fill="#ebea44" stroke="rgb(0, 0, 0)" pointer-events="all"/><rect x="1900" y="460" width="50" height="50" fill="#ebea44" stroke="rgb(0, 0, 0)" pointer-events="all"/><rect x="1950" y="460" width="50" height="50" fill="#ebea44" stroke="rgb(0, 0, 0)" pointer-events="all"/><rect x="2000" y="460" width="50" height="50" fill="#ebea44" stroke="rgb(0, 0, 0)" pointer-events="all"/><rect x="2050" y="460" width="50" height="50" fill="#ebea44" stroke="rgb(0, 0, 0)" pointer-events="all"/><path d="M 1525 300 L 1785 200" fill="none" stroke="rgb(0, 0, 0)" stroke-miterlimit="10" pointer-events="stroke"/><path d="M 1625 300 L 1785 200" fill="none" stroke="rgb(0, 0, 0)" stroke-miterlimit="10" pointer-events="stroke"/><path d="M 1785 300 L 1785 200" fill="none" stroke="rgb(0, 0, 0)" stroke-miterlimit="10" pointer-events="stroke"/><path d="M 2005 300 L 1785 200" fill="none" stroke="rgb(0, 0, 0)" stroke-miterlimit="10" pointer-events="stroke"/><path d="M 1525 410 L 1525 350" fill="none" stroke="rgb(0, 0, 0)" stroke-miterlimit="10" pointer-events="stroke"/><path d="M 1600 410 L 1625 350" fill="none" stroke="rgb(0, 0, 0)" stroke-miterlimit="10" pointer-events="stroke"/><path d="M 1650 410 L 1625 350" fill="none" stroke="rgb(0, 0, 0)" stroke-miterlimit="10" pointer-events="stroke"/><path d="M 1735 410 L 1785 350" fill="none" stroke="rgb(0, 0, 0)" stroke-miterlimit="10" pointer-events="stroke"/><path d="M 1785 410 L 1785 350" fill="none" stroke="rgb(0, 0, 0)" stroke-miterlimit="10" pointer-events="stroke"/><path d="M 1835 410 L 1785 350" fill="none" stroke="rgb(0, 0, 0)" stroke-miterlimit="10" pointer-events="stroke"/><path d="M 1925 410 L 2005 350" fill="none" stroke="rgb(0, 0, 0)" stroke-miterlimit="10" pointer-events="stroke"/><path d="M 1975 410 L 2005 350" fill="none" stroke="rgb(0, 0, 0)" stroke-miterlimit="10" pointer-events="stroke"/><path d="M 2025 410 L 2005 350" fill="none" stroke="rgb(0, 0, 0)" stroke-miterlimit="10" pointer-events="stroke"/><path d="M 2075 410 L 2005 350" fill="none" stroke="rgb(0, 0, 0)" stroke-miterlimit="10" pointer-events="stroke"/><rect x="1760" y="150" width="50" height="50" fill="#96eb88" stroke="rgb(0, 0, 0)" pointer-events="all"/><path d="M 1220 324.58 L 1280 324.58" fill="none" stroke="rgb(0, 0, 0)" stroke-width="6" stroke-miterlimit="10" stroke-dasharray="6 18" pointer-events="stroke"/><path d="M 1870 324.58 L 1930 324.58" fill="none" stroke="rgb(0, 0, 0)" stroke-width="6" stroke-miterlimit="10" stroke-dasharray="6 18" pointer-events="stroke"/><path d="M 1430 173.75 L 1490 173.75" fill="none" stroke="rgb(0, 0, 0)" stroke-width="6" stroke-miterlimit="10" stroke-dasharray="6 18" pointer-events="stroke"/><path d="M 780 173.75 L 840 173.75" fill="none" stroke="rgb(0, 0, 0)" stroke-width="6" stroke-miterlimit="10" stroke-dasharray="6 18" pointer-events="stroke"/></g></svg>