<?xml version="1.0" encoding="UTF-8"?>
<!DOCTYPE svg PUBLIC "-//W3C//DTD SVG 1.1//EN" "http://www.w3.org/Graphics/SVG/1.1/DTD/svg11.dtd">
<svg xmlns="http://www.w3.org/2000/svg" xmlns:xlink="http://www.w3.org/1999/xlink" version="1.1" width="321px" height="176px" viewBox="-0.5 -0.5 321 176"><defs/><g><rect x="220" y="25" width="25" height="25" fill="#5bafeb" stroke="rgb(0, 0, 0)" pointer-events="none"/><rect x="220" y="50" width="25" height="25" fill="#ebea44" stroke="rgb(0, 0, 0)" pointer-events="none"/><rect x="245" y="50" width="25" height="25" fill="#ebea44" stroke="rgb(0, 0, 0)" pointer-events="none"/><rect x="270" y="50" width="25" height="25" fill="#ebea44" stroke="rgb(0, 0, 0)" pointer-events="none"/><rect x="295" y="50" width="25" height="25" fill="#ebea44" stroke="rgb(0, 0, 0)" pointer-events="none"/><rect x="245" y="25" width="25" height="25" fill="#5bafeb" stroke="rgb(0, 0, 0)" pointer-events="none"/><rect x="270" y="25" width="25" height="25" fill="#5bafeb" stroke="rgb(0, 0, 0)" pointer-events="none"/><rect x="295" y="25" width="25" height="25" fill="#5bafeb" stroke="rgb(0, 0, 0)" pointer-events="none"/><rect x="220" y="125" width="25" height="25" fill="#eb716e" stroke="rgb(0, 0, 0)" pointer-events="none"/><rect x="245" y="125" width="25" height="25" fill="#eb716e" stroke="rgb(0, 0, 0)" pointer-events="none"/><rect x="270" y="125" width="25" height="25" fill="#eb716e" stroke="rgb(0, 0, 0)" pointer-events="none"/><rect x="295" y="125" width="25" height="25" fill="#eb716e" stroke="rgb(0, 0, 0)" pointer-events="none"/><rect x="220" y="75" width="25" height="25" fill="#ebea44" stroke="rgb(0, 0, 0)" pointer-events="none"/><rect x="245" y="75" width="25" height="25" fill="#ebea44" stroke="rgb(0, 0, 0)" pointer-events="none"/><rect x="270" y="75" width="25" height="25" fill="#ebea44" stroke="rgb(0, 0, 0)" pointer-events="none"/><rect x="295" y="75" width="25" height="25" fill="#ebea44" stroke="rgb(0, 0, 0)" pointer-events="none"/><rect x="220" y="100" width="25" height="25" fill="#ebea44" stroke="rgb(0, 0, 0)" pointer-events="none"/><rect x="245" y="100" width="25" height="25" fill="#ebea44" stroke="rgb(0, 0, 0)" pointer-events="none"/><rect x="270" y="100" width="25" height="25" fill="#ebea44" stroke="rgb(0, 0, 0)" pointer-events="none"/><rect x="295" y="100" width="25" height="25" fill="#ebea44" stroke="rgb(0, 0, 0)" pointer-events="none"/><rect x="0" y="25" width="25" height="25" fill="#eb716e" stroke="rgb(0, 0, 0)" pointer-events="none"/><rect x="25" y="25" width="25" height="25" fill="#eb716e" stroke="rgb(0, 0, 0)" pointer-events="none"/><rect x="50" y="25" width="25" height="25" fill="#eb716e" stroke="rgb(0, 0, 0)" pointer-events="none"/><rect x="75" y="25" width="25" height="25" fill="#eb716e" stroke="rgb(0, 0, 0)" pointer-events="none"/><rect x="75" y="100" width="25" height="25" fill="#5bafeb" stroke="rgb(0, 0, 0)" pointer-events="none"/><rect x="100" y="100" width="25" height="25" fill="#5bafeb" stroke="rgb(0, 0, 0)" pointer-events="none"/><rect x="125" y="100" width="25" height="25" fill="#5bafeb" stroke="rgb(0, 0, 0)" pointer-events="none"/><rect x="150" y="100" width="25" height="25" fill="#5bafeb" stroke="rgb(0, 0, 0)" pointer-events="none"/><rect x="0" y="50" width="25" height="25" fill="#eb716e" stroke="rgb(0, 0, 0)" pointer-events="none"/><rect x="25" y="50" width="25" height="25" fill="#eb716e" stroke="rgb(0, 0, 0)" pointer-events="none"/><rect x="50" y="50" width="25" height="25" fill="#eb716e" stroke="rgb(0, 0, 0)" pointer-events="none"/><rect x="75" y="50" width="25" height="25" fill="#eb716e" stroke="rgb(0, 0, 0)" pointer-events="none"/><rect x="0" y="75" width="25" height="25" fill="#eb716e" stroke="rgb(0, 0, 0)" pointer-events="none"/><rect x="25" y="75" width="25" height="25" fill="#eb716e" stroke="rgb(0, 0, 0)" pointer-events="none"/><rect x="50" y="75" width="25" height="25" fill="#eb716e" stroke="rgb(0, 0, 0)" pointer-events="none"/><rect x="75" y="75" width="25" height="25" fill="#ebea44" stroke="rgb(0, 0, 0)" pointer-events="none"/><rect x="100" y="75" width="25" height="25" fill="#5bafeb" stroke="rgb(0, 0, 0)" pointer-events="none"/><rect x="125" y="75" width="25" height="25" fill="#5bafeb" stroke="rgb(0, 0, 0)" pointer-events="none"/><rect x="150" y="75" width="25" height="25" fill="#5bafeb" stroke="rgb(0, 0, 0)" pointer-events="none"/><rect x="75" y="125" width="25" height="25" fill="#5bafeb" stroke="rgb(0, 0, 0)" pointer-events="none"/><rect x="100" y="125" width="25" height="25" fill="#5bafeb" stroke="rgb(0, 0, 0)" pointer-events="none"/><rect x="125" y="125" width="25" height="25" fill="#5bafeb" stroke="rgb(0, 0, 0)" pointer-events="none"/><rect x="150" y="125" width="25" height="25" fill="#5bafeb" stroke="rgb(0, 0, 0)" pointer-events="none"/><rect x="75" y="150" width="25" height="25" fill="#5bafeb" stroke="rgb(0, 0, 0)" pointer-events="none"/><rect x="100" y="150" width="25" height="25" fill="#5bafeb" stroke="rgb(0, 0, 0)" pointer-events="none"/><rect x="125" y="150" width="25" height="25" fill="#5bafeb" stroke="rgb(0, 0, 0)" pointer-events="none"/><rect x="150" y="150" width="25" height="25" fill="#5bafeb" stroke="rgb(0, 0, 0)" pointer-events="none"/><rect x="0" y="0" width="25" height="25" fill="#eb716e" stroke="rgb(0, 0, 0)" pointer-events="none"/><rect x="25" y="0" width="25" height="25" fill="#eb716e" stroke="rgb(0, 0, 0)" pointer-events="none"/><rect x="50" y="0" width="25" height="25" fill="#eb716e" stroke="rgb(0, 0, 0)" pointer-events="none"/><rect x="75" y="0" width="25" height="25" fill="#eb716e" stroke="rgb(0, 0, 0)" pointer-events="none"/></g></svg>