<?xml version="1.0" encoding="utf-8" standalone="no"?>
<!DOCTYPE svg PUBLIC "-//W3C//DTD SVG 1.1//EN"
  "http://www.w3.org/Graphics/SVG/1.1/DTD/svg11.dtd">
<svg xmlns:xlink="http://www.w3.org/1999/xlink" width="504pt" height="504pt" viewBox="0 0 504 504" xmlns="http://www.w3.org/2000/svg" version="1.1">
 <metadata>
  <rdf:RDF xmlns:dc="http://purl.org/dc/elements/1.1/" xmlns:cc="http://creativecommons.org/ns#" xmlns:rdf="http://www.w3.org/1999/02/22-rdf-syntax-ns#">
   <cc:Work>
    <dc:type rdf:resource="http://purl.org/dc/dcmitype/StillImage"/>
    <dc:date>2022-07-10T19:36:33.704775</dc:date>
    <dc:format>image/svg+xml</dc:format>
    <dc:creator>
     <cc:Agent>
      <dc:title>Matplotlib v3.5.1, https://matplotlib.org/</dc:title>
     </cc:Agent>
    </dc:creator>
   </cc:Work>
  </rdf:RDF>
 </metadata>
 <defs>
  <style type="text/css">*{stroke-linejoin: round; stroke-linecap: butt}</style>
 </defs>
 <g id="figure_1">
  <g id="patch_1">
   <path d="M 0 504 
L 504 504 
L 504 0 
L 0 0 
z
" style="fill: #ffffff"/>
  </g>
  <g id="axes_1">
   <g id="patch_2">
    <path d="M 52.006875 457.493125 
L 491.04 457.493125 
L 491.04 13.39162 
L 52.006875 13.39162 
z
" style="fill: #eaeaf2"/>
   </g>
   <g id="matplotlib.axis_1">
    <g id="xtick_1">
     <g id="line2d_1">
      <path d="M 59.088054 457.493125 
L 59.088054 13.39162 
" clip-path="url(#pd94c33c356)" style="fill: none; stroke: #ffffff; stroke-linecap: round"/>
     </g>
     <g id="text_1">
      <!-- 0x0 -->
      <g style="fill: #262626" transform="translate(50.221023 474.866719)scale(0.11 -0.11)">
       <defs>
        <path id="ArialMT-30" d="M 266 2259 
Q 266 3072 433 3567 
Q 600 4063 929 4331 
Q 1259 4600 1759 4600 
Q 2128 4600 2406 4451 
Q 2684 4303 2865 4023 
Q 3047 3744 3150 3342 
Q 3253 2941 3253 2259 
Q 3253 1453 3087 958 
Q 2922 463 2592 192 
Q 2263 -78 1759 -78 
Q 1097 -78 719 397 
Q 266 969 266 2259 
z
M 844 2259 
Q 844 1131 1108 757 
Q 1372 384 1759 384 
Q 2147 384 2411 759 
Q 2675 1134 2675 2259 
Q 2675 3391 2411 3762 
Q 2147 4134 1753 4134 
Q 1366 4134 1134 3806 
Q 844 3388 844 2259 
z
" transform="scale(0.015625)"/>
        <path id="ArialMT-78" d="M 47 0 
L 1259 1725 
L 138 3319 
L 841 3319 
L 1350 2541 
Q 1494 2319 1581 2169 
Q 1719 2375 1834 2534 
L 2394 3319 
L 3066 3319 
L 1919 1756 
L 3153 0 
L 2463 0 
L 1781 1031 
L 1600 1309 
L 728 0 
L 47 0 
z
" transform="scale(0.015625)"/>
       </defs>
       <use xlink:href="#ArialMT-30"/>
       <use xlink:href="#ArialMT-78" x="55.615234"/>
       <use xlink:href="#ArialMT-30" x="105.615234"/>
      </g>
     </g>
    </g>
    <g id="xtick_2">
     <g id="line2d_2">
      <path d="M 139.556003 457.493125 
L 139.556003 13.39162 
" clip-path="url(#pd94c33c356)" style="fill: none; stroke: #ffffff; stroke-linecap: round"/>
     </g>
     <g id="text_2">
      <!-- 100x100 -->
      <g style="fill: #262626" transform="translate(118.454909 474.866719)scale(0.11 -0.11)">
       <defs>
        <path id="ArialMT-31" d="M 2384 0 
L 1822 0 
L 1822 3584 
Q 1619 3391 1289 3197 
Q 959 3003 697 2906 
L 697 3450 
Q 1169 3672 1522 3987 
Q 1875 4303 2022 4600 
L 2384 4600 
L 2384 0 
z
" transform="scale(0.015625)"/>
       </defs>
       <use xlink:href="#ArialMT-31"/>
       <use xlink:href="#ArialMT-30" x="55.615234"/>
       <use xlink:href="#ArialMT-30" x="111.230469"/>
       <use xlink:href="#ArialMT-78" x="166.845703"/>
       <use xlink:href="#ArialMT-31" x="216.845703"/>
       <use xlink:href="#ArialMT-30" x="272.460938"/>
       <use xlink:href="#ArialMT-30" x="328.076172"/>
      </g>
     </g>
    </g>
    <g id="xtick_3">
     <g id="line2d_3">
      <path d="M 220.023951 457.493125 
L 220.023951 13.39162 
" clip-path="url(#pd94c33c356)" style="fill: none; stroke: #ffffff; stroke-linecap: round"/>
     </g>
     <g id="text_3">
      <!-- 200x200 -->
      <g style="fill: #262626" transform="translate(198.922857 474.866719)scale(0.11 -0.11)">
       <defs>
        <path id="ArialMT-32" d="M 3222 541 
L 3222 0 
L 194 0 
Q 188 203 259 391 
Q 375 700 629 1000 
Q 884 1300 1366 1694 
Q 2113 2306 2375 2664 
Q 2638 3022 2638 3341 
Q 2638 3675 2398 3904 
Q 2159 4134 1775 4134 
Q 1369 4134 1125 3890 
Q 881 3647 878 3216 
L 300 3275 
Q 359 3922 746 4261 
Q 1134 4600 1788 4600 
Q 2447 4600 2831 4234 
Q 3216 3869 3216 3328 
Q 3216 3053 3103 2787 
Q 2991 2522 2730 2228 
Q 2469 1934 1863 1422 
Q 1356 997 1212 845 
Q 1069 694 975 541 
L 3222 541 
z
" transform="scale(0.015625)"/>
       </defs>
       <use xlink:href="#ArialMT-32"/>
       <use xlink:href="#ArialMT-30" x="55.615234"/>
       <use xlink:href="#ArialMT-30" x="111.230469"/>
       <use xlink:href="#ArialMT-78" x="166.845703"/>
       <use xlink:href="#ArialMT-32" x="216.845703"/>
       <use xlink:href="#ArialMT-30" x="272.460938"/>
       <use xlink:href="#ArialMT-30" x="328.076172"/>
      </g>
     </g>
    </g>
    <g id="xtick_4">
     <g id="line2d_4">
      <path d="M 300.491899 457.493125 
L 300.491899 13.39162 
" clip-path="url(#pd94c33c356)" style="fill: none; stroke: #ffffff; stroke-linecap: round"/>
     </g>
     <g id="text_4">
      <!-- 300x300 -->
      <g style="fill: #262626" transform="translate(279.390805 474.866719)scale(0.11 -0.11)">
       <defs>
        <path id="ArialMT-33" d="M 269 1209 
L 831 1284 
Q 928 806 1161 595 
Q 1394 384 1728 384 
Q 2125 384 2398 659 
Q 2672 934 2672 1341 
Q 2672 1728 2419 1979 
Q 2166 2231 1775 2231 
Q 1616 2231 1378 2169 
L 1441 2663 
Q 1497 2656 1531 2656 
Q 1891 2656 2178 2843 
Q 2466 3031 2466 3422 
Q 2466 3731 2256 3934 
Q 2047 4138 1716 4138 
Q 1388 4138 1169 3931 
Q 950 3725 888 3313 
L 325 3413 
Q 428 3978 793 4289 
Q 1159 4600 1703 4600 
Q 2078 4600 2393 4439 
Q 2709 4278 2876 4000 
Q 3044 3722 3044 3409 
Q 3044 3113 2884 2869 
Q 2725 2625 2413 2481 
Q 2819 2388 3044 2092 
Q 3269 1797 3269 1353 
Q 3269 753 2831 336 
Q 2394 -81 1725 -81 
Q 1122 -81 723 278 
Q 325 638 269 1209 
z
" transform="scale(0.015625)"/>
       </defs>
       <use xlink:href="#ArialMT-33"/>
       <use xlink:href="#ArialMT-30" x="55.615234"/>
       <use xlink:href="#ArialMT-30" x="111.230469"/>
       <use xlink:href="#ArialMT-78" x="166.845703"/>
       <use xlink:href="#ArialMT-33" x="216.845703"/>
       <use xlink:href="#ArialMT-30" x="272.460938"/>
       <use xlink:href="#ArialMT-30" x="328.076172"/>
      </g>
     </g>
    </g>
    <g id="xtick_5">
     <g id="line2d_5">
      <path d="M 380.959847 457.493125 
L 380.959847 13.39162 
" clip-path="url(#pd94c33c356)" style="fill: none; stroke: #ffffff; stroke-linecap: round"/>
     </g>
     <g id="text_5">
      <!-- 400x400 -->
      <g style="fill: #262626" transform="translate(359.858753 474.866719)scale(0.11 -0.11)">
       <defs>
        <path id="ArialMT-34" d="M 2069 0 
L 2069 1097 
L 81 1097 
L 81 1613 
L 2172 4581 
L 2631 4581 
L 2631 1613 
L 3250 1613 
L 3250 1097 
L 2631 1097 
L 2631 0 
L 2069 0 
z
M 2069 1613 
L 2069 3678 
L 634 1613 
L 2069 1613 
z
" transform="scale(0.015625)"/>
       </defs>
       <use xlink:href="#ArialMT-34"/>
       <use xlink:href="#ArialMT-30" x="55.615234"/>
       <use xlink:href="#ArialMT-30" x="111.230469"/>
       <use xlink:href="#ArialMT-78" x="166.845703"/>
       <use xlink:href="#ArialMT-34" x="216.845703"/>
       <use xlink:href="#ArialMT-30" x="272.460938"/>
       <use xlink:href="#ArialMT-30" x="328.076172"/>
      </g>
     </g>
    </g>
    <g id="xtick_6">
     <g id="line2d_6">
      <path d="M 461.427795 457.493125 
L 461.427795 13.39162 
" clip-path="url(#pd94c33c356)" style="fill: none; stroke: #ffffff; stroke-linecap: round"/>
     </g>
     <g id="text_6">
      <!-- 500x500 -->
      <g style="fill: #262626" transform="translate(440.326701 474.866719)scale(0.11 -0.11)">
       <defs>
        <path id="ArialMT-35" d="M 266 1200 
L 856 1250 
Q 922 819 1161 601 
Q 1400 384 1738 384 
Q 2144 384 2425 690 
Q 2706 997 2706 1503 
Q 2706 1984 2436 2262 
Q 2166 2541 1728 2541 
Q 1456 2541 1237 2417 
Q 1019 2294 894 2097 
L 366 2166 
L 809 4519 
L 3088 4519 
L 3088 3981 
L 1259 3981 
L 1013 2750 
Q 1425 3038 1878 3038 
Q 2478 3038 2890 2622 
Q 3303 2206 3303 1553 
Q 3303 931 2941 478 
Q 2500 -78 1738 -78 
Q 1113 -78 717 272 
Q 322 622 266 1200 
z
" transform="scale(0.015625)"/>
       </defs>
       <use xlink:href="#ArialMT-35"/>
       <use xlink:href="#ArialMT-30" x="55.615234"/>
       <use xlink:href="#ArialMT-30" x="111.230469"/>
       <use xlink:href="#ArialMT-78" x="166.845703"/>
       <use xlink:href="#ArialMT-35" x="216.845703"/>
       <use xlink:href="#ArialMT-30" x="272.460938"/>
       <use xlink:href="#ArialMT-30" x="328.076172"/>
      </g>
     </g>
    </g>
    <g id="text_7">
     <!-- Input matrix size -->
     <g style="fill: #262626" transform="translate(227.844375 489.642344)scale(0.12 -0.12)">
      <defs>
       <path id="ArialMT-49" d="M 597 0 
L 597 4581 
L 1203 4581 
L 1203 0 
L 597 0 
z
" transform="scale(0.015625)"/>
       <path id="ArialMT-6e" d="M 422 0 
L 422 3319 
L 928 3319 
L 928 2847 
Q 1294 3394 1984 3394 
Q 2284 3394 2536 3286 
Q 2788 3178 2913 3003 
Q 3038 2828 3088 2588 
Q 3119 2431 3119 2041 
L 3119 0 
L 2556 0 
L 2556 2019 
Q 2556 2363 2490 2533 
Q 2425 2703 2258 2804 
Q 2091 2906 1866 2906 
Q 1506 2906 1245 2678 
Q 984 2450 984 1813 
L 984 0 
L 422 0 
z
" transform="scale(0.015625)"/>
       <path id="ArialMT-70" d="M 422 -1272 
L 422 3319 
L 934 3319 
L 934 2888 
Q 1116 3141 1344 3267 
Q 1572 3394 1897 3394 
Q 2322 3394 2647 3175 
Q 2972 2956 3137 2557 
Q 3303 2159 3303 1684 
Q 3303 1175 3120 767 
Q 2938 359 2589 142 
Q 2241 -75 1856 -75 
Q 1575 -75 1351 44 
Q 1128 163 984 344 
L 984 -1272 
L 422 -1272 
z
M 931 1641 
Q 931 1000 1190 694 
Q 1450 388 1819 388 
Q 2194 388 2461 705 
Q 2728 1022 2728 1688 
Q 2728 2322 2467 2637 
Q 2206 2953 1844 2953 
Q 1484 2953 1207 2617 
Q 931 2281 931 1641 
z
" transform="scale(0.015625)"/>
       <path id="ArialMT-75" d="M 2597 0 
L 2597 488 
Q 2209 -75 1544 -75 
Q 1250 -75 995 37 
Q 741 150 617 320 
Q 494 491 444 738 
Q 409 903 409 1263 
L 409 3319 
L 972 3319 
L 972 1478 
Q 972 1038 1006 884 
Q 1059 663 1231 536 
Q 1403 409 1656 409 
Q 1909 409 2131 539 
Q 2353 669 2445 892 
Q 2538 1116 2538 1541 
L 2538 3319 
L 3100 3319 
L 3100 0 
L 2597 0 
z
" transform="scale(0.015625)"/>
       <path id="ArialMT-74" d="M 1650 503 
L 1731 6 
Q 1494 -44 1306 -44 
Q 1000 -44 831 53 
Q 663 150 594 308 
Q 525 466 525 972 
L 525 2881 
L 113 2881 
L 113 3319 
L 525 3319 
L 525 4141 
L 1084 4478 
L 1084 3319 
L 1650 3319 
L 1650 2881 
L 1084 2881 
L 1084 941 
Q 1084 700 1114 631 
Q 1144 563 1211 522 
Q 1278 481 1403 481 
Q 1497 481 1650 503 
z
" transform="scale(0.015625)"/>
       <path id="ArialMT-20" transform="scale(0.015625)"/>
       <path id="ArialMT-6d" d="M 422 0 
L 422 3319 
L 925 3319 
L 925 2853 
Q 1081 3097 1340 3245 
Q 1600 3394 1931 3394 
Q 2300 3394 2536 3241 
Q 2772 3088 2869 2813 
Q 3263 3394 3894 3394 
Q 4388 3394 4653 3120 
Q 4919 2847 4919 2278 
L 4919 0 
L 4359 0 
L 4359 2091 
Q 4359 2428 4304 2576 
Q 4250 2725 4106 2815 
Q 3963 2906 3769 2906 
Q 3419 2906 3187 2673 
Q 2956 2441 2956 1928 
L 2956 0 
L 2394 0 
L 2394 2156 
Q 2394 2531 2256 2718 
Q 2119 2906 1806 2906 
Q 1569 2906 1367 2781 
Q 1166 2656 1075 2415 
Q 984 2175 984 1722 
L 984 0 
L 422 0 
z
" transform="scale(0.015625)"/>
       <path id="ArialMT-61" d="M 2588 409 
Q 2275 144 1986 34 
Q 1697 -75 1366 -75 
Q 819 -75 525 192 
Q 231 459 231 875 
Q 231 1119 342 1320 
Q 453 1522 633 1644 
Q 813 1766 1038 1828 
Q 1203 1872 1538 1913 
Q 2219 1994 2541 2106 
Q 2544 2222 2544 2253 
Q 2544 2597 2384 2738 
Q 2169 2928 1744 2928 
Q 1347 2928 1158 2789 
Q 969 2650 878 2297 
L 328 2372 
Q 403 2725 575 2942 
Q 747 3159 1072 3276 
Q 1397 3394 1825 3394 
Q 2250 3394 2515 3294 
Q 2781 3194 2906 3042 
Q 3031 2891 3081 2659 
Q 3109 2516 3109 2141 
L 3109 1391 
Q 3109 606 3145 398 
Q 3181 191 3288 0 
L 2700 0 
Q 2613 175 2588 409 
z
M 2541 1666 
Q 2234 1541 1622 1453 
Q 1275 1403 1131 1340 
Q 988 1278 909 1158 
Q 831 1038 831 891 
Q 831 666 1001 516 
Q 1172 366 1500 366 
Q 1825 366 2078 508 
Q 2331 650 2450 897 
Q 2541 1088 2541 1459 
L 2541 1666 
z
" transform="scale(0.015625)"/>
       <path id="ArialMT-72" d="M 416 0 
L 416 3319 
L 922 3319 
L 922 2816 
Q 1116 3169 1280 3281 
Q 1444 3394 1641 3394 
Q 1925 3394 2219 3213 
L 2025 2691 
Q 1819 2813 1613 2813 
Q 1428 2813 1281 2702 
Q 1134 2591 1072 2394 
Q 978 2094 978 1738 
L 978 0 
L 416 0 
z
" transform="scale(0.015625)"/>
       <path id="ArialMT-69" d="M 425 3934 
L 425 4581 
L 988 4581 
L 988 3934 
L 425 3934 
z
M 425 0 
L 425 3319 
L 988 3319 
L 988 0 
L 425 0 
z
" transform="scale(0.015625)"/>
       <path id="ArialMT-73" d="M 197 991 
L 753 1078 
Q 800 744 1014 566 
Q 1228 388 1613 388 
Q 2000 388 2187 545 
Q 2375 703 2375 916 
Q 2375 1106 2209 1216 
Q 2094 1291 1634 1406 
Q 1016 1563 777 1677 
Q 538 1791 414 1992 
Q 291 2194 291 2438 
Q 291 2659 392 2848 
Q 494 3038 669 3163 
Q 800 3259 1026 3326 
Q 1253 3394 1513 3394 
Q 1903 3394 2198 3281 
Q 2494 3169 2634 2976 
Q 2775 2784 2828 2463 
L 2278 2388 
Q 2241 2644 2061 2787 
Q 1881 2931 1553 2931 
Q 1166 2931 1000 2803 
Q 834 2675 834 2503 
Q 834 2394 903 2306 
Q 972 2216 1119 2156 
Q 1203 2125 1616 2013 
Q 2213 1853 2448 1751 
Q 2684 1650 2818 1456 
Q 2953 1263 2953 975 
Q 2953 694 2789 445 
Q 2625 197 2315 61 
Q 2006 -75 1616 -75 
Q 969 -75 630 194 
Q 291 463 197 991 
z
" transform="scale(0.015625)"/>
       <path id="ArialMT-7a" d="M 125 0 
L 125 456 
L 2238 2881 
Q 1878 2863 1603 2863 
L 250 2863 
L 250 3319 
L 2963 3319 
L 2963 2947 
L 1166 841 
L 819 456 
Q 1197 484 1528 484 
L 3063 484 
L 3063 0 
L 125 0 
z
" transform="scale(0.015625)"/>
       <path id="ArialMT-65" d="M 2694 1069 
L 3275 997 
Q 3138 488 2766 206 
Q 2394 -75 1816 -75 
Q 1088 -75 661 373 
Q 234 822 234 1631 
Q 234 2469 665 2931 
Q 1097 3394 1784 3394 
Q 2450 3394 2872 2941 
Q 3294 2488 3294 1666 
Q 3294 1616 3291 1516 
L 816 1516 
Q 847 969 1125 678 
Q 1403 388 1819 388 
Q 2128 388 2347 550 
Q 2566 713 2694 1069 
z
M 847 1978 
L 2700 1978 
Q 2663 2397 2488 2606 
Q 2219 2931 1791 2931 
Q 1403 2931 1139 2672 
Q 875 2413 847 1978 
z
" transform="scale(0.015625)"/>
      </defs>
      <use xlink:href="#ArialMT-49"/>
      <use xlink:href="#ArialMT-6e" x="27.783203"/>
      <use xlink:href="#ArialMT-70" x="83.398438"/>
      <use xlink:href="#ArialMT-75" x="139.013672"/>
      <use xlink:href="#ArialMT-74" x="194.628906"/>
      <use xlink:href="#ArialMT-20" x="222.412109"/>
      <use xlink:href="#ArialMT-6d" x="250.195312"/>
      <use xlink:href="#ArialMT-61" x="333.496094"/>
      <use xlink:href="#ArialMT-74" x="389.111328"/>
      <use xlink:href="#ArialMT-72" x="416.894531"/>
      <use xlink:href="#ArialMT-69" x="450.195312"/>
      <use xlink:href="#ArialMT-78" x="472.412109"/>
      <use xlink:href="#ArialMT-20" x="522.412109"/>
      <use xlink:href="#ArialMT-73" x="550.195312"/>
      <use xlink:href="#ArialMT-69" x="600.195312"/>
      <use xlink:href="#ArialMT-7a" x="622.412109"/>
      <use xlink:href="#ArialMT-65" x="672.412109"/>
     </g>
    </g>
   </g>
   <g id="matplotlib.axis_2">
    <g id="ytick_1">
     <g id="line2d_7">
      <path d="M 52.006875 425.74205 
L 491.04 425.74205 
" clip-path="url(#pd94c33c356)" style="fill: none; stroke: #ffffff; stroke-linecap: round"/>
     </g>
     <g id="text_8">
      <!-- 0.6 -->
      <g style="fill: #262626" transform="translate(27.216875 429.678847)scale(0.11 -0.11)">
       <defs>
        <path id="ArialMT-2e" d="M 581 0 
L 581 641 
L 1222 641 
L 1222 0 
L 581 0 
z
" transform="scale(0.015625)"/>
        <path id="ArialMT-36" d="M 3184 3459 
L 2625 3416 
Q 2550 3747 2413 3897 
Q 2184 4138 1850 4138 
Q 1581 4138 1378 3988 
Q 1113 3794 959 3422 
Q 806 3050 800 2363 
Q 1003 2672 1297 2822 
Q 1591 2972 1913 2972 
Q 2475 2972 2870 2558 
Q 3266 2144 3266 1488 
Q 3266 1056 3080 686 
Q 2894 316 2569 119 
Q 2244 -78 1831 -78 
Q 1128 -78 684 439 
Q 241 956 241 2144 
Q 241 3472 731 4075 
Q 1159 4600 1884 4600 
Q 2425 4600 2770 4297 
Q 3116 3994 3184 3459 
z
M 888 1484 
Q 888 1194 1011 928 
Q 1134 663 1356 523 
Q 1578 384 1822 384 
Q 2178 384 2434 671 
Q 2691 959 2691 1453 
Q 2691 1928 2437 2201 
Q 2184 2475 1800 2475 
Q 1419 2475 1153 2201 
Q 888 1928 888 1484 
z
" transform="scale(0.015625)"/>
       </defs>
       <use xlink:href="#ArialMT-30"/>
       <use xlink:href="#ArialMT-2e" x="55.615234"/>
       <use xlink:href="#ArialMT-36" x="83.398438"/>
      </g>
     </g>
    </g>
    <g id="ytick_2">
     <g id="line2d_8">
      <path d="M 52.006875 374.718824 
L 491.04 374.718824 
" clip-path="url(#pd94c33c356)" style="fill: none; stroke: #ffffff; stroke-linecap: round"/>
     </g>
     <g id="text_9">
      <!-- 0.8 -->
      <g style="fill: #262626" transform="translate(27.216875 378.655621)scale(0.11 -0.11)">
       <defs>
        <path id="ArialMT-38" d="M 1131 2484 
Q 781 2613 612 2850 
Q 444 3088 444 3419 
Q 444 3919 803 4259 
Q 1163 4600 1759 4600 
Q 2359 4600 2725 4251 
Q 3091 3903 3091 3403 
Q 3091 3084 2923 2848 
Q 2756 2613 2416 2484 
Q 2838 2347 3058 2040 
Q 3278 1734 3278 1309 
Q 3278 722 2862 322 
Q 2447 -78 1769 -78 
Q 1091 -78 675 323 
Q 259 725 259 1325 
Q 259 1772 486 2073 
Q 713 2375 1131 2484 
z
M 1019 3438 
Q 1019 3113 1228 2906 
Q 1438 2700 1772 2700 
Q 2097 2700 2305 2904 
Q 2513 3109 2513 3406 
Q 2513 3716 2298 3927 
Q 2084 4138 1766 4138 
Q 1444 4138 1231 3931 
Q 1019 3725 1019 3438 
z
M 838 1322 
Q 838 1081 952 856 
Q 1066 631 1291 507 
Q 1516 384 1775 384 
Q 2178 384 2440 643 
Q 2703 903 2703 1303 
Q 2703 1709 2433 1975 
Q 2163 2241 1756 2241 
Q 1359 2241 1098 1978 
Q 838 1716 838 1322 
z
" transform="scale(0.015625)"/>
       </defs>
       <use xlink:href="#ArialMT-30"/>
       <use xlink:href="#ArialMT-2e" x="55.615234"/>
       <use xlink:href="#ArialMT-38" x="83.398438"/>
      </g>
     </g>
    </g>
    <g id="ytick_3">
     <g id="line2d_9">
      <path d="M 52.006875 323.695599 
L 491.04 323.695599 
" clip-path="url(#pd94c33c356)" style="fill: none; stroke: #ffffff; stroke-linecap: round"/>
     </g>
     <g id="text_10">
      <!-- 1.0 -->
      <g style="fill: #262626" transform="translate(27.216875 327.632395)scale(0.11 -0.11)">
       <use xlink:href="#ArialMT-31"/>
       <use xlink:href="#ArialMT-2e" x="55.615234"/>
       <use xlink:href="#ArialMT-30" x="83.398438"/>
      </g>
     </g>
    </g>
    <g id="ytick_4">
     <g id="line2d_10">
      <path d="M 52.006875 272.672373 
L 491.04 272.672373 
" clip-path="url(#pd94c33c356)" style="fill: none; stroke: #ffffff; stroke-linecap: round"/>
     </g>
     <g id="text_11">
      <!-- 1.2 -->
      <g style="fill: #262626" transform="translate(27.216875 276.60917)scale(0.11 -0.11)">
       <use xlink:href="#ArialMT-31"/>
       <use xlink:href="#ArialMT-2e" x="55.615234"/>
       <use xlink:href="#ArialMT-32" x="83.398438"/>
      </g>
     </g>
    </g>
    <g id="ytick_5">
     <g id="line2d_11">
      <path d="M 52.006875 221.649147 
L 491.04 221.649147 
" clip-path="url(#pd94c33c356)" style="fill: none; stroke: #ffffff; stroke-linecap: round"/>
     </g>
     <g id="text_12">
      <!-- 1.4 -->
      <g style="fill: #262626" transform="translate(27.216875 225.585944)scale(0.11 -0.11)">
       <use xlink:href="#ArialMT-31"/>
       <use xlink:href="#ArialMT-2e" x="55.615234"/>
       <use xlink:href="#ArialMT-34" x="83.398438"/>
      </g>
     </g>
    </g>
    <g id="ytick_6">
     <g id="line2d_12">
      <path d="M 52.006875 170.625922 
L 491.04 170.625922 
" clip-path="url(#pd94c33c356)" style="fill: none; stroke: #ffffff; stroke-linecap: round"/>
     </g>
     <g id="text_13">
      <!-- 1.6 -->
      <g style="fill: #262626" transform="translate(27.216875 174.562718)scale(0.11 -0.11)">
       <use xlink:href="#ArialMT-31"/>
       <use xlink:href="#ArialMT-2e" x="55.615234"/>
       <use xlink:href="#ArialMT-36" x="83.398438"/>
      </g>
     </g>
    </g>
    <g id="ytick_7">
     <g id="line2d_13">
      <path d="M 52.006875 119.602696 
L 491.04 119.602696 
" clip-path="url(#pd94c33c356)" style="fill: none; stroke: #ffffff; stroke-linecap: round"/>
     </g>
     <g id="text_14">
      <!-- 1.8 -->
      <g style="fill: #262626" transform="translate(27.216875 123.539493)scale(0.11 -0.11)">
       <use xlink:href="#ArialMT-31"/>
       <use xlink:href="#ArialMT-2e" x="55.615234"/>
       <use xlink:href="#ArialMT-38" x="83.398438"/>
      </g>
     </g>
    </g>
    <g id="ytick_8">
     <g id="line2d_14">
      <path d="M 52.006875 68.57947 
L 491.04 68.57947 
" clip-path="url(#pd94c33c356)" style="fill: none; stroke: #ffffff; stroke-linecap: round"/>
     </g>
     <g id="text_15">
      <!-- 2.0 -->
      <g style="fill: #262626" transform="translate(27.216875 72.516267)scale(0.11 -0.11)">
       <use xlink:href="#ArialMT-32"/>
       <use xlink:href="#ArialMT-2e" x="55.615234"/>
       <use xlink:href="#ArialMT-30" x="83.398438"/>
      </g>
     </g>
    </g>
    <g id="ytick_9">
     <g id="line2d_15">
      <path d="M 52.006875 17.556245 
L 491.04 17.556245 
" clip-path="url(#pd94c33c356)" style="fill: none; stroke: #ffffff; stroke-linecap: round"/>
     </g>
     <g id="text_16">
      <!-- 2.2 -->
      <g style="fill: #262626" transform="translate(27.216875 21.493041)scale(0.11 -0.11)">
       <use xlink:href="#ArialMT-32"/>
       <use xlink:href="#ArialMT-2e" x="55.615234"/>
       <use xlink:href="#ArialMT-32" x="83.398438"/>
      </g>
     </g>
    </g>
    <g id="text_17">
     <!-- Speedup compared to Warp per shift implementation -->
     <g style="fill: #262626" transform="translate(20.831875 375.615498)rotate(-90)scale(0.12 -0.12)">
      <defs>
       <path id="ArialMT-53" d="M 288 1472 
L 859 1522 
Q 900 1178 1048 958 
Q 1197 738 1509 602 
Q 1822 466 2213 466 
Q 2559 466 2825 569 
Q 3091 672 3220 851 
Q 3350 1031 3350 1244 
Q 3350 1459 3225 1620 
Q 3100 1781 2813 1891 
Q 2628 1963 1997 2114 
Q 1366 2266 1113 2400 
Q 784 2572 623 2826 
Q 463 3081 463 3397 
Q 463 3744 659 4045 
Q 856 4347 1234 4503 
Q 1613 4659 2075 4659 
Q 2584 4659 2973 4495 
Q 3363 4331 3572 4012 
Q 3781 3694 3797 3291 
L 3216 3247 
Q 3169 3681 2898 3903 
Q 2628 4125 2100 4125 
Q 1550 4125 1298 3923 
Q 1047 3722 1047 3438 
Q 1047 3191 1225 3031 
Q 1400 2872 2139 2705 
Q 2878 2538 3153 2413 
Q 3553 2228 3743 1945 
Q 3934 1663 3934 1294 
Q 3934 928 3725 604 
Q 3516 281 3123 101 
Q 2731 -78 2241 -78 
Q 1619 -78 1198 103 
Q 778 284 539 648 
Q 300 1013 288 1472 
z
" transform="scale(0.015625)"/>
       <path id="ArialMT-64" d="M 2575 0 
L 2575 419 
Q 2259 -75 1647 -75 
Q 1250 -75 917 144 
Q 584 363 401 755 
Q 219 1147 219 1656 
Q 219 2153 384 2558 
Q 550 2963 881 3178 
Q 1213 3394 1622 3394 
Q 1922 3394 2156 3267 
Q 2391 3141 2538 2938 
L 2538 4581 
L 3097 4581 
L 3097 0 
L 2575 0 
z
M 797 1656 
Q 797 1019 1065 703 
Q 1334 388 1700 388 
Q 2069 388 2326 689 
Q 2584 991 2584 1609 
Q 2584 2291 2321 2609 
Q 2059 2928 1675 2928 
Q 1300 2928 1048 2622 
Q 797 2316 797 1656 
z
" transform="scale(0.015625)"/>
       <path id="ArialMT-63" d="M 2588 1216 
L 3141 1144 
Q 3050 572 2676 248 
Q 2303 -75 1759 -75 
Q 1078 -75 664 370 
Q 250 816 250 1647 
Q 250 2184 428 2587 
Q 606 2991 970 3192 
Q 1334 3394 1763 3394 
Q 2303 3394 2647 3120 
Q 2991 2847 3088 2344 
L 2541 2259 
Q 2463 2594 2264 2762 
Q 2066 2931 1784 2931 
Q 1359 2931 1093 2626 
Q 828 2322 828 1663 
Q 828 994 1084 691 
Q 1341 388 1753 388 
Q 2084 388 2306 591 
Q 2528 794 2588 1216 
z
" transform="scale(0.015625)"/>
       <path id="ArialMT-6f" d="M 213 1659 
Q 213 2581 725 3025 
Q 1153 3394 1769 3394 
Q 2453 3394 2887 2945 
Q 3322 2497 3322 1706 
Q 3322 1066 3130 698 
Q 2938 331 2570 128 
Q 2203 -75 1769 -75 
Q 1072 -75 642 372 
Q 213 819 213 1659 
z
M 791 1659 
Q 791 1022 1069 705 
Q 1347 388 1769 388 
Q 2188 388 2466 706 
Q 2744 1025 2744 1678 
Q 2744 2294 2464 2611 
Q 2184 2928 1769 2928 
Q 1347 2928 1069 2612 
Q 791 2297 791 1659 
z
" transform="scale(0.015625)"/>
       <path id="ArialMT-57" d="M 1294 0 
L 78 4581 
L 700 4581 
L 1397 1578 
Q 1509 1106 1591 641 
Q 1766 1375 1797 1488 
L 2669 4581 
L 3400 4581 
L 4056 2263 
Q 4303 1400 4413 641 
Q 4500 1075 4641 1638 
L 5359 4581 
L 5969 4581 
L 4713 0 
L 4128 0 
L 3163 3491 
Q 3041 3928 3019 4028 
Q 2947 3713 2884 3491 
L 1913 0 
L 1294 0 
z
" transform="scale(0.015625)"/>
       <path id="ArialMT-68" d="M 422 0 
L 422 4581 
L 984 4581 
L 984 2938 
Q 1378 3394 1978 3394 
Q 2347 3394 2619 3248 
Q 2891 3103 3008 2847 
Q 3125 2591 3125 2103 
L 3125 0 
L 2563 0 
L 2563 2103 
Q 2563 2525 2380 2717 
Q 2197 2909 1863 2909 
Q 1613 2909 1392 2779 
Q 1172 2650 1078 2428 
Q 984 2206 984 1816 
L 984 0 
L 422 0 
z
" transform="scale(0.015625)"/>
       <path id="ArialMT-66" d="M 556 0 
L 556 2881 
L 59 2881 
L 59 3319 
L 556 3319 
L 556 3672 
Q 556 4006 616 4169 
Q 697 4388 901 4523 
Q 1106 4659 1475 4659 
Q 1713 4659 2000 4603 
L 1916 4113 
Q 1741 4144 1584 4144 
Q 1328 4144 1222 4034 
Q 1116 3925 1116 3625 
L 1116 3319 
L 1763 3319 
L 1763 2881 
L 1116 2881 
L 1116 0 
L 556 0 
z
" transform="scale(0.015625)"/>
       <path id="ArialMT-6c" d="M 409 0 
L 409 4581 
L 972 4581 
L 972 0 
L 409 0 
z
" transform="scale(0.015625)"/>
      </defs>
      <use xlink:href="#ArialMT-53"/>
      <use xlink:href="#ArialMT-70" x="66.699219"/>
      <use xlink:href="#ArialMT-65" x="122.314453"/>
      <use xlink:href="#ArialMT-65" x="177.929688"/>
      <use xlink:href="#ArialMT-64" x="233.544922"/>
      <use xlink:href="#ArialMT-75" x="289.160156"/>
      <use xlink:href="#ArialMT-70" x="344.775391"/>
      <use xlink:href="#ArialMT-20" x="400.390625"/>
      <use xlink:href="#ArialMT-63" x="428.173828"/>
      <use xlink:href="#ArialMT-6f" x="478.173828"/>
      <use xlink:href="#ArialMT-6d" x="533.789062"/>
      <use xlink:href="#ArialMT-70" x="617.089844"/>
      <use xlink:href="#ArialMT-61" x="672.705078"/>
      <use xlink:href="#ArialMT-72" x="728.320312"/>
      <use xlink:href="#ArialMT-65" x="761.621094"/>
      <use xlink:href="#ArialMT-64" x="817.236328"/>
      <use xlink:href="#ArialMT-20" x="872.851562"/>
      <use xlink:href="#ArialMT-74" x="900.634766"/>
      <use xlink:href="#ArialMT-6f" x="928.417969"/>
      <use xlink:href="#ArialMT-20" x="984.033203"/>
      <use xlink:href="#ArialMT-57" x="1011.816406"/>
      <use xlink:href="#ArialMT-61" x="1102.451172"/>
      <use xlink:href="#ArialMT-72" x="1158.066406"/>
      <use xlink:href="#ArialMT-70" x="1191.367188"/>
      <use xlink:href="#ArialMT-20" x="1246.982422"/>
      <use xlink:href="#ArialMT-70" x="1274.765625"/>
      <use xlink:href="#ArialMT-65" x="1330.380859"/>
      <use xlink:href="#ArialMT-72" x="1385.996094"/>
      <use xlink:href="#ArialMT-20" x="1419.296875"/>
      <use xlink:href="#ArialMT-73" x="1447.080078"/>
      <use xlink:href="#ArialMT-68" x="1497.080078"/>
      <use xlink:href="#ArialMT-69" x="1552.695312"/>
      <use xlink:href="#ArialMT-66" x="1574.912109"/>
      <use xlink:href="#ArialMT-74" x="1602.695312"/>
      <use xlink:href="#ArialMT-20" x="1630.478516"/>
      <use xlink:href="#ArialMT-69" x="1658.261719"/>
      <use xlink:href="#ArialMT-6d" x="1680.478516"/>
      <use xlink:href="#ArialMT-70" x="1763.779297"/>
      <use xlink:href="#ArialMT-6c" x="1819.394531"/>
      <use xlink:href="#ArialMT-65" x="1841.611328"/>
      <use xlink:href="#ArialMT-6d" x="1897.226562"/>
      <use xlink:href="#ArialMT-65" x="1980.527344"/>
      <use xlink:href="#ArialMT-6e" x="2036.142578"/>
      <use xlink:href="#ArialMT-74" x="2091.757812"/>
      <use xlink:href="#ArialMT-61" x="2119.541016"/>
      <use xlink:href="#ArialMT-74" x="2175.15625"/>
      <use xlink:href="#ArialMT-69" x="2202.939453"/>
      <use xlink:href="#ArialMT-6f" x="2225.15625"/>
      <use xlink:href="#ArialMT-6e" x="2280.771484"/>
     </g>
    </g>
   </g>
   <g id="line2d_16">
    <path d="M 71.962926 366.901907 
L 84.837798 371.276638 
L 110.587541 342.411146 
L 136.337285 357.606054 
L 162.087028 360.223388 
L 187.836771 360.351282 
L 213.586515 362.398494 
L 239.336258 367.082238 
L 265.086002 369.03942 
L 290.835745 370.781763 
L 316.585488 372.583642 
L 342.335232 373.415704 
L 368.084975 374.717112 
L 393.834719 375.131993 
L 419.584462 375.512637 
L 445.334205 376.577647 
L 471.083949 376.93446 
" clip-path="url(#pd94c33c356)" style="fill: none; stroke: #4c72b0; stroke-width: 1.5; stroke-linecap: round"/>
    <defs>
     <path id="m86b4da14db" d="M 0 3 
C 0.795609 3 1.55874 2.683901 2.12132 2.12132 
C 2.683901 1.55874 3 0.795609 3 0 
C 3 -0.795609 2.683901 -1.55874 2.12132 -2.12132 
C 1.55874 -2.683901 0.795609 -3 0 -3 
C -0.795609 -3 -1.55874 -2.683901 -2.12132 -2.12132 
C -2.683901 -1.55874 -3 -0.795609 -3 0 
C -3 0.795609 -2.683901 1.55874 -2.12132 2.12132 
C -1.55874 2.683901 -0.795609 3 0 3 
z
" style="stroke: #ffffff; stroke-width: 0.75"/>
    </defs>
    <g clip-path="url(#pd94c33c356)">
     <use xlink:href="#m86b4da14db" x="71.962926" y="366.901907" style="fill: #4c72b0; stroke: #ffffff; stroke-width: 0.75"/>
     <use xlink:href="#m86b4da14db" x="84.837798" y="371.276638" style="fill: #4c72b0; stroke: #ffffff; stroke-width: 0.75"/>
     <use xlink:href="#m86b4da14db" x="110.587541" y="342.411146" style="fill: #4c72b0; stroke: #ffffff; stroke-width: 0.75"/>
     <use xlink:href="#m86b4da14db" x="136.337285" y="357.606054" style="fill: #4c72b0; stroke: #ffffff; stroke-width: 0.75"/>
     <use xlink:href="#m86b4da14db" x="162.087028" y="360.223388" style="fill: #4c72b0; stroke: #ffffff; stroke-width: 0.75"/>
     <use xlink:href="#m86b4da14db" x="187.836771" y="360.351282" style="fill: #4c72b0; stroke: #ffffff; stroke-width: 0.75"/>
     <use xlink:href="#m86b4da14db" x="213.586515" y="362.398494" style="fill: #4c72b0; stroke: #ffffff; stroke-width: 0.75"/>
     <use xlink:href="#m86b4da14db" x="239.336258" y="367.082238" style="fill: #4c72b0; stroke: #ffffff; stroke-width: 0.75"/>
     <use xlink:href="#m86b4da14db" x="265.086002" y="369.03942" style="fill: #4c72b0; stroke: #ffffff; stroke-width: 0.75"/>
     <use xlink:href="#m86b4da14db" x="290.835745" y="370.781763" style="fill: #4c72b0; stroke: #ffffff; stroke-width: 0.75"/>
     <use xlink:href="#m86b4da14db" x="316.585488" y="372.583642" style="fill: #4c72b0; stroke: #ffffff; stroke-width: 0.75"/>
     <use xlink:href="#m86b4da14db" x="342.335232" y="373.415704" style="fill: #4c72b0; stroke: #ffffff; stroke-width: 0.75"/>
     <use xlink:href="#m86b4da14db" x="368.084975" y="374.717112" style="fill: #4c72b0; stroke: #ffffff; stroke-width: 0.75"/>
     <use xlink:href="#m86b4da14db" x="393.834719" y="375.131993" style="fill: #4c72b0; stroke: #ffffff; stroke-width: 0.75"/>
     <use xlink:href="#m86b4da14db" x="419.584462" y="375.512637" style="fill: #4c72b0; stroke: #ffffff; stroke-width: 0.75"/>
     <use xlink:href="#m86b4da14db" x="445.334205" y="376.577647" style="fill: #4c72b0; stroke: #ffffff; stroke-width: 0.75"/>
     <use xlink:href="#m86b4da14db" x="471.083949" y="376.93446" style="fill: #4c72b0; stroke: #ffffff; stroke-width: 0.75"/>
    </g>
   </g>
   <g id="line2d_17">
    <path d="M 71.962926 323.695599 
L 84.837798 323.695599 
L 110.587541 323.695599 
L 136.337285 323.695599 
L 162.087028 323.695599 
L 187.836771 323.695599 
L 213.586515 323.695599 
L 239.336258 323.695599 
L 265.086002 323.695599 
L 290.835745 323.695599 
L 316.585488 323.695599 
L 342.335232 323.695599 
L 368.084975 323.695599 
L 393.834719 323.695599 
L 419.584462 323.695599 
L 445.334205 323.695599 
L 471.083949 323.695599 
" clip-path="url(#pd94c33c356)" style="fill: none; stroke: #dd8452; stroke-width: 1.5; stroke-linecap: round"/>
    <defs>
     <path id="mbd9ee29e0e" d="M 0 3 
C 0.795609 3 1.55874 2.683901 2.12132 2.12132 
C 2.683901 1.55874 3 0.795609 3 0 
C 3 -0.795609 2.683901 -1.55874 2.12132 -2.12132 
C 1.55874 -2.683901 0.795609 -3 0 -3 
C -0.795609 -3 -1.55874 -2.683901 -2.12132 -2.12132 
C -2.683901 -1.55874 -3 -0.795609 -3 0 
C -3 0.795609 -2.683901 1.55874 -2.12132 2.12132 
C -1.55874 2.683901 -0.795609 3 0 3 
z
" style="stroke: #ffffff; stroke-width: 0.75"/>
    </defs>
    <g clip-path="url(#pd94c33c356)">
     <use xlink:href="#mbd9ee29e0e" x="71.962926" y="323.695599" style="fill: #dd8452; stroke: #ffffff; stroke-width: 0.75"/>
     <use xlink:href="#mbd9ee29e0e" x="84.837798" y="323.695599" style="fill: #dd8452; stroke: #ffffff; stroke-width: 0.75"/>
     <use xlink:href="#mbd9ee29e0e" x="110.587541" y="323.695599" style="fill: #dd8452; stroke: #ffffff; stroke-width: 0.75"/>
     <use xlink:href="#mbd9ee29e0e" x="136.337285" y="323.695599" style="fill: #dd8452; stroke: #ffffff; stroke-width: 0.75"/>
     <use xlink:href="#mbd9ee29e0e" x="162.087028" y="323.695599" style="fill: #dd8452; stroke: #ffffff; stroke-width: 0.75"/>
     <use xlink:href="#mbd9ee29e0e" x="187.836771" y="323.695599" style="fill: #dd8452; stroke: #ffffff; stroke-width: 0.75"/>
     <use xlink:href="#mbd9ee29e0e" x="213.586515" y="323.695599" style="fill: #dd8452; stroke: #ffffff; stroke-width: 0.75"/>
     <use xlink:href="#mbd9ee29e0e" x="239.336258" y="323.695599" style="fill: #dd8452; stroke: #ffffff; stroke-width: 0.75"/>
     <use xlink:href="#mbd9ee29e0e" x="265.086002" y="323.695599" style="fill: #dd8452; stroke: #ffffff; stroke-width: 0.75"/>
     <use xlink:href="#mbd9ee29e0e" x="290.835745" y="323.695599" style="fill: #dd8452; stroke: #ffffff; stroke-width: 0.75"/>
     <use xlink:href="#mbd9ee29e0e" x="316.585488" y="323.695599" style="fill: #dd8452; stroke: #ffffff; stroke-width: 0.75"/>
     <use xlink:href="#mbd9ee29e0e" x="342.335232" y="323.695599" style="fill: #dd8452; stroke: #ffffff; stroke-width: 0.75"/>
     <use xlink:href="#mbd9ee29e0e" x="368.084975" y="323.695599" style="fill: #dd8452; stroke: #ffffff; stroke-width: 0.75"/>
     <use xlink:href="#mbd9ee29e0e" x="393.834719" y="323.695599" style="fill: #dd8452; stroke: #ffffff; stroke-width: 0.75"/>
     <use xlink:href="#mbd9ee29e0e" x="419.584462" y="323.695599" style="fill: #dd8452; stroke: #ffffff; stroke-width: 0.75"/>
     <use xlink:href="#mbd9ee29e0e" x="445.334205" y="323.695599" style="fill: #dd8452; stroke: #ffffff; stroke-width: 0.75"/>
     <use xlink:href="#mbd9ee29e0e" x="471.083949" y="323.695599" style="fill: #dd8452; stroke: #ffffff; stroke-width: 0.75"/>
    </g>
   </g>
   <g id="line2d_18">
    <path d="M 71.962926 376.829112 
L 84.837798 372.029765 
L 110.587541 289.842017 
L 136.337285 243.133736 
L 162.087028 201.333942 
L 187.836771 162.251561 
L 213.586515 131.875929 
L 239.336258 106.676828 
L 265.086002 87.800187 
L 290.835745 82.883972 
L 316.585488 74.843471 
L 342.335232 66.810447 
L 368.084975 59.182787 
L 393.834719 51.48678 
L 419.584462 45.189168 
L 445.334205 39.216989 
L 471.083949 33.578052 
" clip-path="url(#pd94c33c356)" style="fill: none; stroke: #55a868; stroke-width: 1.5; stroke-linecap: round"/>
    <defs>
     <path id="mbd9239a428" d="M 0 3 
C 0.795609 3 1.55874 2.683901 2.12132 2.12132 
C 2.683901 1.55874 3 0.795609 3 0 
C 3 -0.795609 2.683901 -1.55874 2.12132 -2.12132 
C 1.55874 -2.683901 0.795609 -3 0 -3 
C -0.795609 -3 -1.55874 -2.683901 -2.12132 -2.12132 
C -2.683901 -1.55874 -3 -0.795609 -3 0 
C -3 0.795609 -2.683901 1.55874 -2.12132 2.12132 
C -1.55874 2.683901 -0.795609 3 0 3 
z
" style="stroke: #ffffff; stroke-width: 0.75"/>
    </defs>
    <g clip-path="url(#pd94c33c356)">
     <use xlink:href="#mbd9239a428" x="71.962926" y="376.829112" style="fill: #55a868; stroke: #ffffff; stroke-width: 0.75"/>
     <use xlink:href="#mbd9239a428" x="84.837798" y="372.029765" style="fill: #55a868; stroke: #ffffff; stroke-width: 0.75"/>
     <use xlink:href="#mbd9239a428" x="110.587541" y="289.842017" style="fill: #55a868; stroke: #ffffff; stroke-width: 0.75"/>
     <use xlink:href="#mbd9239a428" x="136.337285" y="243.133736" style="fill: #55a868; stroke: #ffffff; stroke-width: 0.75"/>
     <use xlink:href="#mbd9239a428" x="162.087028" y="201.333942" style="fill: #55a868; stroke: #ffffff; stroke-width: 0.75"/>
     <use xlink:href="#mbd9239a428" x="187.836771" y="162.251561" style="fill: #55a868; stroke: #ffffff; stroke-width: 0.75"/>
     <use xlink:href="#mbd9239a428" x="213.586515" y="131.875929" style="fill: #55a868; stroke: #ffffff; stroke-width: 0.75"/>
     <use xlink:href="#mbd9239a428" x="239.336258" y="106.676828" style="fill: #55a868; stroke: #ffffff; stroke-width: 0.75"/>
     <use xlink:href="#mbd9239a428" x="265.086002" y="87.800187" style="fill: #55a868; stroke: #ffffff; stroke-width: 0.75"/>
     <use xlink:href="#mbd9239a428" x="290.835745" y="82.883972" style="fill: #55a868; stroke: #ffffff; stroke-width: 0.75"/>
     <use xlink:href="#mbd9239a428" x="316.585488" y="74.843471" style="fill: #55a868; stroke: #ffffff; stroke-width: 0.75"/>
     <use xlink:href="#mbd9239a428" x="342.335232" y="66.810447" style="fill: #55a868; stroke: #ffffff; stroke-width: 0.75"/>
     <use xlink:href="#mbd9239a428" x="368.084975" y="59.182787" style="fill: #55a868; stroke: #ffffff; stroke-width: 0.75"/>
     <use xlink:href="#mbd9239a428" x="393.834719" y="51.48678" style="fill: #55a868; stroke: #ffffff; stroke-width: 0.75"/>
     <use xlink:href="#mbd9239a428" x="419.584462" y="45.189168" style="fill: #55a868; stroke: #ffffff; stroke-width: 0.75"/>
     <use xlink:href="#mbd9239a428" x="445.334205" y="39.216989" style="fill: #55a868; stroke: #ffffff; stroke-width: 0.75"/>
     <use xlink:href="#mbd9239a428" x="471.083949" y="33.578052" style="fill: #55a868; stroke: #ffffff; stroke-width: 0.75"/>
    </g>
   </g>
   <g id="line2d_19">
    <path d="M 71.962926 412.242941 
L 84.837798 437.306693 
L 110.587541 415.328059 
L 136.337285 414.667964 
L 162.087028 406.955287 
L 187.836771 398.339203 
L 213.586515 392.719033 
L 239.336258 386.736687 
L 265.086002 382.045681 
L 290.835745 378.026035 
L 316.585488 374.787261 
L 342.335232 372.172927 
L 368.084975 369.907281 
L 393.834719 367.638091 
L 419.584462 365.71176 
L 445.334205 364.155986 
L 471.083949 362.890381 
" clip-path="url(#pd94c33c356)" style="fill: none; stroke: #c44e52; stroke-width: 1.5; stroke-linecap: round"/>
    <defs>
     <path id="m49e63462f9" d="M 0 3 
C 0.795609 3 1.55874 2.683901 2.12132 2.12132 
C 2.683901 1.55874 3 0.795609 3 0 
C 3 -0.795609 2.683901 -1.55874 2.12132 -2.12132 
C 1.55874 -2.683901 0.795609 -3 0 -3 
C -0.795609 -3 -1.55874 -2.683901 -2.12132 -2.12132 
C -2.683901 -1.55874 -3 -0.795609 -3 0 
C -3 0.795609 -2.683901 1.55874 -2.12132 2.12132 
C -1.55874 2.683901 -0.795609 3 0 3 
z
" style="stroke: #ffffff; stroke-width: 0.75"/>
    </defs>
    <g clip-path="url(#pd94c33c356)">
     <use xlink:href="#m49e63462f9" x="71.962926" y="412.242941" style="fill: #c44e52; stroke: #ffffff; stroke-width: 0.75"/>
     <use xlink:href="#m49e63462f9" x="84.837798" y="437.306693" style="fill: #c44e52; stroke: #ffffff; stroke-width: 0.75"/>
     <use xlink:href="#m49e63462f9" x="110.587541" y="415.328059" style="fill: #c44e52; stroke: #ffffff; stroke-width: 0.75"/>
     <use xlink:href="#m49e63462f9" x="136.337285" y="414.667964" style="fill: #c44e52; stroke: #ffffff; stroke-width: 0.75"/>
     <use xlink:href="#m49e63462f9" x="162.087028" y="406.955287" style="fill: #c44e52; stroke: #ffffff; stroke-width: 0.75"/>
     <use xlink:href="#m49e63462f9" x="187.836771" y="398.339203" style="fill: #c44e52; stroke: #ffffff; stroke-width: 0.75"/>
     <use xlink:href="#m49e63462f9" x="213.586515" y="392.719033" style="fill: #c44e52; stroke: #ffffff; stroke-width: 0.75"/>
     <use xlink:href="#m49e63462f9" x="239.336258" y="386.736687" style="fill: #c44e52; stroke: #ffffff; stroke-width: 0.75"/>
     <use xlink:href="#m49e63462f9" x="265.086002" y="382.045681" style="fill: #c44e52; stroke: #ffffff; stroke-width: 0.75"/>
     <use xlink:href="#m49e63462f9" x="290.835745" y="378.026035" style="fill: #c44e52; stroke: #ffffff; stroke-width: 0.75"/>
     <use xlink:href="#m49e63462f9" x="316.585488" y="374.787261" style="fill: #c44e52; stroke: #ffffff; stroke-width: 0.75"/>
     <use xlink:href="#m49e63462f9" x="342.335232" y="372.172927" style="fill: #c44e52; stroke: #ffffff; stroke-width: 0.75"/>
     <use xlink:href="#m49e63462f9" x="368.084975" y="369.907281" style="fill: #c44e52; stroke: #ffffff; stroke-width: 0.75"/>
     <use xlink:href="#m49e63462f9" x="393.834719" y="367.638091" style="fill: #c44e52; stroke: #ffffff; stroke-width: 0.75"/>
     <use xlink:href="#m49e63462f9" x="419.584462" y="365.71176" style="fill: #c44e52; stroke: #ffffff; stroke-width: 0.75"/>
     <use xlink:href="#m49e63462f9" x="445.334205" y="364.155986" style="fill: #c44e52; stroke: #ffffff; stroke-width: 0.75"/>
     <use xlink:href="#m49e63462f9" x="471.083949" y="362.890381" style="fill: #c44e52; stroke: #ffffff; stroke-width: 0.75"/>
    </g>
   </g>
   <g id="line2d_20"/>
   <g id="line2d_21"/>
   <g id="line2d_22"/>
   <g id="line2d_23"/>
   <g id="patch_3">
    <path d="M 52.006875 457.493125 
L 52.006875 13.39162 
" style="fill: none; stroke: #ffffff; stroke-width: 1.25; stroke-linejoin: miter; stroke-linecap: square"/>
   </g>
   <g id="patch_4">
    <path d="M 491.04 457.493125 
L 491.04 13.39162 
" style="fill: none; stroke: #ffffff; stroke-width: 1.25; stroke-linejoin: miter; stroke-linecap: square"/>
   </g>
   <g id="patch_5">
    <path d="M 52.006875 457.493125 
L 491.04 457.493125 
" style="fill: none; stroke: #ffffff; stroke-width: 1.25; stroke-linejoin: miter; stroke-linecap: square"/>
   </g>
   <g id="patch_6">
    <path d="M 52.006875 13.39162 
L 491.04 13.39162 
" style="fill: none; stroke: #ffffff; stroke-width: 1.25; stroke-linejoin: miter; stroke-linecap: square"/>
   </g>
   <g id="legend_1">
    <g id="patch_7">
     <path d="M 274.946719 276.781826 
L 483.34 276.781826 
Q 485.54 276.781826 485.54 274.581826 
L 485.54 196.302919 
Q 485.54 194.102919 483.34 194.102919 
L 274.946719 194.102919 
Q 272.746719 194.102919 272.746719 196.302919 
L 272.746719 274.581826 
Q 272.746719 276.781826 274.946719 276.781826 
z
" style="fill: #eaeaf2; opacity: 0.8; stroke: #cccccc; stroke-linejoin: miter"/>
    </g>
    <g id="text_18">
     <!-- Implementation -->
     <g style="fill: #262626" transform="translate(338.124922 207.092294)scale(0.12 -0.12)">
      <use xlink:href="#ArialMT-49"/>
      <use xlink:href="#ArialMT-6d" x="27.783203"/>
      <use xlink:href="#ArialMT-70" x="111.083984"/>
      <use xlink:href="#ArialMT-6c" x="166.699219"/>
      <use xlink:href="#ArialMT-65" x="188.916016"/>
      <use xlink:href="#ArialMT-6d" x="244.53125"/>
      <use xlink:href="#ArialMT-65" x="327.832031"/>
      <use xlink:href="#ArialMT-6e" x="383.447266"/>
      <use xlink:href="#ArialMT-74" x="439.0625"/>
      <use xlink:href="#ArialMT-61" x="466.845703"/>
      <use xlink:href="#ArialMT-74" x="522.460938"/>
      <use xlink:href="#ArialMT-69" x="550.244141"/>
      <use xlink:href="#ArialMT-6f" x="572.460938"/>
      <use xlink:href="#ArialMT-6e" x="628.076172"/>
     </g>
    </g>
    <g id="line2d_24">
     <path d="M 277.146719 219.134951 
L 288.146719 219.134951 
L 299.146719 219.134951 
" style="fill: none; stroke: #4c72b0; stroke-width: 1.5; stroke-linecap: round"/>
    </g>
    <g id="text_19">
     <!-- Block per shift -->
     <g style="fill: #262626" transform="translate(307.946719 222.984951)scale(0.11 -0.11)">
      <defs>
       <path id="ArialMT-42" d="M 469 0 
L 469 4581 
L 2188 4581 
Q 2713 4581 3030 4442 
Q 3347 4303 3526 4014 
Q 3706 3725 3706 3409 
Q 3706 3116 3547 2856 
Q 3388 2597 3066 2438 
Q 3481 2316 3704 2022 
Q 3928 1728 3928 1328 
Q 3928 1006 3792 729 
Q 3656 453 3456 303 
Q 3256 153 2954 76 
Q 2653 0 2216 0 
L 469 0 
z
M 1075 2656 
L 2066 2656 
Q 2469 2656 2644 2709 
Q 2875 2778 2992 2937 
Q 3109 3097 3109 3338 
Q 3109 3566 3000 3739 
Q 2891 3913 2687 3977 
Q 2484 4041 1991 4041 
L 1075 4041 
L 1075 2656 
z
M 1075 541 
L 2216 541 
Q 2509 541 2628 563 
Q 2838 600 2978 687 
Q 3119 775 3209 942 
Q 3300 1109 3300 1328 
Q 3300 1584 3169 1773 
Q 3038 1963 2805 2039 
Q 2572 2116 2134 2116 
L 1075 2116 
L 1075 541 
z
" transform="scale(0.015625)"/>
       <path id="ArialMT-6b" d="M 425 0 
L 425 4581 
L 988 4581 
L 988 1969 
L 2319 3319 
L 3047 3319 
L 1778 2088 
L 3175 0 
L 2481 0 
L 1384 1697 
L 988 1316 
L 988 0 
L 425 0 
z
" transform="scale(0.015625)"/>
      </defs>
      <use xlink:href="#ArialMT-42"/>
      <use xlink:href="#ArialMT-6c" x="66.699219"/>
      <use xlink:href="#ArialMT-6f" x="88.916016"/>
      <use xlink:href="#ArialMT-63" x="144.53125"/>
      <use xlink:href="#ArialMT-6b" x="194.53125"/>
      <use xlink:href="#ArialMT-20" x="244.53125"/>
      <use xlink:href="#ArialMT-70" x="272.314453"/>
      <use xlink:href="#ArialMT-65" x="327.929688"/>
      <use xlink:href="#ArialMT-72" x="383.544922"/>
      <use xlink:href="#ArialMT-20" x="416.845703"/>
      <use xlink:href="#ArialMT-73" x="444.628906"/>
      <use xlink:href="#ArialMT-68" x="494.628906"/>
      <use xlink:href="#ArialMT-69" x="550.244141"/>
      <use xlink:href="#ArialMT-66" x="572.460938"/>
      <use xlink:href="#ArialMT-74" x="600.244141"/>
     </g>
    </g>
    <g id="line2d_25">
     <path d="M 277.146719 234.828857 
L 288.146719 234.828857 
L 299.146719 234.828857 
" style="fill: none; stroke: #dd8452; stroke-width: 1.5; stroke-linecap: round"/>
    </g>
    <g id="text_20">
     <!-- Warp per shift -->
     <g style="fill: #262626" transform="translate(307.946719 238.678857)scale(0.11 -0.11)">
      <use xlink:href="#ArialMT-57"/>
      <use xlink:href="#ArialMT-61" x="90.634766"/>
      <use xlink:href="#ArialMT-72" x="146.25"/>
      <use xlink:href="#ArialMT-70" x="179.550781"/>
      <use xlink:href="#ArialMT-20" x="235.166016"/>
      <use xlink:href="#ArialMT-70" x="262.949219"/>
      <use xlink:href="#ArialMT-65" x="318.564453"/>
      <use xlink:href="#ArialMT-72" x="374.179688"/>
      <use xlink:href="#ArialMT-20" x="407.480469"/>
      <use xlink:href="#ArialMT-73" x="435.263672"/>
      <use xlink:href="#ArialMT-68" x="485.263672"/>
      <use xlink:href="#ArialMT-69" x="540.878906"/>
      <use xlink:href="#ArialMT-66" x="563.095703"/>
      <use xlink:href="#ArialMT-74" x="590.878906"/>
     </g>
    </g>
    <g id="line2d_26">
     <path d="M 277.146719 250.522763 
L 288.146719 250.522763 
L 299.146719 250.522763 
" style="fill: none; stroke: #55a868; stroke-width: 1.5; stroke-linecap: round"/>
    </g>
    <g id="text_21">
     <!-- Warp per shift with shared memory -->
     <g style="fill: #262626" transform="translate(307.946719 254.372763)scale(0.11 -0.11)">
      <defs>
       <path id="ArialMT-77" d="M 1034 0 
L 19 3319 
L 600 3319 
L 1128 1403 
L 1325 691 
Q 1338 744 1497 1375 
L 2025 3319 
L 2603 3319 
L 3100 1394 
L 3266 759 
L 3456 1400 
L 4025 3319 
L 4572 3319 
L 3534 0 
L 2950 0 
L 2422 1988 
L 2294 2553 
L 1622 0 
L 1034 0 
z
" transform="scale(0.015625)"/>
       <path id="ArialMT-79" d="M 397 -1278 
L 334 -750 
Q 519 -800 656 -800 
Q 844 -800 956 -737 
Q 1069 -675 1141 -563 
Q 1194 -478 1313 -144 
Q 1328 -97 1363 -6 
L 103 3319 
L 709 3319 
L 1400 1397 
Q 1534 1031 1641 628 
Q 1738 1016 1872 1384 
L 2581 3319 
L 3144 3319 
L 1881 -56 
Q 1678 -603 1566 -809 
Q 1416 -1088 1222 -1217 
Q 1028 -1347 759 -1347 
Q 597 -1347 397 -1278 
z
" transform="scale(0.015625)"/>
      </defs>
      <use xlink:href="#ArialMT-57"/>
      <use xlink:href="#ArialMT-61" x="90.634766"/>
      <use xlink:href="#ArialMT-72" x="146.25"/>
      <use xlink:href="#ArialMT-70" x="179.550781"/>
      <use xlink:href="#ArialMT-20" x="235.166016"/>
      <use xlink:href="#ArialMT-70" x="262.949219"/>
      <use xlink:href="#ArialMT-65" x="318.564453"/>
      <use xlink:href="#ArialMT-72" x="374.179688"/>
      <use xlink:href="#ArialMT-20" x="407.480469"/>
      <use xlink:href="#ArialMT-73" x="435.263672"/>
      <use xlink:href="#ArialMT-68" x="485.263672"/>
      <use xlink:href="#ArialMT-69" x="540.878906"/>
      <use xlink:href="#ArialMT-66" x="563.095703"/>
      <use xlink:href="#ArialMT-74" x="590.878906"/>
      <use xlink:href="#ArialMT-20" x="618.662109"/>
      <use xlink:href="#ArialMT-77" x="646.445312"/>
      <use xlink:href="#ArialMT-69" x="718.662109"/>
      <use xlink:href="#ArialMT-74" x="740.878906"/>
      <use xlink:href="#ArialMT-68" x="768.662109"/>
      <use xlink:href="#ArialMT-20" x="824.277344"/>
      <use xlink:href="#ArialMT-73" x="852.060547"/>
      <use xlink:href="#ArialMT-68" x="902.060547"/>
      <use xlink:href="#ArialMT-61" x="957.675781"/>
      <use xlink:href="#ArialMT-72" x="1013.291016"/>
      <use xlink:href="#ArialMT-65" x="1046.591797"/>
      <use xlink:href="#ArialMT-64" x="1102.207031"/>
      <use xlink:href="#ArialMT-20" x="1157.822266"/>
      <use xlink:href="#ArialMT-6d" x="1185.605469"/>
      <use xlink:href="#ArialMT-65" x="1268.90625"/>
      <use xlink:href="#ArialMT-6d" x="1324.521484"/>
      <use xlink:href="#ArialMT-6f" x="1407.822266"/>
      <use xlink:href="#ArialMT-72" x="1463.4375"/>
      <use xlink:href="#ArialMT-79" x="1496.738281"/>
     </g>
    </g>
    <g id="line2d_27">
     <path d="M 277.146719 266.345576 
L 288.146719 266.345576 
L 299.146719 266.345576 
" style="fill: none; stroke: #c44e52; stroke-width: 1.5; stroke-linecap: round"/>
    </g>
    <g id="text_22">
     <!-- Warp per shift with work distribution -->
     <g style="fill: #262626" transform="translate(307.946719 270.195576)scale(0.11 -0.11)">
      <defs>
       <path id="ArialMT-62" d="M 941 0 
L 419 0 
L 419 4581 
L 981 4581 
L 981 2947 
Q 1338 3394 1891 3394 
Q 2197 3394 2470 3270 
Q 2744 3147 2920 2923 
Q 3097 2700 3197 2384 
Q 3297 2069 3297 1709 
Q 3297 856 2875 390 
Q 2453 -75 1863 -75 
Q 1275 -75 941 416 
L 941 0 
z
M 934 1684 
Q 934 1088 1097 822 
Q 1363 388 1816 388 
Q 2184 388 2453 708 
Q 2722 1028 2722 1663 
Q 2722 2313 2464 2622 
Q 2206 2931 1841 2931 
Q 1472 2931 1203 2611 
Q 934 2291 934 1684 
z
" transform="scale(0.015625)"/>
      </defs>
      <use xlink:href="#ArialMT-57"/>
      <use xlink:href="#ArialMT-61" x="90.634766"/>
      <use xlink:href="#ArialMT-72" x="146.25"/>
      <use xlink:href="#ArialMT-70" x="179.550781"/>
      <use xlink:href="#ArialMT-20" x="235.166016"/>
      <use xlink:href="#ArialMT-70" x="262.949219"/>
      <use xlink:href="#ArialMT-65" x="318.564453"/>
      <use xlink:href="#ArialMT-72" x="374.179688"/>
      <use xlink:href="#ArialMT-20" x="407.480469"/>
      <use xlink:href="#ArialMT-73" x="435.263672"/>
      <use xlink:href="#ArialMT-68" x="485.263672"/>
      <use xlink:href="#ArialMT-69" x="540.878906"/>
      <use xlink:href="#ArialMT-66" x="563.095703"/>
      <use xlink:href="#ArialMT-74" x="590.878906"/>
      <use xlink:href="#ArialMT-20" x="618.662109"/>
      <use xlink:href="#ArialMT-77" x="646.445312"/>
      <use xlink:href="#ArialMT-69" x="718.662109"/>
      <use xlink:href="#ArialMT-74" x="740.878906"/>
      <use xlink:href="#ArialMT-68" x="768.662109"/>
      <use xlink:href="#ArialMT-20" x="824.277344"/>
      <use xlink:href="#ArialMT-77" x="852.060547"/>
      <use xlink:href="#ArialMT-6f" x="924.277344"/>
      <use xlink:href="#ArialMT-72" x="979.892578"/>
      <use xlink:href="#ArialMT-6b" x="1013.193359"/>
      <use xlink:href="#ArialMT-20" x="1063.193359"/>
      <use xlink:href="#ArialMT-64" x="1090.976562"/>
      <use xlink:href="#ArialMT-69" x="1146.591797"/>
      <use xlink:href="#ArialMT-73" x="1168.808594"/>
      <use xlink:href="#ArialMT-74" x="1218.808594"/>
      <use xlink:href="#ArialMT-72" x="1246.591797"/>
      <use xlink:href="#ArialMT-69" x="1279.892578"/>
      <use xlink:href="#ArialMT-62" x="1302.109375"/>
      <use xlink:href="#ArialMT-75" x="1357.724609"/>
      <use xlink:href="#ArialMT-74" x="1413.339844"/>
      <use xlink:href="#ArialMT-69" x="1441.123047"/>
      <use xlink:href="#ArialMT-6f" x="1463.339844"/>
      <use xlink:href="#ArialMT-6e" x="1518.955078"/>
     </g>
    </g>
   </g>
  </g>
 </g>
 <defs>
  <clipPath id="pd94c33c356">
   <rect x="52.006875" y="13.39162" width="439.033125" height="444.101505"/>
  </clipPath>
 </defs>
</svg>
