<?xml version="1.0" encoding="UTF-8"?>
<!DOCTYPE svg PUBLIC "-//W3C//DTD SVG 1.1//EN" "http://www.w3.org/Graphics/SVG/1.1/DTD/svg11.dtd">
<svg xmlns="http://www.w3.org/2000/svg" xmlns:xlink="http://www.w3.org/1999/xlink" version="1.1" width="462px" height="292px" viewBox="-0.5 -0.5 462 292"><defs/><g><rect x="250" y="70" width="10" height="10" fill="#5bafeb" stroke="rgb(0, 0, 0)" pointer-events="all"/><rect x="260" y="70" width="10" height="10" fill="#5bafeb" stroke="rgb(0, 0, 0)" pointer-events="all"/><rect x="270" y="70" width="10" height="10" fill="#5bafeb" stroke="rgb(0, 0, 0)" pointer-events="all"/><rect x="250" y="40" width="10" height="10" fill="#5bafeb" stroke="rgb(0, 0, 0)" pointer-events="all"/><rect x="260" y="40" width="10" height="10" fill="#5bafeb" stroke="rgb(0, 0, 0)" pointer-events="all"/><rect x="270" y="40" width="10" height="10" fill="#5bafeb" stroke="rgb(0, 0, 0)" pointer-events="all"/><rect x="250" y="50" width="10" height="10" fill="#5bafeb" stroke="rgb(0, 0, 0)" pointer-events="all"/><rect x="260" y="50" width="10" height="10" fill="#5bafeb" stroke="rgb(0, 0, 0)" pointer-events="all"/><rect x="270" y="50" width="10" height="10" fill="#5bafeb" stroke="rgb(0, 0, 0)" pointer-events="all"/><rect x="250" y="60" width="10" height="10" fill="#5bafeb" stroke="rgb(0, 0, 0)" pointer-events="all"/><rect x="260" y="60" width="10" height="10" fill="#5bafeb" stroke="rgb(0, 0, 0)" pointer-events="all"/><rect x="270" y="60" width="10" height="10" fill="#5bafeb" stroke="rgb(0, 0, 0)" pointer-events="all"/><rect x="280" y="70" width="10" height="10" fill="#5bafeb" stroke="rgb(0, 0, 0)" pointer-events="all"/><rect x="280" y="40" width="10" height="10" fill="#5bafeb" stroke="rgb(0, 0, 0)" pointer-events="all"/><rect x="280" y="50" width="10" height="10" fill="#5bafeb" stroke="rgb(0, 0, 0)" pointer-events="all"/><rect x="280" y="60" width="10" height="10" fill="#5bafeb" stroke="rgb(0, 0, 0)" pointer-events="all"/><rect x="250" y="90" width="10" height="10" fill="#5bafeb" stroke="rgb(0, 0, 0)" pointer-events="all"/><rect x="260" y="90" width="10" height="10" fill="#5bafeb" stroke="rgb(0, 0, 0)" pointer-events="all"/><rect x="270" y="90" width="10" height="10" fill="#5bafeb" stroke="rgb(0, 0, 0)" pointer-events="all"/><rect x="250" y="100" width="10" height="10" fill="#5bafeb" stroke="rgb(0, 0, 0)" pointer-events="all"/><rect x="260" y="100" width="10" height="10" fill="#5bafeb" stroke="rgb(0, 0, 0)" pointer-events="all"/><rect x="270" y="100" width="10" height="10" fill="#5bafeb" stroke="rgb(0, 0, 0)" pointer-events="all"/><rect x="250" y="110" width="10" height="10" fill="#5bafeb" stroke="rgb(0, 0, 0)" pointer-events="all"/><rect x="260" y="110" width="10" height="10" fill="#5bafeb" stroke="rgb(0, 0, 0)" pointer-events="all"/><rect x="270" y="110" width="10" height="10" fill="#5bafeb" stroke="rgb(0, 0, 0)" pointer-events="all"/><rect x="280" y="90" width="10" height="10" fill="#5bafeb" stroke="rgb(0, 0, 0)" pointer-events="all"/><rect x="280" y="100" width="10" height="10" fill="#5bafeb" stroke="rgb(0, 0, 0)" pointer-events="all"/><rect x="280" y="110" width="10" height="10" fill="#5bafeb" stroke="rgb(0, 0, 0)" pointer-events="all"/><rect x="330" y="40" width="10" height="10" fill="#eb716e" stroke="rgb(0, 0, 0)" pointer-events="all"/><rect x="340" y="40" width="10" height="10" fill="#eb716e" stroke="rgb(0, 0, 0)" pointer-events="all"/><rect x="350" y="40" width="10" height="10" fill="#eb716e" stroke="rgb(0, 0, 0)" pointer-events="all"/><rect x="330" y="50" width="10" height="10" fill="#eb716e" stroke="rgb(0, 0, 0)" pointer-events="all"/><rect x="340" y="50" width="10" height="10" fill="#eb716e" stroke="rgb(0, 0, 0)" pointer-events="all"/><rect x="350" y="50" width="10" height="10" fill="#eb716e" stroke="rgb(0, 0, 0)" pointer-events="all"/><rect x="330" y="60" width="10" height="10" fill="#eb716e" stroke="rgb(0, 0, 0)" pointer-events="all"/><rect x="340" y="60" width="10" height="10" fill="#eb716e" stroke="rgb(0, 0, 0)" pointer-events="all"/><rect x="350" y="60" width="10" height="10" fill="#eb716e" stroke="rgb(0, 0, 0)" pointer-events="all"/><rect x="330" y="70" width="10" height="10" fill="#eb716e" stroke="rgb(0, 0, 0)" pointer-events="all"/><rect x="340" y="70" width="10" height="10" fill="#eb716e" stroke="rgb(0, 0, 0)" pointer-events="all"/><rect x="350" y="70" width="10" height="10" fill="#eb716e" stroke="rgb(0, 0, 0)" pointer-events="all"/><rect x="320" y="40" width="10" height="10" fill="#eb716e" stroke="rgb(0, 0, 0)" pointer-events="all"/><rect x="320" y="50" width="10" height="10" fill="#eb716e" stroke="rgb(0, 0, 0)" pointer-events="all"/><rect x="320" y="60" width="10" height="10" fill="#eb716e" stroke="rgb(0, 0, 0)" pointer-events="all"/><rect x="320" y="70" width="10" height="10" fill="#eb716e" stroke="rgb(0, 0, 0)" pointer-events="all"/><rect x="160" y="110" width="10" height="10" fill="#5bafeb" stroke="rgb(0, 0, 0)" pointer-events="all"/><rect x="170" y="110" width="10" height="10" fill="#5bafeb" stroke="rgb(0, 0, 0)" pointer-events="all"/><rect x="180" y="110" width="10" height="10" fill="#5bafeb" stroke="rgb(0, 0, 0)" pointer-events="all"/><rect x="160" y="80" width="10" height="10" fill="#5bafeb" stroke="rgb(0, 0, 0)" pointer-events="all"/><rect x="170" y="80" width="10" height="10" fill="#ebea44" stroke="rgb(0, 0, 0)" pointer-events="all"/><rect x="180" y="80" width="10" height="10" fill="#ebea44" stroke="rgb(0, 0, 0)" pointer-events="all"/><rect x="160" y="90" width="10" height="10" fill="#5bafeb" stroke="rgb(0, 0, 0)" pointer-events="all"/><rect x="170" y="90" width="10" height="10" fill="#ebea44" stroke="rgb(0, 0, 0)" pointer-events="all"/><rect x="180" y="90" width="10" height="10" fill="#ebea44" stroke="rgb(0, 0, 0)" pointer-events="all"/><rect x="160" y="100" width="10" height="10" fill="#5bafeb" stroke="rgb(0, 0, 0)" pointer-events="all"/><rect x="170" y="100" width="10" height="10" fill="#ebea44" stroke="rgb(0, 0, 0)" pointer-events="all"/><rect x="180" y="100" width="10" height="10" fill="#ebea44" stroke="rgb(0, 0, 0)" pointer-events="all"/><rect x="190" y="110" width="10" height="10" fill="#5bafeb" stroke="rgb(0, 0, 0)" pointer-events="all"/><rect x="200" y="110" width="10" height="10" fill="#5bafeb" stroke="rgb(0, 0, 0)" pointer-events="all"/><rect x="210" y="110" width="10" height="10" fill="#5bafeb" stroke="rgb(0, 0, 0)" pointer-events="all"/><rect x="190" y="80" width="10" height="10" fill="#ebea44" stroke="rgb(0, 0, 0)" pointer-events="all"/><rect x="200" y="80" width="10" height="10" fill="#ebea44" stroke="rgb(0, 0, 0)" pointer-events="all"/><rect x="210" y="80" width="10" height="10" fill="#5bafeb" stroke="rgb(0, 0, 0)" pointer-events="all"/><rect x="190" y="90" width="10" height="10" fill="#ebea44" stroke="rgb(0, 0, 0)" pointer-events="all"/><rect x="200" y="90" width="10" height="10" fill="#ebea44" stroke="rgb(0, 0, 0)" pointer-events="all"/><rect x="210" y="90" width="10" height="10" fill="#5bafeb" stroke="rgb(0, 0, 0)" pointer-events="all"/><rect x="190" y="100" width="10" height="10" fill="#ebea44" stroke="rgb(0, 0, 0)" pointer-events="all"/><rect x="200" y="100" width="10" height="10" fill="#ebea44" stroke="rgb(0, 0, 0)" pointer-events="all"/><rect x="210" y="100" width="10" height="10" fill="#5bafeb" stroke="rgb(0, 0, 0)" pointer-events="all"/><rect x="220" y="110" width="10" height="10" fill="#5bafeb" stroke="rgb(0, 0, 0)" pointer-events="all"/><rect x="220" y="80" width="10" height="10" fill="#5bafeb" stroke="rgb(0, 0, 0)" pointer-events="all"/><rect x="220" y="90" width="10" height="10" fill="#5bafeb" stroke="rgb(0, 0, 0)" pointer-events="all"/><rect x="220" y="100" width="10" height="10" fill="#5bafeb" stroke="rgb(0, 0, 0)" pointer-events="all"/><rect x="150" y="110" width="10" height="10" fill="#5bafeb" stroke="rgb(0, 0, 0)" pointer-events="all"/><rect x="150" y="80" width="10" height="10" fill="#5bafeb" stroke="rgb(0, 0, 0)" pointer-events="all"/><rect x="150" y="90" width="10" height="10" fill="#5bafeb" stroke="rgb(0, 0, 0)" pointer-events="all"/><rect x="150" y="100" width="10" height="10" fill="#5bafeb" stroke="rgb(0, 0, 0)" pointer-events="all"/><rect x="160" y="70" width="10" height="10" fill="#5bafeb" stroke="rgb(0, 0, 0)" pointer-events="all"/><rect x="170" y="70" width="10" height="10" fill="#ebea44" stroke="rgb(0, 0, 0)" pointer-events="all"/><rect x="180" y="70" width="10" height="10" fill="#ebea44" stroke="rgb(0, 0, 0)" pointer-events="all"/><rect x="160" y="40" width="10" height="10" fill="#5bafeb" stroke="rgb(0, 0, 0)" pointer-events="all"/><rect x="170" y="40" width="10" height="10" fill="#ebea44" stroke="rgb(0, 0, 0)" pointer-events="all"/><rect x="180" y="40" width="10" height="10" fill="#ebea44" stroke="rgb(0, 0, 0)" pointer-events="all"/><rect x="160" y="50" width="10" height="10" fill="#5bafeb" stroke="rgb(0, 0, 0)" pointer-events="all"/><rect x="170" y="50" width="10" height="10" fill="#ebea44" stroke="rgb(0, 0, 0)" pointer-events="all"/><rect x="180" y="50" width="10" height="10" fill="#ebea44" stroke="rgb(0, 0, 0)" pointer-events="all"/><rect x="160" y="60" width="10" height="10" fill="#5bafeb" stroke="rgb(0, 0, 0)" pointer-events="all"/><rect x="170" y="60" width="10" height="10" fill="#ebea44" stroke="rgb(0, 0, 0)" pointer-events="all"/><rect x="180" y="60" width="10" height="10" fill="#ebea44" stroke="rgb(0, 0, 0)" pointer-events="all"/><rect x="190" y="70" width="10" height="10" fill="#ebea44" stroke="rgb(0, 0, 0)" pointer-events="all"/><rect x="200" y="70" width="10" height="10" fill="#ebea44" stroke="rgb(0, 0, 0)" pointer-events="all"/><rect x="210" y="70" width="10" height="10" fill="#5bafeb" stroke="rgb(0, 0, 0)" pointer-events="all"/><rect x="190" y="40" width="10" height="10" fill="#ebea44" stroke="rgb(0, 0, 0)" pointer-events="all"/><rect x="200" y="40" width="10" height="10" fill="#ebea44" stroke="rgb(0, 0, 0)" pointer-events="all"/><rect x="210" y="40" width="10" height="10" fill="#5bafeb" stroke="rgb(0, 0, 0)" pointer-events="all"/><rect x="190" y="50" width="10" height="10" fill="#ebea44" stroke="rgb(0, 0, 0)" pointer-events="all"/><rect x="200" y="50" width="10" height="10" fill="#ebea44" stroke="rgb(0, 0, 0)" pointer-events="all"/><rect x="210" y="50" width="10" height="10" fill="#5bafeb" stroke="rgb(0, 0, 0)" pointer-events="all"/><rect x="190" y="60" width="10" height="10" fill="#ebea44" stroke="rgb(0, 0, 0)" pointer-events="all"/><rect x="200" y="60" width="10" height="10" fill="#ebea44" stroke="rgb(0, 0, 0)" pointer-events="all"/><rect x="210" y="60" width="10" height="10" fill="#5bafeb" stroke="rgb(0, 0, 0)" pointer-events="all"/><rect x="220" y="70" width="10" height="10" fill="#5bafeb" stroke="rgb(0, 0, 0)" pointer-events="all"/><rect x="220" y="40" width="10" height="10" fill="#5bafeb" stroke="rgb(0, 0, 0)" pointer-events="all"/><rect x="220" y="50" width="10" height="10" fill="#5bafeb" stroke="rgb(0, 0, 0)" pointer-events="all"/><rect x="220" y="60" width="10" height="10" fill="#5bafeb" stroke="rgb(0, 0, 0)" pointer-events="all"/><rect x="150" y="70" width="10" height="10" fill="#5bafeb" stroke="rgb(0, 0, 0)" pointer-events="all"/><rect x="150" y="40" width="10" height="10" fill="#5bafeb" stroke="rgb(0, 0, 0)" pointer-events="all"/><rect x="150" y="50" width="10" height="10" fill="#5bafeb" stroke="rgb(0, 0, 0)" pointer-events="all"/><rect x="150" y="60" width="10" height="10" fill="#5bafeb" stroke="rgb(0, 0, 0)" pointer-events="all"/><rect x="420" y="30" width="10" height="10" fill="#eb716e" stroke="rgb(0, 0, 0)" pointer-events="all"/><rect x="430" y="30" width="10" height="10" fill="#eb716e" stroke="rgb(0, 0, 0)" pointer-events="all"/><rect x="440" y="30" width="10" height="10" fill="#eb716e" stroke="rgb(0, 0, 0)" pointer-events="all"/><rect x="420" y="40" width="10" height="10" fill="#ebea44" stroke="rgb(0, 0, 0)" pointer-events="all"/><rect x="430" y="40" width="10" height="10" fill="#ebea44" stroke="rgb(0, 0, 0)" pointer-events="all"/><rect x="440" y="40" width="10" height="10" fill="#eb716e" stroke="rgb(0, 0, 0)" pointer-events="all"/><rect x="420" y="50" width="10" height="10" fill="#ebea44" stroke="rgb(0, 0, 0)" pointer-events="all"/><rect x="430" y="50" width="10" height="10" fill="#ebea44" stroke="rgb(0, 0, 0)" pointer-events="all"/><rect x="440" y="50" width="10" height="10" fill="#eb716e" stroke="rgb(0, 0, 0)" pointer-events="all"/><rect x="420" y="60" width="10" height="10" fill="#ebea44" stroke="rgb(0, 0, 0)" pointer-events="all"/><rect x="430" y="60" width="10" height="10" fill="#ebea44" stroke="rgb(0, 0, 0)" pointer-events="all"/><rect x="440" y="60" width="10" height="10" fill="#eb716e" stroke="rgb(0, 0, 0)" pointer-events="all"/><rect x="390" y="30" width="10" height="10" fill="#eb716e" stroke="rgb(0, 0, 0)" pointer-events="all"/><rect x="400" y="30" width="10" height="10" fill="#eb716e" stroke="rgb(0, 0, 0)" pointer-events="all"/><rect x="410" y="30" width="10" height="10" fill="#eb716e" stroke="rgb(0, 0, 0)" pointer-events="all"/><rect x="390" y="40" width="10" height="10" fill="#eb716e" stroke="rgb(0, 0, 0)" pointer-events="all"/><rect x="400" y="40" width="10" height="10" fill="#ebea44" stroke="rgb(0, 0, 0)" pointer-events="all"/><rect x="410" y="40" width="10" height="10" fill="#ebea44" stroke="rgb(0, 0, 0)" pointer-events="all"/><rect x="390" y="50" width="10" height="10" fill="#eb716e" stroke="rgb(0, 0, 0)" pointer-events="all"/><rect x="400" y="50" width="10" height="10" fill="#ebea44" stroke="rgb(0, 0, 0)" pointer-events="all"/><rect x="410" y="50" width="10" height="10" fill="#ebea44" stroke="rgb(0, 0, 0)" pointer-events="all"/><rect x="390" y="60" width="10" height="10" fill="#eb716e" stroke="rgb(0, 0, 0)" pointer-events="all"/><rect x="400" y="60" width="10" height="10" fill="#ebea44" stroke="rgb(0, 0, 0)" pointer-events="all"/><rect x="410" y="60" width="10" height="10" fill="#ebea44" stroke="rgb(0, 0, 0)" pointer-events="all"/><rect x="380" y="30" width="10" height="10" fill="#eb716e" stroke="rgb(0, 0, 0)" pointer-events="all"/><rect x="380" y="40" width="10" height="10" fill="#eb716e" stroke="rgb(0, 0, 0)" pointer-events="all"/><rect x="380" y="50" width="10" height="10" fill="#eb716e" stroke="rgb(0, 0, 0)" pointer-events="all"/><rect x="380" y="60" width="10" height="10" fill="#eb716e" stroke="rgb(0, 0, 0)" pointer-events="all"/><rect x="450" y="30" width="10" height="10" fill="#eb716e" stroke="rgb(0, 0, 0)" pointer-events="all"/><rect x="450" y="40" width="10" height="10" fill="#eb716e" stroke="rgb(0, 0, 0)" pointer-events="all"/><rect x="450" y="50" width="10" height="10" fill="#eb716e" stroke="rgb(0, 0, 0)" pointer-events="all"/><rect x="450" y="60" width="10" height="10" fill="#eb716e" stroke="rgb(0, 0, 0)" pointer-events="all"/><rect x="420" y="70" width="10" height="10" fill="#ebea44" stroke="rgb(0, 0, 0)" pointer-events="all"/><rect x="430" y="70" width="10" height="10" fill="#ebea44" stroke="rgb(0, 0, 0)" pointer-events="all"/><rect x="440" y="70" width="10" height="10" fill="#eb716e" stroke="rgb(0, 0, 0)" pointer-events="all"/><rect x="420" y="80" width="10" height="10" fill="#eb716e" stroke="rgb(0, 0, 0)" pointer-events="all"/><rect x="430" y="80" width="10" height="10" fill="#eb716e" stroke="rgb(0, 0, 0)" pointer-events="all"/><rect x="440" y="80" width="10" height="10" fill="#eb716e" stroke="rgb(0, 0, 0)" pointer-events="all"/><rect x="420" y="90" width="10" height="10" fill="#eb716e" stroke="rgb(0, 0, 0)" pointer-events="all"/><rect x="430" y="90" width="10" height="10" fill="#eb716e" stroke="rgb(0, 0, 0)" pointer-events="all"/><rect x="440" y="90" width="10" height="10" fill="#eb716e" stroke="rgb(0, 0, 0)" pointer-events="all"/><rect x="420" y="100" width="10" height="10" fill="#eb716e" stroke="rgb(0, 0, 0)" pointer-events="all"/><rect x="430" y="100" width="10" height="10" fill="#eb716e" stroke="rgb(0, 0, 0)" pointer-events="all"/><rect x="440" y="100" width="10" height="10" fill="#eb716e" stroke="rgb(0, 0, 0)" pointer-events="all"/><rect x="390" y="70" width="10" height="10" fill="#eb716e" stroke="rgb(0, 0, 0)" pointer-events="all"/><rect x="400" y="70" width="10" height="10" fill="#ebea44" stroke="rgb(0, 0, 0)" pointer-events="all"/><rect x="410" y="70" width="10" height="10" fill="#ebea44" stroke="rgb(0, 0, 0)" pointer-events="all"/><rect x="390" y="80" width="10" height="10" fill="#eb716e" stroke="rgb(0, 0, 0)" pointer-events="all"/><rect x="400" y="80" width="10" height="10" fill="#eb716e" stroke="rgb(0, 0, 0)" pointer-events="all"/><rect x="410" y="80" width="10" height="10" fill="#eb716e" stroke="rgb(0, 0, 0)" pointer-events="all"/><rect x="390" y="90" width="10" height="10" fill="#eb716e" stroke="rgb(0, 0, 0)" pointer-events="all"/><rect x="400" y="90" width="10" height="10" fill="#eb716e" stroke="rgb(0, 0, 0)" pointer-events="all"/><rect x="410" y="90" width="10" height="10" fill="#eb716e" stroke="rgb(0, 0, 0)" pointer-events="all"/><rect x="390" y="100" width="10" height="10" fill="#eb716e" stroke="rgb(0, 0, 0)" pointer-events="all"/><rect x="400" y="100" width="10" height="10" fill="#eb716e" stroke="rgb(0, 0, 0)" pointer-events="all"/><rect x="410" y="100" width="10" height="10" fill="#eb716e" stroke="rgb(0, 0, 0)" pointer-events="all"/><rect x="380" y="70" width="10" height="10" fill="#eb716e" stroke="rgb(0, 0, 0)" pointer-events="all"/><rect x="380" y="80" width="10" height="10" fill="#eb716e" stroke="rgb(0, 0, 0)" pointer-events="all"/><rect x="380" y="90" width="10" height="10" fill="#eb716e" stroke="rgb(0, 0, 0)" pointer-events="all"/><rect x="380" y="100" width="10" height="10" fill="#eb716e" stroke="rgb(0, 0, 0)" pointer-events="all"/><rect x="450" y="70" width="10" height="10" fill="#eb716e" stroke="rgb(0, 0, 0)" pointer-events="all"/><rect x="450" y="80" width="10" height="10" fill="#eb716e" stroke="rgb(0, 0, 0)" pointer-events="all"/><rect x="450" y="90" width="10" height="10" fill="#eb716e" stroke="rgb(0, 0, 0)" pointer-events="all"/><rect x="450" y="100" width="10" height="10" fill="#eb716e" stroke="rgb(0, 0, 0)" pointer-events="all"/><rect x="250" y="200" width="10" height="10" fill="#5bafeb" stroke="rgb(0, 0, 0)" pointer-events="all"/><rect x="260" y="200" width="10" height="10" fill="#5bafeb" stroke="rgb(0, 0, 0)" pointer-events="all"/><rect x="270" y="200" width="10" height="10" fill="#5bafeb" stroke="rgb(0, 0, 0)" pointer-events="all"/><rect x="250" y="210" width="10" height="10" fill="#5bafeb" stroke="rgb(0, 0, 0)" pointer-events="all"/><rect x="260" y="210" width="10" height="10" fill="#5bafeb" stroke="rgb(0, 0, 0)" pointer-events="all"/><rect x="270" y="210" width="10" height="10" fill="#5bafeb" stroke="rgb(0, 0, 0)" pointer-events="all"/><rect x="250" y="220" width="10" height="10" fill="#5bafeb" stroke="rgb(0, 0, 0)" pointer-events="all"/><rect x="260" y="220" width="10" height="10" fill="#5bafeb" stroke="rgb(0, 0, 0)" pointer-events="all"/><rect x="270" y="220" width="10" height="10" fill="#5bafeb" stroke="rgb(0, 0, 0)" pointer-events="all"/><rect x="280" y="200" width="10" height="10" fill="#5bafeb" stroke="rgb(0, 0, 0)" pointer-events="all"/><rect x="280" y="210" width="10" height="10" fill="#5bafeb" stroke="rgb(0, 0, 0)" pointer-events="all"/><rect x="280" y="220" width="10" height="10" fill="#5bafeb" stroke="rgb(0, 0, 0)" pointer-events="all"/><rect x="330" y="200" width="10" height="10" fill="#eb716e" stroke="rgb(0, 0, 0)" pointer-events="all"/><rect x="340" y="200" width="10" height="10" fill="#eb716e" stroke="rgb(0, 0, 0)" pointer-events="all"/><rect x="350" y="200" width="10" height="10" fill="#eb716e" stroke="rgb(0, 0, 0)" pointer-events="all"/><rect x="330" y="210" width="10" height="10" fill="#eb716e" stroke="rgb(0, 0, 0)" pointer-events="all"/><rect x="340" y="210" width="10" height="10" fill="#eb716e" stroke="rgb(0, 0, 0)" pointer-events="all"/><rect x="350" y="210" width="10" height="10" fill="#eb716e" stroke="rgb(0, 0, 0)" pointer-events="all"/><rect x="330" y="220" width="10" height="10" fill="#eb716e" stroke="rgb(0, 0, 0)" pointer-events="all"/><rect x="340" y="220" width="10" height="10" fill="#eb716e" stroke="rgb(0, 0, 0)" pointer-events="all"/><rect x="350" y="220" width="10" height="10" fill="#eb716e" stroke="rgb(0, 0, 0)" pointer-events="all"/><rect x="320" y="200" width="10" height="10" fill="#eb716e" stroke="rgb(0, 0, 0)" pointer-events="all"/><rect x="320" y="210" width="10" height="10" fill="#eb716e" stroke="rgb(0, 0, 0)" pointer-events="all"/><rect x="320" y="220" width="10" height="10" fill="#eb716e" stroke="rgb(0, 0, 0)" pointer-events="all"/><rect x="160" y="230" width="10" height="10" fill="#5bafeb" stroke="rgb(0, 0, 0)" pointer-events="all"/><rect x="170" y="230" width="10" height="10" fill="#5bafeb" stroke="rgb(0, 0, 0)" pointer-events="all"/><rect x="180" y="230" width="10" height="10" fill="#5bafeb" stroke="rgb(0, 0, 0)" pointer-events="all"/><rect x="160" y="200" width="10" height="10" fill="#5bafeb" stroke="rgb(0, 0, 0)" pointer-events="all"/><rect x="170" y="200" width="10" height="10" fill="#ebea44" stroke="rgb(0, 0, 0)" pointer-events="all"/><rect x="180" y="200" width="10" height="10" fill="#ebea44" stroke="rgb(0, 0, 0)" pointer-events="all"/><rect x="160" y="210" width="10" height="10" fill="#5bafeb" stroke="rgb(0, 0, 0)" pointer-events="all"/><rect x="170" y="210" width="10" height="10" fill="#ebea44" stroke="rgb(0, 0, 0)" pointer-events="all"/><rect x="180" y="210" width="10" height="10" fill="#ebea44" stroke="rgb(0, 0, 0)" pointer-events="all"/><rect x="160" y="220" width="10" height="10" fill="#5bafeb" stroke="rgb(0, 0, 0)" pointer-events="all"/><rect x="170" y="220" width="10" height="10" fill="#ebea44" stroke="rgb(0, 0, 0)" pointer-events="all"/><rect x="180" y="220" width="10" height="10" fill="#ebea44" stroke="rgb(0, 0, 0)" pointer-events="all"/><rect x="190" y="230" width="10" height="10" fill="#5bafeb" stroke="rgb(0, 0, 0)" pointer-events="all"/><rect x="200" y="230" width="10" height="10" fill="#5bafeb" stroke="rgb(0, 0, 0)" pointer-events="all"/><rect x="210" y="230" width="10" height="10" fill="#5bafeb" stroke="rgb(0, 0, 0)" pointer-events="all"/><rect x="190" y="200" width="10" height="10" fill="#ebea44" stroke="rgb(0, 0, 0)" pointer-events="all"/><rect x="200" y="200" width="10" height="10" fill="#ebea44" stroke="rgb(0, 0, 0)" pointer-events="all"/><rect x="210" y="200" width="10" height="10" fill="#5bafeb" stroke="rgb(0, 0, 0)" pointer-events="all"/><rect x="190" y="210" width="10" height="10" fill="#ebea44" stroke="rgb(0, 0, 0)" pointer-events="all"/><rect x="200" y="210" width="10" height="10" fill="#ebea44" stroke="rgb(0, 0, 0)" pointer-events="all"/><rect x="210" y="210" width="10" height="10" fill="#5bafeb" stroke="rgb(0, 0, 0)" pointer-events="all"/><rect x="190" y="220" width="10" height="10" fill="#ebea44" stroke="rgb(0, 0, 0)" pointer-events="all"/><rect x="200" y="220" width="10" height="10" fill="#ebea44" stroke="rgb(0, 0, 0)" pointer-events="all"/><rect x="210" y="220" width="10" height="10" fill="#5bafeb" stroke="rgb(0, 0, 0)" pointer-events="all"/><rect x="220" y="230" width="10" height="10" fill="#5bafeb" stroke="rgb(0, 0, 0)" pointer-events="all"/><rect x="220" y="200" width="10" height="10" fill="#5bafeb" stroke="rgb(0, 0, 0)" pointer-events="all"/><rect x="220" y="210" width="10" height="10" fill="#5bafeb" stroke="rgb(0, 0, 0)" pointer-events="all"/><rect x="220" y="220" width="10" height="10" fill="#5bafeb" stroke="rgb(0, 0, 0)" pointer-events="all"/><rect x="150" y="230" width="10" height="10" fill="#5bafeb" stroke="rgb(0, 0, 0)" pointer-events="all"/><rect x="150" y="200" width="10" height="10" fill="#5bafeb" stroke="rgb(0, 0, 0)" pointer-events="all"/><rect x="150" y="210" width="10" height="10" fill="#5bafeb" stroke="rgb(0, 0, 0)" pointer-events="all"/><rect x="150" y="220" width="10" height="10" fill="#5bafeb" stroke="rgb(0, 0, 0)" pointer-events="all"/><rect x="160" y="190" width="10" height="10" fill="#5bafeb" stroke="rgb(0, 0, 0)" pointer-events="all"/><rect x="170" y="190" width="10" height="10" fill="#5bafeb" stroke="rgb(0, 0, 0)" pointer-events="all"/><rect x="180" y="190" width="10" height="10" fill="#5bafeb" stroke="rgb(0, 0, 0)" pointer-events="all"/><rect x="160" y="160" width="10" height="10" fill="#5bafeb" stroke="rgb(0, 0, 0)" pointer-events="all"/><rect x="170" y="160" width="10" height="10" fill="#5bafeb" stroke="rgb(0, 0, 0)" pointer-events="all"/><rect x="180" y="160" width="10" height="10" fill="#5bafeb" stroke="rgb(0, 0, 0)" pointer-events="all"/><rect x="160" y="170" width="10" height="10" fill="#5bafeb" stroke="rgb(0, 0, 0)" pointer-events="all"/><rect x="170" y="170" width="10" height="10" fill="#5bafeb" stroke="rgb(0, 0, 0)" pointer-events="all"/><rect x="180" y="170" width="10" height="10" fill="#5bafeb" stroke="rgb(0, 0, 0)" pointer-events="all"/><rect x="160" y="180" width="10" height="10" fill="#5bafeb" stroke="rgb(0, 0, 0)" pointer-events="all"/><rect x="170" y="180" width="10" height="10" fill="#5bafeb" stroke="rgb(0, 0, 0)" pointer-events="all"/><rect x="180" y="180" width="10" height="10" fill="#5bafeb" stroke="rgb(0, 0, 0)" pointer-events="all"/><rect x="190" y="190" width="10" height="10" fill="#5bafeb" stroke="rgb(0, 0, 0)" pointer-events="all"/><rect x="200" y="190" width="10" height="10" fill="#5bafeb" stroke="rgb(0, 0, 0)" pointer-events="all"/><rect x="210" y="190" width="10" height="10" fill="#5bafeb" stroke="rgb(0, 0, 0)" pointer-events="all"/><rect x="190" y="160" width="10" height="10" fill="#5bafeb" stroke="rgb(0, 0, 0)" pointer-events="all"/><rect x="200" y="160" width="10" height="10" fill="#5bafeb" stroke="rgb(0, 0, 0)" pointer-events="all"/><rect x="210" y="160" width="10" height="10" fill="#5bafeb" stroke="rgb(0, 0, 0)" pointer-events="all"/><rect x="190" y="170" width="10" height="10" fill="#5bafeb" stroke="rgb(0, 0, 0)" pointer-events="all"/><rect x="200" y="170" width="10" height="10" fill="#5bafeb" stroke="rgb(0, 0, 0)" pointer-events="all"/><rect x="210" y="170" width="10" height="10" fill="#5bafeb" stroke="rgb(0, 0, 0)" pointer-events="all"/><rect x="190" y="180" width="10" height="10" fill="#5bafeb" stroke="rgb(0, 0, 0)" pointer-events="all"/><rect x="200" y="180" width="10" height="10" fill="#5bafeb" stroke="rgb(0, 0, 0)" pointer-events="all"/><rect x="210" y="180" width="10" height="10" fill="#5bafeb" stroke="rgb(0, 0, 0)" pointer-events="all"/><rect x="220" y="190" width="10" height="10" fill="#5bafeb" stroke="rgb(0, 0, 0)" pointer-events="all"/><rect x="220" y="160" width="10" height="10" fill="#5bafeb" stroke="rgb(0, 0, 0)" pointer-events="all"/><rect x="220" y="170" width="10" height="10" fill="#5bafeb" stroke="rgb(0, 0, 0)" pointer-events="all"/><rect x="220" y="180" width="10" height="10" fill="#5bafeb" stroke="rgb(0, 0, 0)" pointer-events="all"/><rect x="150" y="190" width="10" height="10" fill="#5bafeb" stroke="rgb(0, 0, 0)" pointer-events="all"/><rect x="150" y="160" width="10" height="10" fill="#5bafeb" stroke="rgb(0, 0, 0)" pointer-events="all"/><rect x="150" y="170" width="10" height="10" fill="#5bafeb" stroke="rgb(0, 0, 0)" pointer-events="all"/><rect x="150" y="180" width="10" height="10" fill="#5bafeb" stroke="rgb(0, 0, 0)" pointer-events="all"/><rect x="420" y="150" width="10" height="10" fill="#eb716e" stroke="rgb(0, 0, 0)" pointer-events="all"/><rect x="430" y="150" width="10" height="10" fill="#eb716e" stroke="rgb(0, 0, 0)" pointer-events="all"/><rect x="440" y="150" width="10" height="10" fill="#eb716e" stroke="rgb(0, 0, 0)" pointer-events="all"/><rect x="420" y="160" width="10" height="10" fill="#eb716e" stroke="rgb(0, 0, 0)" pointer-events="all"/><rect x="430" y="160" width="10" height="10" fill="#eb716e" stroke="rgb(0, 0, 0)" pointer-events="all"/><rect x="440" y="160" width="10" height="10" fill="#eb716e" stroke="rgb(0, 0, 0)" pointer-events="all"/><rect x="420" y="170" width="10" height="10" fill="#eb716e" stroke="rgb(0, 0, 0)" pointer-events="all"/><rect x="430" y="170" width="10" height="10" fill="#eb716e" stroke="rgb(0, 0, 0)" pointer-events="all"/><rect x="440" y="170" width="10" height="10" fill="#eb716e" stroke="rgb(0, 0, 0)" pointer-events="all"/><rect x="420" y="180" width="10" height="10" fill="#eb716e" stroke="rgb(0, 0, 0)" pointer-events="all"/><rect x="430" y="180" width="10" height="10" fill="#eb716e" stroke="rgb(0, 0, 0)" pointer-events="all"/><rect x="440" y="180" width="10" height="10" fill="#eb716e" stroke="rgb(0, 0, 0)" pointer-events="all"/><rect x="390" y="150" width="10" height="10" fill="#eb716e" stroke="rgb(0, 0, 0)" pointer-events="all"/><rect x="400" y="150" width="10" height="10" fill="#eb716e" stroke="rgb(0, 0, 0)" pointer-events="all"/><rect x="410" y="150" width="10" height="10" fill="#eb716e" stroke="rgb(0, 0, 0)" pointer-events="all"/><rect x="390" y="160" width="10" height="10" fill="#eb716e" stroke="rgb(0, 0, 0)" pointer-events="all"/><rect x="400" y="160" width="10" height="10" fill="#eb716e" stroke="rgb(0, 0, 0)" pointer-events="all"/><rect x="410" y="160" width="10" height="10" fill="#eb716e" stroke="rgb(0, 0, 0)" pointer-events="all"/><rect x="390" y="170" width="10" height="10" fill="#eb716e" stroke="rgb(0, 0, 0)" pointer-events="all"/><rect x="400" y="170" width="10" height="10" fill="#eb716e" stroke="rgb(0, 0, 0)" pointer-events="all"/><rect x="410" y="170" width="10" height="10" fill="#eb716e" stroke="rgb(0, 0, 0)" pointer-events="all"/><rect x="390" y="180" width="10" height="10" fill="#eb716e" stroke="rgb(0, 0, 0)" pointer-events="all"/><rect x="400" y="180" width="10" height="10" fill="#eb716e" stroke="rgb(0, 0, 0)" pointer-events="all"/><rect x="410" y="180" width="10" height="10" fill="#eb716e" stroke="rgb(0, 0, 0)" pointer-events="all"/><rect x="380" y="150" width="10" height="10" fill="#eb716e" stroke="rgb(0, 0, 0)" pointer-events="all"/><rect x="380" y="160" width="10" height="10" fill="#eb716e" stroke="rgb(0, 0, 0)" pointer-events="all"/><rect x="380" y="170" width="10" height="10" fill="#eb716e" stroke="rgb(0, 0, 0)" pointer-events="all"/><rect x="380" y="180" width="10" height="10" fill="#eb716e" stroke="rgb(0, 0, 0)" pointer-events="all"/><rect x="450" y="150" width="10" height="10" fill="#eb716e" stroke="rgb(0, 0, 0)" pointer-events="all"/><rect x="450" y="160" width="10" height="10" fill="#eb716e" stroke="rgb(0, 0, 0)" pointer-events="all"/><rect x="450" y="170" width="10" height="10" fill="#eb716e" stroke="rgb(0, 0, 0)" pointer-events="all"/><rect x="450" y="180" width="10" height="10" fill="#eb716e" stroke="rgb(0, 0, 0)" pointer-events="all"/><rect x="420" y="190" width="10" height="10" fill="#eb716e" stroke="rgb(0, 0, 0)" pointer-events="all"/><rect x="430" y="190" width="10" height="10" fill="#eb716e" stroke="rgb(0, 0, 0)" pointer-events="all"/><rect x="440" y="190" width="10" height="10" fill="#eb716e" stroke="rgb(0, 0, 0)" pointer-events="all"/><rect x="420" y="200" width="10" height="10" fill="#ebea44" stroke="rgb(0, 0, 0)" pointer-events="all"/><rect x="430" y="200" width="10" height="10" fill="#ebea44" stroke="rgb(0, 0, 0)" pointer-events="all"/><rect x="440" y="200" width="10" height="10" fill="#eb716e" stroke="rgb(0, 0, 0)" pointer-events="all"/><rect x="420" y="210" width="10" height="10" fill="#ebea44" stroke="rgb(0, 0, 0)" pointer-events="all"/><rect x="430" y="210" width="10" height="10" fill="#ebea44" stroke="rgb(0, 0, 0)" pointer-events="all"/><rect x="440" y="210" width="10" height="10" fill="#eb716e" stroke="rgb(0, 0, 0)" pointer-events="all"/><rect x="420" y="220" width="10" height="10" fill="#ebea44" stroke="rgb(0, 0, 0)" pointer-events="all"/><rect x="430" y="220" width="10" height="10" fill="#ebea44" stroke="rgb(0, 0, 0)" pointer-events="all"/><rect x="440" y="220" width="10" height="10" fill="#eb716e" stroke="rgb(0, 0, 0)" pointer-events="all"/><rect x="390" y="190" width="10" height="10" fill="#eb716e" stroke="rgb(0, 0, 0)" pointer-events="all"/><rect x="400" y="190" width="10" height="10" fill="#eb716e" stroke="rgb(0, 0, 0)" pointer-events="all"/><rect x="410" y="190" width="10" height="10" fill="#eb716e" stroke="rgb(0, 0, 0)" pointer-events="all"/><rect x="390" y="200" width="10" height="10" fill="#eb716e" stroke="rgb(0, 0, 0)" pointer-events="all"/><rect x="400" y="200" width="10" height="10" fill="#ebea44" stroke="rgb(0, 0, 0)" pointer-events="all"/><rect x="410" y="200" width="10" height="10" fill="#ebea44" stroke="rgb(0, 0, 0)" pointer-events="all"/><rect x="390" y="210" width="10" height="10" fill="#eb716e" stroke="rgb(0, 0, 0)" pointer-events="all"/><rect x="400" y="210" width="10" height="10" fill="#ebea44" stroke="rgb(0, 0, 0)" pointer-events="all"/><rect x="410" y="210" width="10" height="10" fill="#ebea44" stroke="rgb(0, 0, 0)" pointer-events="all"/><rect x="390" y="220" width="10" height="10" fill="#eb716e" stroke="rgb(0, 0, 0)" pointer-events="all"/><rect x="400" y="220" width="10" height="10" fill="#ebea44" stroke="rgb(0, 0, 0)" pointer-events="all"/><rect x="410" y="220" width="10" height="10" fill="#ebea44" stroke="rgb(0, 0, 0)" pointer-events="all"/><rect x="380" y="190" width="10" height="10" fill="#eb716e" stroke="rgb(0, 0, 0)" pointer-events="all"/><rect x="380" y="200" width="10" height="10" fill="#eb716e" stroke="rgb(0, 0, 0)" pointer-events="all"/><rect x="380" y="210" width="10" height="10" fill="#eb716e" stroke="rgb(0, 0, 0)" pointer-events="all"/><rect x="380" y="220" width="10" height="10" fill="#eb716e" stroke="rgb(0, 0, 0)" pointer-events="all"/><rect x="450" y="190" width="10" height="10" fill="#eb716e" stroke="rgb(0, 0, 0)" pointer-events="all"/><rect x="450" y="200" width="10" height="10" fill="#eb716e" stroke="rgb(0, 0, 0)" pointer-events="all"/><rect x="450" y="210" width="10" height="10" fill="#eb716e" stroke="rgb(0, 0, 0)" pointer-events="all"/><rect x="450" y="220" width="10" height="10" fill="#eb716e" stroke="rgb(0, 0, 0)" pointer-events="all"/><path d="M 320 225 L 290.81 79.04" fill="none" stroke="#ff0000" stroke-miterlimit="10" pointer-events="stroke"/><path d="M 290.22 76.1 L 292.96 79.63 L 290.81 79.04 L 289.04 80.41 Z" fill="#ff0000" stroke="#ff0000" stroke-miterlimit="10" pointer-events="all"/><path d="M 319.56 214.12 L 290.8 69.04" fill="none" stroke="#ff0000" stroke-miterlimit="10" pointer-events="stroke"/><path d="M 290.22 66.1 L 292.96 69.63 L 290.8 69.04 L 289.03 70.41 Z" fill="#ff0000" stroke="#ff0000" stroke-miterlimit="10" pointer-events="all"/><rect x="250" y="120" width="10" height="10" fill-opacity="0.5" fill="#5bafeb" stroke="rgb(0, 0, 0)" stroke-opacity="0.5" stroke-dasharray="3 3" pointer-events="all"/><rect x="260" y="120" width="10" height="10" fill-opacity="0.5" fill="#5bafeb" stroke="rgb(0, 0, 0)" stroke-opacity="0.5" stroke-dasharray="3 3" pointer-events="all"/><rect x="270" y="120" width="10" height="10" fill-opacity="0.5" fill="#5bafeb" stroke="rgb(0, 0, 0)" stroke-opacity="0.5" stroke-dasharray="3 3" pointer-events="all"/><rect x="280" y="120" width="10" height="10" fill-opacity="0.5" fill="#5bafeb" stroke="rgb(0, 0, 0)" stroke-opacity="0.5" stroke-dasharray="3 3" pointer-events="all"/><path d="M 320 205 L 290.81 59.04" fill="none" stroke="#ff0000" stroke-miterlimit="10" pointer-events="stroke"/><path d="M 290.22 56.1 L 292.96 59.63 L 290.81 59.04 L 289.04 60.41 Z" fill="#ff0000" stroke="#ff0000" stroke-miterlimit="10" pointer-events="all"/><rect x="250" y="230" width="10" height="10" fill-opacity="0.5" fill="#5bafeb" stroke="rgb(0, 0, 0)" stroke-opacity="0.5" stroke-dasharray="3 3" pointer-events="all"/><rect x="260" y="230" width="10" height="10" fill-opacity="0.5" fill="#5bafeb" stroke="rgb(0, 0, 0)" stroke-opacity="0.5" stroke-dasharray="3 3" pointer-events="all"/><rect x="270" y="230" width="10" height="10" fill-opacity="0.5" fill="#5bafeb" stroke="rgb(0, 0, 0)" stroke-opacity="0.5" stroke-dasharray="3 3" pointer-events="all"/><rect x="280" y="230" width="10" height="10" fill-opacity="0.5" fill="#5bafeb" stroke="rgb(0, 0, 0)" stroke-opacity="0.5" stroke-dasharray="3 3" pointer-events="all"/><rect x="250" y="250" width="10" height="10" fill-opacity="0.5" fill="#5bafeb" stroke="rgb(0, 0, 0)" stroke-opacity="0.5" stroke-dasharray="3 3" pointer-events="all"/><rect x="260" y="250" width="10" height="10" fill-opacity="0.5" fill="#5bafeb" stroke="rgb(0, 0, 0)" stroke-opacity="0.5" stroke-dasharray="3 3" pointer-events="all"/><rect x="270" y="250" width="10" height="10" fill-opacity="0.5" fill="#5bafeb" stroke="rgb(0, 0, 0)" stroke-opacity="0.5" stroke-dasharray="3 3" pointer-events="all"/><rect x="280" y="250" width="10" height="10" fill-opacity="0.5" fill="#5bafeb" stroke="rgb(0, 0, 0)" stroke-opacity="0.5" stroke-dasharray="3 3" pointer-events="all"/><rect x="250" y="260" width="10" height="10" fill-opacity="0.5" fill="#5bafeb" stroke="rgb(0, 0, 0)" stroke-opacity="0.5" stroke-dasharray="3 3" pointer-events="all"/><rect x="260" y="260" width="10" height="10" fill-opacity="0.5" fill="#5bafeb" stroke="rgb(0, 0, 0)" stroke-opacity="0.5" stroke-dasharray="3 3" pointer-events="all"/><rect x="270" y="260" width="10" height="10" fill-opacity="0.5" fill="#5bafeb" stroke="rgb(0, 0, 0)" stroke-opacity="0.5" stroke-dasharray="3 3" pointer-events="all"/><rect x="280" y="260" width="10" height="10" fill-opacity="0.5" fill="#5bafeb" stroke="rgb(0, 0, 0)" stroke-opacity="0.5" stroke-dasharray="3 3" pointer-events="all"/><rect x="250" y="270" width="10" height="10" fill-opacity="0.5" fill="#5bafeb" stroke="rgb(0, 0, 0)" stroke-opacity="0.5" stroke-dasharray="3 3" pointer-events="all"/><rect x="260" y="270" width="10" height="10" fill-opacity="0.5" fill="#5bafeb" stroke="rgb(0, 0, 0)" stroke-opacity="0.5" stroke-dasharray="3 3" pointer-events="all"/><rect x="270" y="270" width="10" height="10" fill-opacity="0.5" fill="#5bafeb" stroke="rgb(0, 0, 0)" stroke-opacity="0.5" stroke-dasharray="3 3" pointer-events="all"/><rect x="280" y="270" width="10" height="10" fill-opacity="0.5" fill="#5bafeb" stroke="rgb(0, 0, 0)" stroke-opacity="0.5" stroke-dasharray="3 3" pointer-events="all"/><rect x="250" y="280" width="10" height="10" fill-opacity="0.5" fill="#5bafeb" stroke="rgb(0, 0, 0)" stroke-opacity="0.5" stroke-dasharray="3 3" pointer-events="all"/><rect x="260" y="280" width="10" height="10" fill-opacity="0.5" fill="#5bafeb" stroke="rgb(0, 0, 0)" stroke-opacity="0.5" stroke-dasharray="3 3" pointer-events="all"/><rect x="270" y="280" width="10" height="10" fill-opacity="0.5" fill="#5bafeb" stroke="rgb(0, 0, 0)" stroke-opacity="0.5" stroke-dasharray="3 3" pointer-events="all"/><rect x="280" y="280" width="10" height="10" fill-opacity="0.5" fill="#5bafeb" stroke="rgb(0, 0, 0)" stroke-opacity="0.5" stroke-dasharray="3 3" pointer-events="all"/><rect x="320" y="230" width="10" height="10" fill-opacity="0.5" fill="#eb716e" stroke="rgb(0, 0, 0)" stroke-opacity="0.5" stroke-dasharray="3 3" pointer-events="all"/><rect x="330" y="230" width="10" height="10" fill-opacity="0.5" fill="#eb716e" stroke="rgb(0, 0, 0)" stroke-opacity="0.5" stroke-dasharray="3 3" pointer-events="all"/><rect x="340" y="230" width="10" height="10" fill-opacity="0.5" fill="#eb716e" stroke="rgb(0, 0, 0)" stroke-opacity="0.5" stroke-dasharray="3 3" pointer-events="all"/><rect x="350" y="230" width="10" height="10" fill-opacity="0.5" fill="#eb716e" stroke="rgb(0, 0, 0)" stroke-opacity="0.5" stroke-dasharray="3 3" pointer-events="all"/><rect x="0" y="65" width="130" height="20" fill="none" stroke="none" pointer-events="all"/><g fill="rgb(0, 0, 0)" font-family="Helvetica" text-anchor="end" font-size="12px"><text x="127.5" y="79.5">Middle loop iteration 0</text></g><rect x="0" y="185" width="130" height="20" fill="none" stroke="none" pointer-events="all"/><g fill="rgb(0, 0, 0)" font-family="Helvetica" text-anchor="end" font-size="12px"><text x="127.5" y="199.5">Middle loop iteration 1</text></g><path d="M 320 75 L 292.91 47.91" fill="none" stroke="#ff0000" stroke-miterlimit="10" pointer-events="stroke"/><path d="M 290.79 45.79 L 295.03 47.2 L 292.91 47.91 L 292.2 50.03 Z" fill="#ff0000" stroke="#ff0000" stroke-miterlimit="10" pointer-events="all"/><rect x="230" y="0" width="140" height="20" fill="none" stroke="none" pointer-events="all"/><g fill="#000000" font-family="Helvetica" text-anchor="middle" font-size="12px"><text x="299.5" y="14.5">Shared memory buffers</text></g><path d="M 150 140 L 460 140" fill="none" stroke="#000000" stroke-miterlimit="10" pointer-events="stroke"/></g></svg>